<svg id="Layer_1" xmlns="http://www.w3.org/2000/svg" width="213.684" height="116.083" viewBox="0 0 213.684 116.083"><path fill="#B70E0C" d="M21.707 54.806c0-15.595 7.797-24.408 14.916-24.408 4.971 0 8.588 3.616 10.509 8.136V8.928c0-3.955-.791-4.973-5.538-4.973h-.79V1.131L57.755 0v73.563c0 2.712.791 3.053 5.424 3.277v2.824l-16.047.566v-8.812c-1.355 4.18-4.745 9.604-10.848 9.604-7.798-.001-14.577-10.057-14.577-26.216m25.538 4.068v-8.701c0-7.571-3.164-15.367-7.347-15.367-3.954 0-6.327 2.711-6.214 20 0 16.499 1.582 21.81 5.988 21.81 4.974 0 7.573-8.137 7.573-17.742M75.834 73.902c-2.373 0-4.634 4.295-5.425 5.989h-2.6V54.468h2.6c5.425 12.205 13.334 23.166 20.68 23.166 5.764 0 8.813-4.973 8.589-11.188-.227-8.25-7.346-13.787-14.804-19.55-8.249-6.44-16.838-13.56-16.838-26.103C68.036 9.38 75.721.565 87.019.565c7.686 0 11.641 5.763 14.014 5.763 1.355 0 2.824-1.355 4.406-4.746h2.26v23.053h-2.713c-3.729-9.944-9.604-20.34-17.288-20.34-5.312 0-8.476 4.52-8.248 10.057.226 8.248 7.232 13.897 14.576 19.548 8.25 6.555 17.064 13.447 17.064 25.765 0 13.898-9.492 21.584-19.097 21.584-8.928 0-13.899-7.347-16.159-7.347"/><path d="M119.237 44.797h14.136c6.225 0 11.908 3.549 11.908 17.266 0 13.715-5.991 18.133-13.091 18.133h-13.086v-3.23h3.079V48.111h-2.946v-3.314zm8.781 31.965h2.482c3.843 0 8.453-2.479 8.453-14.836 0-12.359-5.145-13.814-7.863-13.814h-3.072v28.65zM158.051 77.239c1.656 0 4.613-1.361 4.613-5.502h5.732c-.825 4.198-3.665 8.694-10.759 8.694-7.096 0-10.289-6.093-10.289-12.888 0-6.801 3.428-12.955 10.76-12.955s10.702 5.264 10.702 13.896h-15.37c-.649 7.808 2.957 8.755 4.611 8.755zM153.5 64.821h9.284c0-5.027-1.834-6.976-4.732-6.976-2.897.001-4.552 2.717-4.552 6.976zM21.049 90.786V80.124h-3.372v3.099h-.294c-2.602-2.74-5.854-3.45-7.45-3.45C8.336 79.771 0 81.307 0 89.645c0 8.336 7.865 9.812 8.987 10.287 1.123.475 6.917 1.893 6.917 6.506 0 4.607-4.375 5.38-5.438 5.38-1.066 0-6.564-.892-7.037-8.104H.059v11.594h3.429v-3.23c2.426 2.402 5.025 3.7 8.158 3.7 4.082 0 10.172-3.25 10.172-10.584 0-7.093-6.857-9.458-8.456-10.106-1.597-.65-7.744-2.545-7.744-6.504 0-3.963 4.137-4.612 4.85-4.612.708 0 6.739.313 7.21 6.817h3.372v-.003zM33.11 83.847h-3.013c0 4.97-2.488 6.938-4.201 6.938h-1.891v3.409h3.251v15.728c0 3.728 3.961 6.328 7.155 6.152 3.192-.179 4.019-.77 4.019-.77l.119-4.025c-2.483.795-5.439.831-5.439-3.189V94.254h5.615v-3.469H33.11v-6.938zM41.682 98.159c0-4.556 1.42-8.339 8.692-8.339 7.271 0 9.696 3.313 9.696 6.271v15.982h3.253v3.231h-9.106l-.296-2.245c-2.362 1.712-3.783 2.715-6.03 2.715-2.246 0-7.272-1.833-7.272-7.33 0-5.496 5.678-6.859 9.282-7.744 3.607-.885 4.375-1.951 4.375-4.26 0-2.307-2.128-3.307-4.021-3.307s-2.957 1.828-2.957 3.188c0 1.362-.059 1.836-.059 1.836h-5.558v.002zm12.298 4.791c-3.37 0-6.975 1.7-6.975 5.258 0 3.194 2.186 3.488 3.547 3.488 1.36 0 3.368-.824 3.368-3.369.001-2.541.06-5.377.06-5.377zM121.918 98.159c0-4.556 1.418-8.339 8.688-8.339 7.271 0 9.698 3.313 9.698 6.271v15.982h3.25v3.231h-9.102l-.3-2.245c-2.362 1.712-3.782 2.715-6.028 2.715-2.248 0-7.275-1.833-7.275-7.33 0-5.496 5.678-6.859 9.287-7.744 3.605-.885 4.374-1.951 4.374-4.26 0-2.307-2.131-3.307-4.024-3.307-1.889 0-2.952 1.828-2.952 3.188 0 1.362-.062 1.836-.062 1.836h-5.554v.002zm12.295 4.791c-3.366 0-6.978 1.7-6.978 5.258 0 3.194 2.188 3.488 3.552 3.488 1.356 0 3.366-.824 3.366-3.369.002-2.541.06-5.377.06-5.377zM146.513 98.159c0-4.556 1.422-8.339 8.696-8.339 7.271 0 9.698 3.313 9.698 6.271v15.982h3.245v3.231h-9.104l-.292-2.245c-2.368 1.712-3.787 2.715-6.031 2.715-2.248 0-7.278-1.833-7.278-7.33 0-5.496 5.681-6.859 9.289-7.744 3.605-.885 4.372-1.951 4.372-4.26 0-2.307-2.126-3.307-4.018-3.307-1.894 0-2.957 1.828-2.957 3.188 0 1.362-.059 1.836-.059 1.836h-5.562v.002zm12.301 4.791c-3.369 0-6.976 1.7-6.976 5.258 0 3.194 2.188 3.488 3.547 3.488 1.36 0 3.372-.824 3.372-3.369 0-2.541.057-5.377.057-5.377zM65.333 90.786h9.225l-.06 2.641h.177c2.187-2.309 4.789-3.485 7.629-3.485 2.836 0 6.677 2.009 6.677 5.438v16.695h3.255v3.23H79.643v-3.23h3.191V96.503c0-1.539-2.067-2.604-3.726-2.604-1.654 0-4.375 1.364-4.375 4.082v14.095h3.075v3.23H65.333v-3.23h3.252v-17.82h-3.252v-3.47zM189.183 90.313c-2.68-.945-6.146-.473-8.827 2.209l-.315-.156-.162-1.58h-9.064v2.76h3.238v18.529h-3.238v3.23h12.616v-3.23h-3.233V98.118c0-3.623 3.711-4.099 4.574-4.099.868 0 3.315.614 4.421 1.877l-.01-5.583zM115.236 112.075V80.208h-9.027l-.02 3.312h3.25v9.496c-1.062-1.6-3.43-3.018-5.911-3.018-2.482 0-9.812 2.068-9.812 12.715 0 10.637 6.03 13.062 9.871 13.062 3.845 0 5.558-2.601 5.558-2.601h.294v2.131h9.049v-3.23h-3.252zm-10.881-.289c-1.538 0-4.58-.74-4.58-8.818 0-8.084 2.967-9.038 4.58-9.038 1.973 0 5.084.409 5.084 9.038 0 8.632-3.154 8.818-5.084 8.818zM210.428 112.075V80.208h-9.024l-.018 3.312h3.251v9.496c-1.063-1.6-3.432-3.018-5.913-3.018s-9.814 2.068-9.814 12.715c0 10.637 6.028 13.062 9.874 13.062 3.847 0 5.559-2.601 5.559-2.601h.296v2.131h9.047v-3.23h-3.258zm-10.876-.289c-1.537 0-4.584-.74-4.584-8.818 0-8.084 2.969-9.038 4.584-9.038 1.974 0 5.085.409 5.085 9.038 0 8.632-3.155 8.818-5.085 8.818z"/></svg>