<svg id="Layer_1" data-name="Layer 1" xmlns="http://www.w3.org/2000/svg" xmlns:xlink="http://www.w3.org/1999/xlink" viewBox="0 0 1112.14 118.57"><defs><style>.cls-1{fill:url(#linear-gradient);}.cls-2{fill:#231f20;}.cls-3{isolation:isolate;}</style><linearGradient id="linear-gradient" x1="669.57" y1="60.69" x2="775.11" y2="60.69" gradientTransform="matrix(1, 0, 0, -1, 0, 120)" gradientUnits="userSpaceOnUse"><stop offset="0" stop-color="#2e3192"/><stop offset="0.1" stop-color="#263c98"/><stop offset="0.31" stop-color="#0d77b8"/><stop offset="0.45" stop-color="#0097c9"/><stop offset="0.54" stop-color="#24a3b3"/><stop offset="0.76" stop-color="#73be83"/><stop offset="0.92" stop-color="#a5cf65"/><stop offset="1" stop-color="#b8d659"/></linearGradient></defs><title>Artboard 1</title><g id="Layer_2" data-name="Layer 2"><g id="Layer_1-2" data-name="Layer 1-2"><path class="cls-1" d="M770.61,27,727.34,1.19a9.7,9.7,0,0,0-9.25,0L674.15,27a10,10,0,0,0-4.58,8V84.86a9.81,9.81,0,0,0,4.67,8L718.1,117.5a10.13,10.13,0,0,0,9.21,0l42.5-23.94h0a9.93,9.93,0,0,0,4.7-7.94l.6-50.5A9.94,9.94,0,0,0,770.61,27ZM744.82,72.35,725.71,83.59V61.32l1.57-.93v.06l17.29-9.8ZM675.58,35.81l44.14,25.53V83.8l-44.14-25Zm46.91-2,19.26,11-19.06,11.3L703.23,44.88Zm25.81,7.81L728.54,30.39l18.39-10.52,19.39,11.58ZM721.14,6.33a3.79,3.79,0,0,1,3.13,0l16.75,10L697.22,41.4l-18-10.4Zm-44,81.27a3.9,3.9,0,0,1-1.61-2.74V65.68l42.43,24a8,8,0,0,0,1.71.69v21.07Zm48.53,23.88V90.32a7.94,7.94,0,0,0,1.53-.66l17.65-10.38.21,21.29Zm41.2-23.18h0l-15.8,8.9-.49-49.93,18.52-10.5-.58,48.74A4,4,0,0,1,766.87,88.3Z"/><circle class="cls-2" cx="1035.29" cy="45.31" r="6.28"/><path class="cls-2" d="M971,73.16c-.06-13.3-5.3-20-15.58-20-11.42,0-16.62,9.17-16.62,17.69,0,5.43,1.85,10.18,5.2,13.37a16.55,16.55,0,0,0,11.71,4.35h1.16c3.6-.18,7.16-.55,11.14-2.93l.57-.34L965,78l-.58.17c-4.69,1.37-9,1-11.82-1.06a5.67,5.67,0,0,1-2.31-3.25H971Zm-20.45-7c.7-3.06,2.13-4.33,4.8-4.33S961,63,961.81,66.19Z"/><path class="cls-2" d="M910.68,78.54a9.05,9.05,0,0,1-2.29.3c-3.33,0-4.63-1.28-4.63-4.56V63.19l9.81.18V54.09h-9.81V45.54H892.51v8.55H878.44V45.54H867.2v8.55h-5.7v9.09h5.7v13c0,8.28,6.72,12,13.37,12a21.09,21.09,0,0,0,9.06-1.8l.73-.33-4.47-7.6-.53.14a9,9,0,0,1-2.29.3c-3.33,0-4.63-1.28-4.63-4.56V63.18h14.07v13c0,8.28,6.72,12,13.37,12a21.09,21.09,0,0,0,9.06-1.8l.73-.33-4.47-7.6Z"/><path class="cls-2" d="M1108.41,78.08l-1,.25a12.31,12.31,0,0,1-2.53.51c-3.33,0-4.63-1.28-4.63-4.56V63.18h10.94l-5.12-9.09h-5.82V45.54H1089v8.55h-5.7v9.09h5.7v13c0,8.28,6.72,12,13.37,12a21.09,21.09,0,0,0,9.06-1.8l.66-.3Z"/><path class="cls-2" d="M934.29,78.35c-2.58,0-3.84-1.13-3.84-3.45V39.35H919.21v36.6c0,7.45,4.62,12.26,11.78,12.26a16.07,16.07,0,0,0,7.68-1.81l.72-.34-4.69-7.71Z"/><polygon class="cls-2" points="999.96 56.38 986.05 39.35 975.53 39.35 975.53 87.55 986.98 87.55 986.98 57.56 999.96 73.04 1012.93 57.56 1012.93 87.51 1024.39 87.51 1024.39 39.35 1013.87 39.35 999.96 56.38"/><rect class="cls-2" x="1029.7" y="54.09" width="11.24" height="33.43"/><path class="cls-2" d="M1067.08,53.12a15.17,15.17,0,0,0-9.5,3.24V54.09h-10.76V87.51h11.25V65.24a8.68,8.68,0,0,1,5.81-2.27c3.47,0,5.47,2.5,5.47,6.86V87.51h11.25V68.3C1080.6,57.09,1073.32,53.12,1067.08,53.12Z"/><path class="cls-2" d="M859.91,73.16c-.06-13.3-5.3-20-15.58-20-11.42,0-16.62,9.17-16.62,17.69,0,5.43,1.85,10.18,5.2,13.37a16.55,16.55,0,0,0,11.71,4.35h1.16c3.6-.18,7.16-.55,11.14-2.93l.57-.34L853.9,78l-.58.17c-4.69,1.37-9,1-11.82-1.06a5.67,5.67,0,0,1-2.31-3.25h20.73Zm-20.45-7c.7-3.06,2.13-4.33,4.8-4.33s5.62,1.16,6.45,4.33Z"/><path class="cls-2" d="M810.17,54.19c-3.74-1.66-7-3.1-7-5.29,0-2,1.51-3.26,4-3.26a9.52,9.52,0,0,1,5.73,1.73c1.26,1,2.1,1.74,2.1,1.74l7.18-7c-4.83-5.67-8.88-7.54-15.11-7.83-8-.37-16.48,6.79-16.48,15.34,0,9.33,7.48,12.9,13.48,15.77,4.36,2.08,8.12,3.88,8.12,7.21a5.39,5.39,0,0,1-5.33,5.18c-3.82.13-8.48-2.21-9.94-4.89l-9.14,5.52.48.84c2.7,5.11,10.76,9.63,18.35,9.69,7,.05,11.47-2.9,13.86-5.53a18,18,0,0,0,4.66-11.95C825.11,60.84,816.47,57,810.17,54.19Z"/><g class="cls-3"><g class="cls-3"><path class="cls-2" d="M29.81,45.34A18.29,18.29,0,0,0,11.45,64.07,18.29,18.29,0,0,0,29.81,82.79,28.89,28.89,0,0,0,46.73,77v7.49a33.13,33.13,0,0,1-16.92,4.75C15.7,89.27,4.1,78.9,4.1,64.07s11.59-25.2,25.71-25.2a33.24,33.24,0,0,1,17,4.9v7.49C41.55,47.79,35.14,45.34,29.81,45.34Z"/></g><g class="cls-3"><path class="cls-2" d="M69.33,61.19a9.84,9.84,0,0,0-7.42,3.6V88.26h-6.7V55.64h6.12V59C63.43,57,65.95,55.06,70,55.06a17.3,17.3,0,0,1,6.12,1.3v6.91A14.38,14.38,0,0,0,69.33,61.19Z"/></g><g class="cls-3"><path class="cls-2" d="M98.86,88.26v-3C95.62,87.68,93.1,89,89.78,89c-6.19,0-10.87-4.25-10.87-9.72,0-2.81,1.22-6.41,5.54-8.86,3.31-1.87,7.92-2.3,13.83-2.3v-1c0-5.11-3.82-6.55-6.84-6.55a19.49,19.49,0,0,0-10.66,3.6l1.66-6.7A24.6,24.6,0,0,1,93.1,54.92c7.06,0,11.88,4.32,11.88,12.53V88.26Zm-.58-14.91c-4.54,0-8,.43-10.23,1.66a4.3,4.3,0,0,0-2.38,3.89c0,2.16,1.51,4.32,5.26,4.32a11.94,11.94,0,0,0,7.34-3Z"/><path class="cls-2" d="M129.53,44.91c-3.89,0-6,1.94-6,7v3.74h10.58v5.69H123.48V88.26h-6.7V61.33h-6.62V55.64h6.62V51.9c0-6.48,2.81-13,12.17-13A24.79,24.79,0,0,1,136.3,40v6.41A19.59,19.59,0,0,0,129.53,44.91Z"/></g><g class="cls-3"><path class="cls-2" d="M157,88.84c-4.9,0-11.3-1.73-11.3-10.73V61.33H139.1V55.64h6.62V45.7h6.7v9.94h9.87v5.69h-9.87V77.6c0,4.25,2.23,5.47,5.62,5.47a13.43,13.43,0,0,0,6.26-1.66v5.9A15.86,15.86,0,0,1,157,88.84Z"/></g><g class="cls-3"><path class="cls-2" d="M175.39,73.86c.36,6.26,5,9.22,10.51,9.22a21.23,21.23,0,0,0,13.25-4.82v6.62A24.53,24.53,0,0,1,185,89.12c-10.15,0-16.71-6.84-16.71-17.35,0-8.35,5-16.85,15.91-16.85,7.92,0,15.48,5.33,15.48,18.51v.43Zm8.5-13.18c-5.54,0-7.92,3.74-8.5,7.56h16.92A8.06,8.06,0,0,0,183.88,60.68Z"/><path class="cls-2" d="M233.49,88.26v-3a16.12,16.12,0,0,1-10.08,3.67A16.6,16.6,0,0,1,207,71.84a16.77,16.77,0,0,1,16.56-16.92,17.34,17.34,0,0,1,9.36,2.74V39.87h6.7V88.26Zm-.58-24.12a14.13,14.13,0,0,0-8.78-3C217.79,61.11,214,66,214,71.84c0,7.63,5.62,10.87,10.23,10.87a12.9,12.9,0,0,0,8.64-3.53Z"/><path class="cls-2" d="M268,51.18l-5.4-5.4,5.4-5.4,5.4,5.4Zm-3.38,37.08V55.64h6.7V88.26Z"/><path class="cls-2" d="M306,88.26V70.69c0-6-3.24-9.36-8.42-9.36-3.67,0-7.06,1.87-9.22,3.46V88.26h-6.7V55.64h6.12v3a18.05,18.05,0,0,1,10.66-3.6c4.75,0,14.26,2.3,14.26,16V88.26Z"/></g><g class="cls-3"><path class="cls-2" d="M338,88.26V39.87h30.6v6.26H344.88v13h18.51v6.26H344.88V82h23.69v6.26Z"/></g><g class="cls-3"><path class="cls-2" d="M400.67,88.26v-3A18,18,0,0,1,390,88.91c-4.75,0-14.26-2.3-14.26-16V55.64h6.7V73.28c0,6,3.24,9.36,8.42,9.36,3.67,0,7.06-1.94,9.22-3.53V55.64h6.7V88.26Z"/></g><g class="cls-3"><path class="cls-2" d="M431.7,61.19a9.84,9.84,0,0,0-7.42,3.6V88.26h-6.7V55.64h6.12V59c2.09-1.94,4.61-3.89,8.64-3.89a17.3,17.3,0,0,1,6.12,1.3v6.91A14.38,14.38,0,0,0,431.7,61.19Z"/></g><g class="cls-3"><path class="cls-2" d="M458.5,89.05c-10.08,0-17.43-7.56-17.43-17.07s7.34-17.07,17.43-17.07S475.92,62.48,475.92,72,468.58,89.05,458.5,89.05Zm0-27.94c-5.9,0-10.44,4.39-10.44,10.87s4.54,10.87,10.44,10.87S468.94,78.47,468.94,72,464.4,61.11,458.5,61.11Z"/><path class="cls-2" d="M501,89a17.34,17.34,0,0,1-9.36-2.74V104h-6.7V55.64H491v3A16.12,16.12,0,0,1,501.12,55,17,17,0,0,1,501,89Zm-.72-27.79a12.9,12.9,0,0,0-8.64,3.53v15a14.13,14.13,0,0,0,8.78,3c6.34,0,10.08-4.9,10.08-10.73C510.48,64.43,504.86,61.19,500.26,61.19Z"/><path class="cls-2" d="M531.79,73.86c.36,6.26,5,9.22,10.51,9.22a21.23,21.23,0,0,0,13.25-4.82v6.62a24.53,24.53,0,0,1-14.11,4.25c-10.15,0-16.71-6.84-16.71-17.35,0-8.35,5-16.85,15.91-16.85,7.92,0,15.48,5.33,15.48,18.51v.43Zm8.5-13.18c-5.54,0-7.92,3.74-8.5,7.56h16.92A8.06,8.06,0,0,0,540.29,60.68Z"/><path class="cls-2" d="M596.09,88.91A16.12,16.12,0,0,1,586,85.24v3h-6.12V39.87h6.7V57.66a17.34,17.34,0,0,1,9.36-2.74A16.77,16.77,0,0,1,612.5,71.84,16.6,16.6,0,0,1,596.09,88.91Zm-.72-27.79a14.13,14.13,0,0,0-8.78,3v15a12.9,12.9,0,0,0,8.64,3.53c4.61,0,10.22-3.24,10.22-10.87C605.45,66,601.7,61.11,595.37,61.11Z"/><path class="cls-2" d="M630.72,96c-3.31,6.55-6.77,8.78-11.81,8.78a23.31,23.31,0,0,1-3.67-.36v-6a10.24,10.24,0,0,0,2.74.43c3.1,0,5-1.08,6.84-4.68l5-9.94L615.23,55.64h7.06l11,22.18L644,55.64h7.06Z"/></g></g></g></g></svg>