<svg enable-background="new 0 0 2997 586" viewBox="0 0 2997 586" xmlns="http://www.w3.org/2000/svg"><g fill="#ff4f4f"><path d="m158.2 5.9v238.1h-45.2v-7.1s-23.8 11.2-41.2 11.2c-51.4 0-66.3-29.9-66.3-89.8 0-62.2 24.1-88.4 70.4-88.4 12.6 0 36.7 4.8 36.7 4.8v-68.8zm-78.5 201.4c16 0 33-5.1 33-5.1v-89.5s-18.7-3.4-33.3-3.4c-17 0-27.5 14.6-27.5 49-.1 34.7 6.3 49 27.8 49zm251-80.3v70.7c.7 10.2 2 14.3 11.2 16l-1.4 34.4c-22.8 0-34.4-2.4-48.6-11.9 0 0-24.5 11.9-50 11.9-35.7 0-52.7-19.7-52.7-55.8 0-38.4 22.1-49.3 59.5-52l36.4-2.7v-10.6c0-14.6-6.5-18.4-20.1-18.4-22.4 0-63.9 2.7-63.9 2.7l-1.4-31.6s36.4-9.9 69-9.9c44.3.1 62 17.4 62 57.2zm-45.6 42.2-31 2.7c-11.9 1-19 6.8-19 19 0 11.9 4.4 20.1 16.7 20.1 14.6 0 33.3-5.4 33.3-5.4zm183.3-56.5h-41.8v69.7c0 17 0 24.8 14.3 24.8 9.5 0 25.8-.7 25.8-.7l2 36.4s-22.8 5.1-34.7 5.1c-41.2 0-53.1-15.6-53.1-64.6v-70.7h-19.9v-38.8h20v-47.2h45.6v47.3h41.8zm159.9 14.3v70.7c.7 10.2 2 14.3 11.2 16l-1.4 34.4c-22.8 0-34.4-2.4-48.6-11.9 0 0-24.5 11.9-50 11.9-35.7 0-52.7-19.7-52.7-55.8 0-38.4 22.1-49.3 59.5-52l36.4-2.7v-10.6c0-14.6-6.5-18.4-20.1-18.4-22.4 0-63.9 2.7-63.9 2.7l-1.4-31.6s36.4-9.9 69-9.9c44.3.1 62 17.4 62 57.2zm-45.6 42.2-31 2.7c-11.9 1-19 6.8-19 19 0 11.9 4.4 20.1 16.7 20.1 14.6 0 33.3-5.4 33.3-5.4zm171.4-99.3c46.3 0 68.7 21.4 68.7 86.7 0 73.1-24.8 91.5-84.7 91.5-16.3 0-66.3-4.8-66.3-4.8v-237.4h45.6v73.1s21.8-9.1 36.7-9.1zm-15.9 137.4c31.3 0 38.4-13.9 38.4-50.7 0-34.4-10.9-45.9-28.6-45.9-13.6 0-30.6 4.4-30.6 4.4v90.8s15.7 1.4 20.8 1.4zm118.7 36.7v-170.1h45.2v18s28.6-17 54.4-22.1v45.9c-29.9 5.8-54.1 14.3-54.1 14.3v114zm195.9-174.1c59.2 0 78.2 36.4 78.2 88.8s-19 89.5-78.2 89.5-78.2-37.1-78.2-89.5 19-88.8 78.2-88.8zm0 139.4c25.2 0 32-17.7 32-50.7s-6.8-50-32-50-32 17-32 50 6.8 50.7 32 50.7zm157.1 34.7h-45.6v-238.1h45.6v135.4l17.3-3.1 33.7-64.3h51l-44.2 80.6 46.6 89.5h-51.3l-34.4-66.3-18.7 3.1zm201.4-36.1c27.9 0 62.9-3.1 62.9-3.1l.7 33.7s-39.1 9.5-70.7 9.5c-51.4 0-73.1-25.5-73.1-86.7 0-60.5 25.5-91.5 75.2-91.5 50 0 74.1 25.5 74.1 76.9l-3.4 31.6h-100c.2 20.5 9.8 29.6 34.3 29.6zm-34.7-64.2h58.8c0-27.5-7.8-36.4-29.3-36.4-21.7 0-29.2 10.5-29.5 36.4zm136.4 100.3v-170.1h45.2v18s28.6-17 54.4-22.1v45.9c-29.9 5.8-54.1 14.3-54.1 14.3v114zm345.9-238.1v238.1h-45.2v-7.1s-23.8 11.2-41.2 11.2c-51.4 0-66.3-29.9-66.3-89.8 0-62.2 24.1-88.4 70.4-88.4 12.6 0 36.7 4.8 36.7 4.8v-68.8zm-78.6 201.4c16 0 33-5.1 33-5.1v-89.5s-18.7-3.4-33.3-3.4c-17 0-27.5 14.6-27.5 49-.1 34.7 6.4 49 27.8 49zm251-80.3v70.7c.7 10.2 2 14.3 11.2 16l-1.4 34.4c-22.8 0-34.4-2.4-48.6-11.9 0 0-24.5 11.9-50 11.9-35.7 0-52.7-19.7-52.7-55.8 0-38.4 22.1-49.3 59.5-52l36.4-2.7v-10.6c0-14.6-6.5-18.4-20.1-18.4-22.4 0-63.9 2.7-63.9 2.7l-1.4-31.6s36.4-9.9 69-9.9c44.3.1 62 17.4 62 57.2zm-45.6 42.2-31 2.7c-11.9 1-19 6.8-19 19 0 11.9 4.4 20.1 16.7 20.1 14.6 0 33.3-5.4 33.3-5.4zm158.5-99.3c59.2 0 78.2 36.4 78.2 88.8s-19 89.5-78.2 89.5-78.2-37.2-78.2-89.6 19-88.7 78.2-88.7zm0 139.4c25.2 0 32-17.7 32-50.7s-6.8-50-32-50-32 17-32 50 6.8 50.7 32 50.7z" transform="translate(770.525108 166.708653)"/><g transform="translate(.031166 .919309)"><path d="m574.1 206.9-70.3-122c8.7-9 14.1-21.2 14.1-34.7 0-27.5-22.4-49.9-49.9-49.9s-49.9 22.4-49.9 49.9 22.4 49.9 49.9 49.9c3.3 0 6.6-.3 9.7-1l70.6 122.6c2.8 4.8 7.8 7.5 12.9 7.5 2.5 0 5.1-.6 7.4-2 7.2-4.1 9.6-13.2 5.5-20.3zm-126.3-156.7c0-11.2 9.1-20.2 20.2-20.2s20.2 9 20.2 20.2-9.1 20.2-20.2 20.2c-11.1-.1-20.2-9.1-20.2-20.2z"/><path d="m521.8 462.2 73.1-120.3c12.1 3.3 25.4 2.1 37.2-4.4 24.1-13.3 33-43.7 19.7-67.8s-43.7-33-67.8-19.7-33 43.7-19.7 67.8c1.6 2.9 3.5 5.6 5.5 8.1l-73.5 120.9c-2.9 4.7-2.8 10.4-.3 14.9 1.2 2.2 3 4.1 5.3 5.5 7.1 4.2 16.2 2 20.5-5zm76.6-186.2c9.8-5.4 22-1.8 27.4 8s1.8 22-8 27.4c-9.7 5.4-22 1.8-27.4-8-5.3-9.7-1.8-22 8-27.4z"/><path d="m82 377.1 70.3 122c-8.7 9-14.1 21.2-14.1 34.7 0 27.5 22.4 49.9 49.9 49.9s49.9-22.4 49.9-49.9-22.4-49.9-49.9-49.9c-3.3 0-6.6.3-9.7 1l-70.6-122.6c-2.8-4.8-7.8-7.4-12.9-7.4-2.5 0-5.1.6-7.4 2-7.2 4-9.6 13.1-5.5 20.2zm126.2 156.8c0 11.1-9.1 20.2-20.2 20.2s-20.2-9-20.2-20.2c0-11.1 9.1-20.2 20.2-20.2 11.2 0 20.2 9.1 20.2 20.2z"/><path d="m136.3 121.9-73.2 120.3c-12.1-3.3-25.4-2.1-37.2 4.4-24.1 13.3-33 43.7-19.7 67.8s43.7 33 67.8 19.7 33-43.7 19.7-67.8c-1.6-2.9-3.5-5.6-5.5-8l73.5-120.9c2.9-4.7 2.8-10.4.3-14.9-1.2-2.2-3-4.1-5.3-5.5-7-4.4-16.2-2.1-20.4 4.9zm-76.6 186.1c-9.7 5.4-22 1.8-27.4-8-5.4-9.7-1.8-22 8-27.4s22-1.8 27.4 8c5.3 9.8 1.7 22.1-8 27.4z"/><path d="m375.6 37.9-140.8-.1c-3.4-12-11.3-22.8-23-29.6-23.8-13.8-54.5-5.6-68.2 18.3-13.8 23.9-5.6 54.5 18.3 68.2s54.5 5.6 68.2-18.3c1.7-2.9 3-5.9 4-8.9l141.5.1c5.5 0 10.3-3 12.9-7.5 1.3-2.2 2-4.7 2-7.4 0-8.1-6.7-14.8-14.9-14.8zm-198.9 31c-9.6-5.6-12.9-17.9-7.4-27.5 5.6-9.6 17.9-13 27.5-7.4s13 17.9 7.4 27.5c-5.5 9.6-17.8 13-27.5 7.4z"/><path d="m263.7 535.5c0 2.7.7 5.2 2 7.4 2.6 4.5 7.4 7.5 12.9 7.4l141.5-.1c1 3 2.4 6 4 8.9 13.8 23.8 44.4 32 68.2 18.3 23.8-13.8 32-44.4 18.3-68.2-13.8-23.9-44.4-32.1-68.2-18.3-11.7 6.7-19.6 17.5-23 29.6l-140.8.1c-8.3 0-14.9 6.7-14.9 14.9zm186.2 8.7c-5.6-9.6-2.2-22 7.4-27.6s22-2.3 27.6 7.4c5.6 9.6 2.2 22-7.4 27.6-9.7 5.6-22.1 2.3-27.6-7.4z"/><path d="m54.6 104.5c-27 0-48.9-21.9-48.9-48.9s22-48.9 48.9-48.9c27 0 48.9 21.9 48.9 48.9s-21.9 48.9-48.9 48.9zm0-70c-11.6 0-21.1 9.5-21.1 21.1s9.5 21.1 21.1 21.1 21.1-9.5 21.1-21.1-9.4-21.1-21.1-21.1z" transform="translate(272.018077 236.423269)"/><path d="m19 121.4c-7.7 0-13.9-6.2-13.9-13.9 0-55.9 45.5-101.4 101.4-101.4 7.7 0 13.9 6.2 13.9 13.9s-6.2 13.9-13.9 13.9c-40.6 0-73.6 33-73.6 73.6-.1 7.6-6.3 13.9-13.9 13.9z" transform="translate(220.181731 184.586923)"/><path d="m17.6 120c-7.7 0-13.9-6.2-13.9-13.9s6.2-13.9 13.9-13.9c40.6 0 73.6-33 73.6-73.6 0-7.7 6.2-13.9 13.9-13.9s13.9 6.2 13.9 13.9c0 55.9-45.5 101.4-101.4 101.4z" transform="translate(309.044038 273.449231)"/><path d="m20.7 165.8c-7.7 0-13.9-6.2-13.9-13.9.1-83.5 68-151.4 151.5-151.4 7.7 0 13.9 6.2 13.9 13.9s-6.2 13.9-13.9 13.9c-68.2 0-123.7 55.5-123.7 123.7 0 7.6-6.2 13.8-13.9 13.8z" transform="translate(168.345385 140.155769)"/><path d="m17.6 170c-7.7 0-13.9-6.2-13.9-13.9s6.2-13.9 13.9-13.9c68.2 0 123.7-55.5 123.7-123.7 0-7.7 6.2-13.9 13.9-13.9s13.9 6.2 13.9 13.9c-.1 83.6-68 151.5-151.5 151.5z" transform="translate(309.044038 273.449231)"/></g></g></svg>