<svg viewBox="0 0 2992.78 583.73" xmlns="http://www.w3.org/2000/svg" xmlns:xlink="http://www.w3.org/1999/xlink"><linearGradient id="a" gradientTransform="matrix(1 0 0 -1 0 583.68)" gradientUnits="userSpaceOnUse" x2="2992.78" y1="291.81" y2="291.81"><stop offset="0" stop-color="#ee274c"/><stop offset=".67" stop-color="#7e347e"/><stop offset="1" stop-color="#2e3192"/></linearGradient><path d="m928.58 171.4v238.1h-45.2v-7.1s-23.8 11.2-41.2 11.2c-51.4 0-66.3-29.9-66.3-89.8 0-62.2 24.1-88.4 70.4-88.4 12.6 0 36.7 4.8 36.7 4.8v-68.7c.1-.1 45.6-.1 45.6-.1zm-78.5 201.4c16 0 33-5.1 33-5.1v-89.5s-18.7-3.4-33.3-3.4c-17 0-27.5 14.6-27.5 49-.1 34.7 6.3 49 27.8 49zm251-80.3v70.7c.7 10.2 2 14.3 11.2 16l-1.4 34.4c-22.8 0-34.4-2.4-48.6-11.9 0 0-24.5 11.9-50 11.9-35.7 0-52.7-19.7-52.7-55.8 0-38.4 22.1-49.3 59.5-52l36.4-2.7v-10.5c0-14.6-6.5-18.4-20.1-18.4-22.4 0-63.9 2.7-63.9 2.7l-1.4-31.6s36.4-9.9 69-9.9c44.3 0 62 17.3 62 57.1zm-45.6 42.2-31 2.7c-11.9 1-19 6.8-19 19 0 11.9 4.4 20.1 16.7 20.1 14.6 0 33.3-5.4 33.3-5.4zm183.3-56.5h-41.78v69.7c0 17 0 24.8 14.3 24.8 9.5 0 25.8-.7 25.8-.7l2 36.4s-22.8 5.1-34.7 5.1c-41.2 0-53.1-15.6-53.1-64.6v-70.7h-20.1v-38.8h20.1v-47.2h45.6v47.3h41.8v38.7zm159.9 14.3v70.7c.7 10.2 2 14.3 11.2 16l-1.4 34.4c-22.8 0-34.4-2.4-48.6-11.9 0 0-24.5 11.9-50 11.9-35.7 0-52.7-19.7-52.7-55.8 0-38.4 22.1-49.3 59.5-52l36.4-2.7v-10.5c0-14.6-6.5-18.4-20.1-18.4-22.4 0-63.9 2.7-63.9 2.7l-1.4-31.6s36.4-9.9 69-9.9c44.32 0 62 17.3 62 57.1zm-45.6 42.2-31 2.7c-11.9 1-19 6.8-19 19 0 11.9 4.4 20.1 16.7 20.1 14.6 0 33.3-5.4 33.3-5.4zm171.4-99.3c46.3 0 68.7 21.4 68.7 86.7 0 73.1-24.8 91.5-84.7 91.5-16.3 0-66.3-4.8-66.3-4.8v-237.4h45.6v73.1c0 .1 21.8-9.1 36.7-9.1zm-16 137.4c31.3 0 38.4-13.9 38.4-50.7 0-34.4-10.9-45.9-28.6-45.9-13.6 0-30.6 4.4-30.6 4.4v90.8c.1 0 15.7 1.4 20.8 1.4zm118.8 36.7v-170h45.2v18s28.6-17 54.4-22.1v45.9a428.67 428.67 0 0 0 -54.1 14.3v113.9zm195.9-174.1c59.2 0 78.2 36.4 78.2 88.8s-19 89.5-78.2 89.5-78.2-37.1-78.2-89.5 19-88.8 78.2-88.8zm0 139.4c25.2 0 32-17.7 32-50.7s-6.8-50-32-50-32 17-32 50 6.82 50.7 32 50.7zm157.1 34.7h-45.6v-238.1h45.6v135.4l17.3-3.1 33.7-64.3h51l-44.2 80.6 46.6 89.5h-51.4l-34.4-66.3-18.7 3.1v63.2zm201.3-36c27.9 0 62.9-3.1 62.9-3.1l.7 33.7s-39.1 9.5-70.7 9.5c-51.4 0-73.1-25.5-73.1-86.7 0-60.5 25.5-91.5 75.2-91.5 50 0 74.1 25.5 74.1 76.9l-3.4 31.6h-100c.3 20.4 9.9 29.6 34.3 29.6zm-34.58-64.3h58.8c0-27.5-7.8-36.4-29.3-36.4-21.72 0-29.22 10.5-29.5 36.4zm136.3 100.3v-170h45.2v18s28.6-17 54.4-22.1v45.9a428.67 428.67 0 0 0 -54.1 14.3v113.9zm345.9-238.1v238.1h-45.2v-7.1s-23.8 11.2-41.2 11.2c-51.4 0-66.3-29.9-66.3-89.8 0-62.2 24.1-88.4 70.4-88.4 12.6 0 36.7 4.8 36.7 4.8v-68.7zm-78.5 201.4c16 0 33-5.1 33-5.1v-89.5s-18.7-3.4-33.3-3.4c-17 0-27.5 14.6-27.5 49-.1 34.7 6.4 49 27.8 49zm251-80.3v70.7c.7 10.2 2 14.3 11.2 16l-1.4 34.4c-22.8 0-34.4-2.4-48.6-11.9 0 0-24.5 11.9-50 11.9-35.7 0-52.7-19.7-52.7-55.8 0-38.4 22.1-49.3 59.5-52l36.4-2.7v-10.5c0-14.6-6.5-18.4-20.1-18.4-22.4 0-63.9 2.7-63.9 2.7l-1.4-31.6s36.4-9.9 69-9.9c44.3 0 62 17.3 62 57.1zm-45.6 42.2-31 2.7c-11.9 1-19 6.8-19 19 0 11.9 4.4 20.1 16.7 20.1 14.6 0 33.3-5.4 33.3-5.4zm158.5-99.3c59.2 0 78.2 36.4 78.2 88.8s-19 89.5-78.2 89.5-78.2-37.1-78.2-89.5 19-88.8 78.2-88.8zm0 139.4c25.2 0 32-17.7 32-50.7s-6.8-50-32-50-32 17-32 50 6.78 50.7 31.98 50.7zm-2340.6-168.2-70.3-122a49.86 49.86 0 1 0 -35.8 15.2 44.35 44.35 0 0 0 9.7-1l70.6 122.6a15 15 0 0 0 12.9 7.5 14.21 14.21 0 0 0 7.4-2 14.8 14.8 0 0 0 5.5-20.3zm-126.32-156.7a20.2 20.2 0 1 1 20.2 20.2 20.27 20.27 0 0 1 -20.2-20.2zm74 412 73.1-120.3a49.91 49.91 0 1 0 -30.6-24.1 57.61 57.61 0 0 0 5.5 8.1l-73.5 120.9a14.83 14.83 0 0 0 5 20.4 15 15 0 0 0 20.5-5zm76.6-186.2a20.18 20.18 0 1 1 -8 27.4 20.13 20.13 0 0 1 8-27.4zm-516.4 101.2 70.3 122a49.86 49.86 0 1 0 35.82-15.2 44.35 44.35 0 0 0 -9.7 1l-70.6-122.6a14.88 14.88 0 0 0 -12.9-7.4 14.21 14.21 0 0 0 -7.4 2 14.62 14.62 0 0 0 -5.52 20.2zm126.2 156.7a20.2 20.2 0 1 1 -20.2-20.2 20.27 20.27 0 0 1 20.2 20.2zm-71.9-412-73.1 120.3a49.91 49.91 0 1 0 30.6 24.1 51.37 51.37 0 0 0 -5.5-8l73.5-120.9a14.92 14.92 0 0 0 -25.5-15.5zm-76.6 186.1a20.18 20.18 0 1 1 8-27.4 20.16 20.16 0 0 1 -8 27.4zm315.9-270.1-140.8-.1a49.86 49.86 0 1 0 -4.68 38.6 46.82 46.82 0 0 0 4-8.9l141.5.1a14.88 14.88 0 0 0 12.9-7.5 14.39 14.39 0 0 0 2-7.4 14.92 14.92 0 0 0 -14.92-14.8zm-198.9 31a20.14 20.14 0 1 1 27.5-7.4 20 20 0 0 1 -27.5 7.4zm87 466.6a14.39 14.39 0 0 0 2 7.4 14.59 14.59 0 0 0 12.9 7.4l141.5-.1a54.05 54.05 0 0 0 4 8.9 49.93 49.93 0 1 0 18.3-68.2 49.31 49.31 0 0 0 -23 29.6l-140.8.1a14.87 14.87 0 0 0 -14.9 14.9zm186.2 8.7a20.21 20.21 0 1 1 27.6 7.4 20.26 20.26 0 0 1 -27.6-7.4zm-123.3-203.2a48.9 48.9 0 1 1 48.9-48.9 48.91 48.91 0 0 1 -48.9 48.9zm0-70a21.1 21.1 0 1 0 21.1 21.1 21.17 21.17 0 0 0 -21.1-21.1zm-87.5 35a13.87 13.87 0 0 1 -13.9-13.9 101.53 101.53 0 0 1 101.4-101.4 13.9 13.9 0 0 1 0 27.8 73.66 73.66 0 0 0 -73.6 73.6 13.93 13.93 0 0 1 -13.88 13.9zm87.5 87.5a13.9 13.9 0 0 1 0-27.8 73.66 73.66 0 0 0 73.6-73.6 13.9 13.9 0 1 1 27.8 0 101.47 101.47 0 0 1 -101.4 101.4zm-137.48-87.5a13.87 13.87 0 0 1 -13.9-13.9c0-83.5 67.9-151.4 151.5-151.4a13.9 13.9 0 1 1 0 27.8 123.85 123.85 0 0 0 -123.7 123.7 13.91 13.91 0 0 1 -13.9 13.8zm137.6 137.5a13.9 13.9 0 1 1 0-27.8 123.85 123.85 0 0 0 123.7-123.7 13.9 13.9 0 1 1 27.8 0c-.1 83.6-68.02 151.5-151.52 151.5z" fill="url(#a)"/></svg>