<?xml version="1.0" encoding="UTF-8"?>
<svg width="1700px" height="1165px" viewBox="0 0 1700 1165" version="1.1" xmlns="http://www.w3.org/2000/svg" xmlns:xlink="http://www.w3.org/1999/xlink">
    <!-- Generator: Sketch 42 (36781) - http://www.bohemiancoding.com/sketch -->
    <title>lines</title>
    <desc>Created with Sketch.</desc>
    <defs></defs>
    <g id="Page-1" stroke="none" stroke-width="1" fill="none" fill-rule="evenodd" opacity="0.6">
        <g id="network" transform="translate(-227.000000, -301.000000)" fill-rule="nonzero" fill="#FFFFFF">
            <g id="Group">
                <g id="lines" transform="translate(227.000000, 301.000000)">
                    <g id="Group">
                        <g>
                            <rect id="Rectangle-path" transform="translate(1404.600300, 632.912700) rotate(-53.930590) translate(-1404.600300, -632.912700) " x="904.002344" y="632.411651" width="1001.19591" height="0.711489438"></rect>
                            <rect id="Rectangle-path" transform="translate(1133.044953, 654.198819) rotate(-63.640000) translate(-1133.044953, -654.198819) " x="566.884953" y="653.698819" width="1132.32" height="0.71"></rect>
                            <rect id="Rectangle-path" transform="translate(1311.232579, 748.053889) rotate(-77.300000) translate(-1311.232579, -748.053889) " x="1310.73258" y="445.108889" width="0.71" height="605.89"></rect>
                            <rect id="Rectangle-path" transform="translate(1180.107764, 819.352706) rotate(-79.200000) translate(-1180.107764, -819.352706) " x="907.747764" y="818.852706" width="544.72" height="0.71"></rect>
                            <rect id="Rectangle-path" transform="translate(1148.922022, 510.503593) rotate(-63.440000) translate(-1148.922022, -510.503593) " x="1148.42202" y="418.733593" width="0.71" height="183.54"></rect>
                            <rect id="Rectangle-path" transform="translate(1171.506312, 320.256792) rotate(-55.040000) translate(-1171.506312, -320.256792) " x="989.056312" y="319.756792" width="364.9" height="0.71"></rect>
                            <rect id="Rectangle-path" transform="translate(1129.267800, 616.415400) rotate(-31.159305) translate(-1129.267800, -616.415400) " x="1002.92076" y="615.912906" width="252.694073" height="0.713541169"></rect>
                            <polygon id="Shape" points="1295.28 260.58 1295.97 260.73 1231.32 551.83 1230.63 551.67"></polygon>
                            <rect id="Rectangle-path" transform="translate(1415.439471, 442.273189) rotate(-21.250000) translate(-1415.439471, -442.273189) " x="1179.85947" y="441.773189" width="471.16" height="0.71"></rect>
                            <rect id="Rectangle-path" transform="translate(1437.870104, 647.836790) rotate(-63.510000) translate(-1437.870104, -647.836790) " x="1437.3701" y="377.46679" width="0.71" height="540.74"></rect>
                            <rect id="Rectangle-path" transform="translate(1417.389538, 330.557845) rotate(-49.860000) translate(-1417.389538, -330.557845) " x="1128.08954" y="330.057845" width="578.6" height="0.71"></rect>
                            <rect id="Rectangle-path" transform="translate(1514.899422, 562.242076) rotate(-31.090000) translate(-1514.899422, -562.242076) " x="1382.81442" y="561.742076" width="264.17" height="0.71"></rect>
                            <polygon id="Shape" points="1198.87 246.22 1402.01 630.25 1401.38 630.58 1198.24 246.55"></polygon>
                            <rect id="Rectangle-path" transform="translate(1194.051834, 473.942869) rotate(-88.000000) translate(-1194.051834, -473.942869) " x="1193.55183" y="346.582869" width="0.71" height="254.72"></rect>
                            <polygon id="Shape" points="1321.16 478.3 1321.6 478.85 1231.83 549.94 1231.39 549.39"></polygon>
                            <rect id="Rectangle-path" transform="translate(1454.638508, 475.566263) rotate(-1.340000) translate(-1454.638508, -475.566263) " x="1321.32851" y="475.066263" width="266.62" height="0.71"></rect>
                            <rect id="Rectangle-path" transform="translate(1439.262048, 500.659711) rotate(-73.680000) translate(-1439.262048, -500.659711) " x="1304.69705" y="500.159711" width="269.13" height="0.71"></rect>
                            <rect id="Rectangle-path" transform="translate(1455.005093, 372.436248) rotate(-2.290000) translate(-1455.005093, -372.436248) " x="1269.02509" y="371.936248" width="371.96" height="0.71"></rect>
                            <rect id="Rectangle-path" transform="translate(1485.209682, 227.073128) rotate(-74.870000) translate(-1485.209682, -227.073128) " x="1484.70968" y="10.3881285" width="0.71" height="433.37"></rect>
                            <rect id="Rectangle-path" transform="translate(1424.594757, 189.777088) rotate(-14.110000) translate(-1424.594757, -189.777088) " x="1191.58976" y="189.277088" width="466.01" height="0.71"></rect>
                            <rect id="Rectangle-path" transform="translate(1405.822519, 291.759408) rotate(-41.820000) translate(-1405.822519, -291.759408) " x="1405.32252" y="184.924408" width="0.71" height="213.67"></rect>
                            <rect id="Rectangle-path" transform="translate(1381.477973, 262.927323) rotate(-89.050000) translate(-1381.477973, -262.927323) " x="1268.95797" y="262.427323" width="225.04" height="0.71"></rect>
                            <rect id="Rectangle-path" transform="translate(675.332381, 792.838579) rotate(-53.950000) translate(-675.332381, -792.838579) " x="342.937381" y="792.338579" width="664.79" height="0.58"></rect>
                            <rect id="Rectangle-path" transform="translate(500.771619, 750.957080) rotate(-63.610000) translate(-500.771619, -750.957080) " x="39.5266192" y="750.45708" width="922.49" height="0.58"></rect>
                            <rect id="Rectangle-path" transform="translate(515.048860, 589.365889) rotate(-48.780000) translate(-515.048860, -589.365889) " x="514.54886" y="278.505889" width="0.58" height="621.72"></rect>
                            <rect id="Rectangle-path" transform="translate(345.243227, 547.380271) rotate(-50.760000) translate(-345.243227, -547.380271) " x="123.353227" y="546.880271" width="443.78" height="0.58"></rect>
                            <rect id="Rectangle-path" transform="translate(453.977623, 312.011933) rotate(-26.740000) translate(-453.977623, -312.011933) " x="453.477623" y="240.981933" width="0.58" height="142.06"></rect>
                            <polygon id="Shape" points="129.7 153.2 421.9 248.42 421.72 248.97 129.52 153.75"></polygon>
                            <rect id="Rectangle-path" transform="translate(383.373791, 380.354971) rotate(-2.520000) translate(-383.373791, -380.354971) " x="280.953791" y="379.854971" width="204.84" height="0.58"></rect>
                            <rect id="Rectangle-path" transform="translate(632.695191, 497.115637) rotate(-73.090000) translate(-632.695191, -497.115637) " x="454.470191" y="496.615637" width="356.45" height="0.58"></rect>
                            <rect id="Rectangle-path" transform="translate(709.918869, 586.436954) rotate(-21.190000) translate(-709.918869, -586.436954) " x="540.418869" y="585.936954" width="339" height="0.58"></rect>
                            <rect id="Rectangle-path" transform="translate(749.093002, 745.693904) rotate(-63.510000) translate(-749.093002, -745.693904) " x="748.593002" y="525.423904" width="0.58" height="440.54"></rect>
                            <rect id="Rectangle-path" transform="translate(716.243062, 521.846083) rotate(-47.060000) translate(-716.243062, -521.846083) " x="517.148062" y="521.346083" width="398.19" height="0.58"></rect>
                            <polygon id="Shape" points="935.83 600.91 936.13 601.4 719.73 731.83 719.44 731.33"></polygon>
                            <rect id="Rectangle-path" transform="translate(637.044660, 575.025663) rotate(-27.880000) translate(-637.044660, -575.025663) " x="636.54466" y="398.055663" width="0.58" height="353.94"></rect>
                            <polygon id="Shape" points="431.86 566.83 654.2 607.6 654.1 608.16 431.75 567.39"></polygon>
                            <rect id="Rectangle-path" transform="translate(398.920616, 544.357321) rotate(-55.600000) translate(-398.920616, -544.357321) " x="398.420616" y="504.372321" width="0.58" height="79.97"></rect>
                            <rect id="Rectangle-path" transform="translate(365.690855, 585.238251) rotate(-15.120000) translate(-365.690855, -585.238251) " x="297.115855" y="584.738251" width="137.15" height="0.58"></rect>
                            <rect id="Rectangle-path" transform="translate(297.733498, 564.315575) rotate(-2.740000) translate(-297.733498, -564.315575) " x="297.233498" y="525.640575" width="0.58" height="77.35"></rect>
                            <rect id="Rectangle-path" transform="translate(330.784079, 524.016059) rotate(-3.110000) translate(-330.784079, -524.016059) " x="295.684079" y="523.516059" width="70.2" height="0.58"></rect>
                            <rect id="Rectangle-path" transform="translate(617.751074, 636.945836) rotate(-38.420000) translate(-617.751074, -636.945836) " x="571.106074" y="636.445836" width="93.29" height="0.58"></rect>
                            <rect id="Rectangle-path" transform="translate(795.103417, 604.707138) rotate(-1.360000) translate(-795.103417, -604.707138) " x="654.148417" y="604.207138" width="281.91" height="0.58"></rect>
                            <rect id="Rectangle-path" transform="translate(750.314974, 625.945783) rotate(-73.700000) translate(-750.314974, -625.945783) " x="640.684974" y="625.445783" width="219.26" height="0.58"></rect>
                            <rect id="Rectangle-path" transform="translate(696.284973, 524.217212) rotate(-2.330000) translate(-696.284973, -524.217212) " x="611.559973" y="523.717212" width="169.45" height="0.58"></rect>
                            <rect id="Rectangle-path" transform="translate(703.883558, 334.305824) rotate(-61.520000) translate(-703.883558, -334.305824) " x="703.383558" y="193.390824" width="0.58" height="281.83"></rect>
                            <polygon id="Shape" points="850.54 375.22 850.62 375.79 468.87 431.43 468.78 430.86"></polygon>
                            <rect id="Rectangle-path" transform="translate(723.028500, 455.616684) rotate(-41.820000) translate(-723.028500, -455.616684) " x="722.5285" y="368.581684" width="0.58" height="174.07"></rect>
                            <rect id="Rectangle-path" transform="translate(703.121577, 432.164251) rotate(-89.040000) translate(-703.121577, -432.164251) " x="611.451577" y="431.664251" width="183.34" height="0.58"></rect>
                            <polygon id="Shape" points="1451.96 179.78 1477.3 371.46 1476.6 371.55 1451.26 179.87"></polygon>
                            <rect id="Rectangle-path" transform="translate(1337.800326, 308.797619) rotate(-65.800000) translate(-1337.800326, -308.797619) " x="1337.30033" y="156.187619" width="0.71" height="305.22"></rect>
                            <rect id="Rectangle-path" transform="translate(1289.079476, 310.818961) rotate(-54.490000) translate(-1289.079476, -310.818961) " x="1288.57948" y="199.753961" width="0.71" height="222.13"></rect>
                            <rect id="Rectangle-path" transform="translate(1350.477968, 427.016588) rotate(-60.650000) translate(-1350.477968, -427.016588) " x="1291.29797" y="426.516588" width="118.36" height="0.71"></rect>
                            <rect id="Rectangle-path" transform="translate(1417.743700, 425.718200) rotate(-33.215251) translate(-1417.743700, -425.718200) " x="1417.24168" y="365.174478" width="0.712869701" height="121.087445"></rect>
                            <polygon id="Shape" points="1255.8 470.96 1278.44 495.42 1277.92 495.9 1255.28 471.44"></polygon>
                            <rect id="Rectangle-path" transform="translate(1283.306150, 464.580914) rotate(-13.800000) translate(-1283.306150, -464.580914) " x="1254.73615" y="464.080914" width="57.14" height="0.71"></rect>
                            <rect id="Rectangle-path" transform="translate(1378.236568, 466.751765) rotate(-82.090000) translate(-1378.236568, -466.751765) " x="1377.73657" y="398.876765" width="0.71" height="135.75"></rect>
                            <polygon id="Shape" points="1276.27 170.55 1295.97 260.58 1295.28 260.73 1275.58 170.7"></polygon>
                            <rect id="Rectangle-path" transform="translate(1305.248585, 191.272491) rotate(-54.590000) translate(-1305.248585, -191.272491) " x="1304.74858" y="155.342491" width="0.71" height="71.86"></rect>
                            <rect id="Rectangle-path" transform="translate(1315.161478, 236.517656) rotate(-51.270000) translate(-1315.161478, -236.517656) " x="1284.13148" y="236.017656" width="62.06" height="0.71"></rect>
                            <rect id="Rectangle-path" transform="translate(1246.852964, 252.954202) rotate(-81.240000) translate(-1246.852964, -252.954202) " x="1246.35296" y="203.644202" width="0.71" height="98.62"></rect>
                            <rect id="Rectangle-path" transform="translate(1168.035574, 424.808252) rotate(-23.960000) translate(-1168.035574, -424.808252) " x="1057.34557" y="424.308252" width="221.38" height="0.71"></rect>
                            <rect id="Rectangle-path" transform="translate(839.071903, 512.064425) rotate(-66.430000) translate(-839.071903, -512.064425) " x="838.571903" y="480.594425" width="0.58" height="62.94"></rect>
                            <rect id="Rectangle-path" transform="translate(795.186120, 509.805047) rotate(-33.530000) translate(-795.186120, -509.805047) " x="777.10112" y="509.305047" width="36.17" height="0.58"></rect>
                            <rect id="Rectangle-path" transform="translate(811.397204, 551.859584) rotate(-1.110000) translate(-811.397204, -551.859584) " x="810.897204" y="499.629584" width="0.58" height="104.46"></rect>
                            <polygon id="Shape" points="703.89 386.27 810.35 499.47 809.93 499.87 703.47 386.67"></polygon>
                            <rect id="Rectangle-path" transform="translate(975.909977, 641.245981) rotate(-44.730000) translate(-975.909977, -641.245981) " x="975.409977" y="584.645981" width="0.71" height="113.2"></rect>
                            <rect id="Rectangle-path" transform="translate(1001.507307, 535.493046) rotate(-45.110000) translate(-1001.507307, -535.493046) " x="908.762307" y="534.993046" width="185.49" height="0.71"></rect>
                            <rect id="Rectangle-path" transform="translate(902.028146, 562.834843) rotate(-41.770000) translate(-902.028146, -562.834843) " x="901.528146" y="511.674843" width="0.71" height="102.32"></rect>
                            <rect id="Rectangle-path" transform="translate(1041.416750, 575.732116) rotate(-76.440000) translate(-1041.416750, -575.732116) " x="932.41675" y="575.232116" width="218" height="0.71"></rect>
                            <rect id="Rectangle-path" transform="translate(963.742609, 687.628689) rotate(-52.530000) translate(-963.742609, -687.628689) " x="963.242609" y="548.498689" width="0.71" height="278.26"></rect>
                            <rect id="Rectangle-path" transform="translate(1044.977781, 726.923024) rotate(-32.750000) translate(-1044.977781, -726.923024) " x="1044.47778" y="672.923024" width="0.71" height="108"></rect>
                            <rect id="Rectangle-path" transform="translate(847.872252, 463.226598) rotate(-18.080000) translate(-847.872252, -463.226598) " x="847.372252" y="398.476598" width="0.71" height="129.5"></rect>
                            <rect id="Rectangle-path" transform="translate(947.286950, 435.589739) rotate(-74.140000) translate(-947.286950, -435.589739) " x="946.78695" y="311.269739" width="0.71" height="248.64"></rect>
                            <rect id="Rectangle-path" transform="translate(967.332187, 497.453680) rotate(-15.490000) translate(-967.332187, -497.453680) " x="864.087187" y="496.95368" width="206.49" height="0.71"></rect>
                            <rect id="Rectangle-path" transform="translate(1131.390919, 498.422181) rotate(-65.900000) translate(-1131.390919, -498.422181) " x="1130.89092" y="427.762181" width="0.71" height="141.32"></rect>
                            <rect id="Rectangle-path" transform="translate(1105.830580, 604.671133) rotate(-40.530000) translate(-1105.830580, -604.671133) " x="987.25558" y="604.171133" width="237.15" height="0.71"></rect>
                            <rect id="Rectangle-path" transform="translate(1241.465091, 755.285379) rotate(-52.770000) translate(-1241.465091, -755.285379) " x="1240.96509" y="701.245379" width="0.71" height="108.08"></rect>
                            <rect id="Rectangle-path" transform="translate(1136.271752, 747.731842) rotate(-21.750000) translate(-1136.271752, -747.731842) " x="1069.35675" y="747.231842" width="133.83" height="0.71"></rect>
                            <rect id="Rectangle-path" transform="translate(1132.693781, 596.215425) rotate(-27.460000) translate(-1132.693781, -596.215425) " x="1132.19378" y="453.605425" width="0.71" height="285.22"></rect>
                            <rect id="Rectangle-path" transform="translate(1065.960239, 564.383179) rotate(-15.840000) translate(-1065.960239, -564.383179) " x="930.905239" y="563.883179" width="270.11" height="0.71"></rect>
                            <rect id="Rectangle-path" transform="translate(888.150468, 727.801190) rotate(-19.800000) translate(-888.150468, -727.801190) " x="752.605468" y="727.30119" width="271.09" height="0.71"></rect>
                            <rect id="Rectangle-path" transform="translate(925.510675, 736.690124) rotate(-85.580000) translate(-925.510675, -736.690124) " x="789.645675" y="736.190124" width="271.73" height="0.71"></rect>
                            <rect id="Rectangle-path" transform="translate(940.200356, 755.438805) rotate(-44.270000) translate(-940.200356, -755.438805) " x="834.650356" y="754.938805" width="211.1" height="0.71"></rect>
                            <rect id="Rectangle-path" transform="translate(940.576445, 735.357229) rotate(-33.390000) translate(-940.576445, -735.357229) " x="940.076445" y="576.872229" width="0.71" height="316.97"></rect>
                            <rect id="Rectangle-path" transform="translate(619.375414, 372.716136) rotate(-35.230000) translate(-619.375414, -372.716136) " x="539.545414" y="372.216136" width="159.66" height="0.71"></rect>
                            <rect id="Rectangle-path" transform="translate(684.288439, 388.824293) rotate(-6.500000) translate(-684.288439, -388.824293) " x="664.738439" y="388.324293" width="39.1" height="0.71"></rect>
                            <polygon id="Shape" points="554.3 418.43 701.61 523.54 701.2 524.11 553.88 419.01"></polygon>
                            <rect id="Rectangle-path" transform="translate(518.689555, 490.205843) rotate(-63.500000) translate(-518.689555, -490.205843) " x="438.874555" y="489.705843" width="159.63" height="0.71"></rect>
                            <polygon id="Shape" points="474.72 375.75 554.26 418.41 553.92 419.03 474.39 376.38"></polygon>
                            <rect id="Rectangle-path" transform="translate(859.848062, 450.409474) rotate(-6.190000) translate(-859.848062, -450.409474) " x="859.348062" y="375.499474" width="0.71" height="149.82"></rect>
                            <rect id="Rectangle-path" transform="translate(893.951489, 488.491437) rotate(-20.520000) translate(-893.951489, -488.491437) " x="893.451489" y="368.231437" width="0.71" height="240.52"></rect>
                            <polygon id="Shape" points="579.73 267.04 580.13 267.62 469.01 344.57 468.61 343.98"></polygon>
                            <rect id="Rectangle-path" transform="translate(502.614383, 258.018349) rotate(-83.330000) translate(-502.614383, -258.018349) " x="502.114383" y="176.698349" width="0.71" height="162.64"></rect>
                            <rect id="Rectangle-path" transform="translate(533.562036, 320.937144) rotate(-49.020000) translate(-533.562036, -320.937144) " x="462.702036" y="320.437144" width="141.72" height="0.71"></rect>
                            <rect id="Rectangle-path" transform="translate(567.167051, 343.080843) rotate(-80.330000) translate(-567.167051, -343.080843) " x="490.377051" y="342.580843" width="153.58" height="0.71"></rect>
                            <rect id="Rectangle-path" transform="translate(351.554151, 316.809157) rotate(-44.000000) translate(-351.554151, -316.809157) " x="253.694151" y="316.309157" width="195.72" height="0.71"></rect>
                            <polygon id="Shape" points="468.55 344.03 469.06 344.52 255.63 568.24 255.11 567.75"></polygon>
                            <rect id="Rectangle-path" transform="translate(234.927437, 259.574467) rotate(-70.120000) translate(-234.927437, -259.574467) " x="234.427437" y="10.829467" width="0.71" height="497.49"></rect>
                            <rect id="Rectangle-path" transform="translate(265.991307, 336.582323) rotate(-29.390000) translate(-265.991307, -336.582323) " x="87.076307" y="336.082323" width="357.83" height="0.71"></rect>
                            <rect id="Rectangle-path" transform="translate(184.851000, 192.837699) rotate(-26.670000) translate(-184.851000, -192.837699) " x="184.351" y="-21.8173013" width="0.71" height="429.31"></rect>
                            <rect id="Rectangle-path" transform="translate(298.241623, 137.626157) rotate(-48.100000) translate(-298.241623, -137.626157) " x="297.741623" y="-28.5238429" width="0.71" height="332.3"></rect>
                            <rect id="Rectangle-path" transform="translate(275.564920, 273.200055) rotate(-75.810000) translate(-275.564920, -273.200055) " x="206.75492" y="272.700055" width="137.62" height="0.71"></rect>
                            <rect id="Rectangle-path" transform="translate(393.961276, 385.330534) rotate(-78.380000) translate(-393.961276, -385.330534) " x="254.506276" y="384.830534" width="278.91" height="0.71"></rect>
                            <rect id="Rectangle-path" transform="translate(343.016267, 180.898638) rotate(-26.840000) translate(-343.016267, -180.898638) " x="286.151267" y="180.398638" width="113.73" height="0.71"></rect>
                            <rect id="Rectangle-path" transform="translate(580.368289, 600.501612) rotate(-33.320000) translate(-580.368289, -600.501612) " x="579.868289" y="397.696612" width="0.71" height="405.61"></rect>
                            <rect id="Rectangle-path" transform="translate(365.325303, 450.713903) rotate(-10.630000) translate(-365.325303, -450.713903) " x="260.025303" y="450.213903" width="210.6" height="0.71"></rect>
                            <rect id="Rectangle-path" transform="translate(960.138966, 536.559375) rotate(-31.950000) translate(-960.138966, -536.559375) " x="834.213966" y="536.059375" width="251.85" height="0.58"></rect>
                        </g>
                    </g>
                </g>
            </g>
        </g>
    </g>
</svg>