<svg height="1165" viewBox="0 0 1700 1165" width="1700" xmlns="http://www.w3.org/2000/svg"><g fill="#fff" opacity=".6" transform=""><path d="m904.002344 632.411651h1001.19591v.711489h-1001.19591z" transform="matrix(.58876489 -.80830434 .80830434 .58876489 66.034877 1395.62044)"/><path d="m566.884953 653.698819h1132.32v.71h-1132.32z" transform="matrix(.44400975 -.89602196 .89602196 .44400975 43.785446 1378.961322)"/><path d="m1310.73258 445.108889h.71v605.89h-.71z" transform="matrix(.2198462 -.97553454 .97553454 .2198462 293.210664 1862.749757)"/><path d="m907.747764 818.852706h544.72v.71h-544.72z" transform="matrix(.18738131 -.98228725 .98228725 .18738131 154.137903 1825.02613)"/><path d="m1148.42202 418.733593h.71v183.54h-.71z" transform="matrix(.44713474 -.89446661 .89446661 .44713474 178.570651 1309.912091)"/><path d="m989.056312 319.756792h364.9v.71h-364.9z" transform="matrix(.57300442 -.81955228 .81955228 .57300442 237.760833 1096.858899)"/><path d="m1002.92076 615.912906h252.694073v.713541h-252.694073z" transform="matrix(.85573198 -.51741935 .51741935 .85573198 -156.028023 673.234037)"/><path d="m1295.28 260.58.69.15-64.65 291.1-.69-.16z"/><path d="m1179.85947 441.773189h471.16v.71h-471.16z" transform="matrix(.93200787 -.36243804 .36243804 .93200787 -64.057881 543.080202)"/><path d="m1437.3701 377.46679h.71v540.74h-.71z" transform="matrix(.44604161 -.89501222 .89501222 .44604161 216.69836 1645.785945)"/><path d="m1128.08954 330.057845h578.6v.71h-578.6z" transform="matrix(.64465749 -.76447153 .76447153 .64465749 250.956696 1201.015206)"/><path d="m1382.81442 561.742076h264.17v.71h-264.17z" transform="matrix(.85635722 -.51638387 .51638387 .85635722 -72.728383 863.031645)"/><path d="m1198.87 246.22 203.14 384.03-.63.33-203.14-384.03z"/><path d="m1193.55183 346.582869h.71v254.72h-.71z" transform="matrix(.0348995 -.99939083 .99939083 .0348995 678.72587 1650.726951)"/><path d="m1321.16 478.3.44.55-89.77 71.09-.44-.55z"/><path d="m1321.32851 475.066263h266.62v.71h-266.62z" transform="matrix(.99972653 -.02338528 .02338528 .99972653 -10.723446 34.147183)"/><path d="m1304.69705 500.159711h269.13v.71h-269.13z" transform="matrix(.28100173 -.95970726 .95970726 .28100173 554.340166 1741.243707)"/><path d="m1269.02509 371.936248h371.96v.71h-371.96z" transform="matrix(.99920138 -.0399574 .0399574 .99920138 -13.719594 58.435653)"/><path d="m1484.70968 10.388129h.71v433.37h-.71z" transform="matrix(.26100999 -.9653361 .9653361 .26100999 878.353226 1601.531293)"/><path d="m1191.58976 189.277088h466.01v.71h-466.01z" transform="matrix(.96982948 -.24378428 .24378428 .96982948 -3.283909 353.019484)"/><path d="m1405.32252 184.924408h.71v213.67h-.71z" transform="matrix(.74524329 -.66679265 .66679265 .74524329 163.59969 1011.719789)"/><path d="m1268.95797 262.427323h225.04v.71h-225.04z" transform="matrix(.01657987 -.99986254 .99986254 .01657987 1095.682068 1639.856104)"/><path d="m342.937381 792.338579h664.79v.58h-664.79z" transform="matrix(.58849103 -.80850375 .80850375 .58849103 -363.107629 872.268948)"/><path d="m39.526619 750.45708h922.49v.58h-922.49z" transform="matrix(.44447884 -.89578935 .89578935 .44447884 -394.510125 865.75843)"/><path d="m514.54886 278.505889h.58v621.72h-.58z" transform="matrix(.65895206 -.75218494 .75218494 .65895206 -267.655793 588.414015)"/><path d="m123.353227 546.880271h443.78v.58h-443.78z" transform="matrix(.63257016 -.77450306 .77450306 .63257016 -297.095032 468.51578)"/><path d="m453.477623 240.981933h.58v142.06h-.58z" transform="matrix(.89305749 -.44994258 .44994258 .89305749 -91.837946 237.631203)"/><path d="m129.7 153.2 292.2 95.22-.18.55-292.2-95.22z"/><path d="m280.953791 379.854971h204.84v.58h-204.84z" transform="matrix(.99903293 -.04396812 .04396812 .99903293 -16.352745 17.224052)"/><path d="m454.470191 496.615637h356.45v.58h-356.45z" transform="matrix(.29086918 -.95676283 .95676283 .29086918 -26.958108 957.85926)"/><path d="m540.418869 585.936954h339v.58h-339z" transform="matrix(.9323869 -.36146184 .36146184 .9323869 -163.974769 296.259402)"/><path d="m748.593002 525.423904h.58v440.54h-.58z" transform="matrix(.44604161 -.89501222 .89501222 .44604161 -252.438807 1083.530788)"/><path d="m517.148062 521.346083h398.19v.58h-398.19z" transform="matrix(.68123211 -.73206749 .73206749 .68123211 -153.711264 690.686031)"/><path d="m935.83 600.91.3.49-216.4 130.43-.29-.5z"/><path d="m636.54466 398.055663h.58v353.94h-.58z" transform="matrix(.88392891 -.46762129 .46762129 .88392891 -194.951779 364.639501)"/><path d="m431.86 566.83 222.34 40.77-.1.56-222.35-40.77z"/><path d="m398.420616 504.372321h.58v79.97h-.58z" transform="matrix(.564967 -.8251135 .8251135 .564967 -275.612942 565.968182)"/><path d="m297.115855 584.738251h137.15v.58h-137.15z" transform="matrix(.96538164 -.26084151 .26084151 .96538164 -139.994809 115.647343)"/><path d="m297.233498 525.640575h.58v77.35h-.58z" transform="matrix(.99885675 -.0478038 .0478038 .99885675 -26.636041 14.877948)"/><path d="m295.684079 523.516059h70.2v.58h-70.2z" transform="matrix(.99852722 -.05425309 .05425309 .99852722 -27.942317 18.71782)"/><path d="m571.106074 636.445836h93.29v.58h-93.29z" transform="matrix(.78347659 -.6214213 .6214213 .78347659 -262.054141 521.797363)"/><path d="m654.148417 604.207138h281.91v.58h-281.91z" transform="matrix(.9997183 -.02373425 .02373425 .9997183 -14.128292 19.041527)"/><path d="m640.684974 625.445783h219.26v.58h-219.26z" transform="matrix(.28066671 -.95980529 .95980529 .28066671 -61.059535 1170.419923)"/><path d="m611.559973 523.717212h169.45v.58h-169.45z" transform="matrix(.99917325 -.04065496 .04065496 .99917325 -20.736375 28.74084)"/><path d="m703.383558 193.390824h.58v281.83h-.58z" transform="matrix(.47685197 -.87898362 .87898362 .47685197 74.385956 793.593552)"/><path d="m850.54 375.22.08.57-381.75 55.64-.09-.57z"/><path d="m722.5285 368.581684h.58v174.07h-.58z" transform="matrix(.74524329 -.66679265 .66679265 .74524329 -119.605495 598.181497)"/><path d="m611.451577 431.664251h183.34v.58h-183.34z" transform="matrix(.01675438 -.99985964 .99985964 .01675438 259.237623 1127.946492)"/><path d="m1451.96 179.78 25.34 191.68-.7.09-25.34-191.68z"/><path d="m1337.30033 156.187619h.71v305.22h-.71z" transform="matrix(.40992303 -.91212012 .91212012 .40992303 507.744638 1402.448951)"/><path d="m1288.57948 199.753961h.71v222.13h-.71z" transform="matrix(.58084504 -.81401415 .81401415 .58084504 287.313027 1179.610249)"/><path d="m1291.29797 426.516588h118.36v.71h-118.36z" transform="matrix(.49014329 -.87164187 .87164187 .49014329 316.344716 1394.850419)"/><path d="m1417.24168 365.174478h.71287v121.087445h-.71287z" transform="matrix(.83661853 -.54778593 .54778593 .83661853 -1.569397 846.174521)"/><path d="m1255.8 470.96 22.64 24.46-.52.48-22.64-24.46z"/><path d="m1254.73615 464.080914h57.14v.71h-57.14z" transform="matrix(.97113428 -.23853346 .23853346 .97113428 -73.774536 319.521916)"/><path d="m1377.73657 398.876765h.71v135.75h-.71z" transform="matrix(.13761742 -.99048546 .99048546 .13761742 726.25637 1767.641872)"/><path d="m1276.27 170.55 19.7 90.03-.69.15-19.7-90.03z"/><path d="m1304.74858 155.342491h.71v71.86h-.71z" transform="matrix(.57942343 -.81502668 .81502668 .57942343 393.064789 1144.257149)"/><path d="m1284.13148 236.017656h62.06v.71h-62.06z" transform="matrix(.6256512 -.78010292 .78010292 .6256512 307.821002 1114.501415)"/><path d="m1246.35296 203.644202h.71v98.62h-.71z" transform="matrix(.15229589 -.98833494 .98833494 .15229589 806.95891 1446.738673)"/><path d="m1057.34557 424.308252h221.38v.71h-221.38z" transform="matrix(.91382919 -.40609877 .40609877 .91382919 -71.863538 510.94388)"/><path d="m838.571903 480.594425h.58v62.94h-.58z" transform="matrix(.39986917 -.91657223 .91657223 .39986917 34.208887 1076.37565)"/><path d="m777.10112 509.305047h36.17v.58h-36.17z" transform="matrix(.83359671 -.55237353 .55237353 .83359671 -149.281231 524.073)"/><path d="m810.897204 499.629584h.58v104.46h-.58z" transform="matrix(.99981235 -.01937194 .01937194 .99981235 -10.538331 15.821899)"/><path d="m703.89 386.27 106.46 113.2-.42.4-106.46-113.2z"/><path d="m975.409977 584.645981h.71v113.2h-.71z" transform="matrix(.71043108 -.70376678 .70376678 .71043108 -168.694421 872.497928)"/><path d="m908.762307 534.993046h185.49v.71h-185.49z" transform="matrix(.70574793 -.70846302 .70846302 .70574793 -84.681426 867.100833)"/><path d="m901.528146 511.674843h.71v102.32h-.71z" transform="matrix(.74582489 -.66614205 .66614205 .74582489 -145.654855 743.937483)"/><path d="m932.41675 575.232116h218v.71h-218z" transform="matrix(.2344635 -.97212492 .97212492 .2344635 237.558995 1453.131128)"/><path d="m963.242609 548.498689h.71v278.26h-.71z" transform="matrix(.60834595 -.79367198 .79367198 .60834595 -168.297923 1034.208066)"/><path d="m1044.47778 672.923024h.71v108h-.71z" transform="matrix(.84103901 -.54097447 .54097447 .84103901 -227.136099 680.858704)"/><path d="m847.372252 398.476598h.71v129.5h-.71z" transform="matrix(.95062412 -.31034462 .31034462 .95062412 -101.895443 286.004811)"/><path d="m946.78695 311.269739h.71v248.64h-.71z" transform="matrix(.27328773 -.96193233 .96193233 .27328773 269.397195 1227.774356)"/><path d="m864.087187 496.95368h206.49v.71h-206.49z" transform="matrix(.96367708 -.26707019 .26707019 .96367708 -97.718718 276.414558)"/><path d="m1130.89092 427.762181h.71v141.32h-.71z" transform="matrix(.40833046 -.91283418 .91283418 .40833046 214.432743 1327.673521)"/><path d="m987.25558 604.171133h237.15v.71h-237.15z" transform="matrix(.76006581 -.64984611 .64984611 .76006581 -127.616619 863.700975)"/><path d="m1240.96509 701.245379h.71v108.08h-.71z" transform="matrix(.60501609 -.79621324 .79621324 .60501609 -111.009489 1286.796513)"/><path d="m1069.35675 747.231842h133.83v.71h-133.83z" transform="matrix(.92880955 -.37055744 .37055744 .92880955 -196.185901 474.285313)"/><path d="m1132.19378 453.605425h.71v285.22h-.71z" transform="matrix(.88733298 -.46112925 .46112925 .88733298 -147.315137 589.49205)"/><path d="m930.905239 563.883179h270.11v.71h-270.11z" transform="matrix(.96202767 -.27295194 .27295194 .96202767 -113.572489 312.386854)"/><path d="m752.605468 727.30119h271.09v.71h-271.09z" transform="matrix(.94088077 -.33873792 .33873792 .94088077 -194.027089 343.877289)"/><path d="m789.645675 736.190124h271.73v.71h-271.73z" transform="matrix(.07706706 -.99702591 .99702591 .07706706 119.685145 1602.673706)"/><path d="m834.650356 754.938805h211.1v.71h-211.1z" transform="matrix(.71605832 -.69804045 .69804045 .71605832 -260.364782 870.798443)"/><path d="m940.076445 576.872229h.71v316.97h-.71z" transform="matrix(.83494393 -.55033502 .55033502 .83494393 -249.444984 639.007336)"/><path d="m539.545414 372.216136h159.66v.71h-159.66z" transform="matrix(.81684297 -.57686009 .57686009 .81684297 -101.562102 425.558541)"/><path d="m664.738439 388.324293h39.1v.71h-39.1z" transform="matrix(.99357186 -.11320321 .11320321 .99357186 -39.617455 79.963069)"/><path d="m554.3 418.43 147.31 105.11-.41.57-147.32-105.1z"/><path d="m438.874555 489.705843h159.63v.71h-159.63z" transform="matrix(.44619781 -.89493436 .89493436 .44619781 -151.450643 735.670174)"/><path d="m474.72 375.75 79.54 42.66-.34.62-79.53-42.65z"/><path d="m859.348062 375.499474h.71v149.82h-.71z" transform="matrix(.9941698 -.10782584 .10782584 .9941698 -43.552693 95.339819)"/><path d="m893.451489 368.231437h.71v240.52h-.71z" transform="matrix(.93654989 -.35053432 .35053432 .93654989 -114.511691 344.355514)"/><path d="m579.73 267.04.4.58-111.12 76.95-.4-.59z"/><path d="m502.114383 176.698349h.71v162.64h-.71z" transform="matrix(.1161507 -.9932316 .9932316 .1161507 187.963393 727.261826)"/><path d="m462.702036 320.437144h141.72v.71h-141.72z" transform="matrix(.65579555 -.75493854 .75493854 .65579555 -58.63339 513.27454)"/><path d="m490.377051 342.580843h153.58v.71h-153.58z" transform="matrix(.16797324 -.98579155 .98579155 .16797324 133.691964 844.56093)"/><path d="m253.694151 316.309157h195.72v.71h-195.72z" transform="matrix(.7193398 -.69465837 .69465837 .7193398 -121.406875 333.125755)"/><path d="m468.55 344.03.51.49-213.43 223.72-.52-.49z"/><path d="m234.427437 10.829467h.71v497.49h-.71z" transform="matrix(.34005131 -.94040688 .94040688 .34005131 -89.065561 392.233209)"/><path d="m87.076307 336.082323h357.83v.71h-357.83z" transform="matrix(.87129948 -.49075169 .49075169 .87129948 -130.945124 173.854005)"/><path d="m184.351-21.817301h.71v429.31h-.71z" transform="matrix(.89360653 -.44885117 .44885117 .89360653 -66.888487 103.48726)"/><path d="m297.741623-28.523843h.71v332.3h-.71z" transform="matrix(.66783256 -.74431155 .74431155 .66783256 -3.37058 267.699612)"/><path d="m206.75492 272.700055h137.62v.71h-137.62z" transform="matrix(.24513818 -.96948815 .96948815 .24513818 -56.850779 473.385215)"/><path d="m254.506276 384.830534h278.91v.71h-278.91z" transform="matrix(.20141985 -.979505 .979505 .20141985 -62.823528 693.604357)"/><path d="m286.151267 180.398638h113.73v.71h-113.73z" transform="matrix(.89227083 -.45150057 .45150057 .89227083 -44.722981 174.360101)"/><path d="m579.868289 397.696612h.71v405.61h-.71z" transform="matrix(.83561567 -.54931454 .54931454 .83561567 -234.46081 417.517796)"/><path d="m260.025303 450.213903h210.6v.71h-210.6z" transform="matrix(.9828389 -.18446599 .18446599 .9828389 -76.872001 75.124841)"/><path d="m834.213966 536.059375h251.85v.58h-251.85z" transform="matrix(.84851021 -.529179 .529179 .84851021 -138.484708 589.368643)"/></g></svg>