<svg viewBox="0 0 1315.55 903" xmlns="http://www.w3.org/2000/svg" xmlns:xlink="http://www.w3.org/1999/xlink"><radialGradient id="a" cx="721.37" cy="521.58" gradientTransform="matrix(-.26 0 0 -1.97 1101.15 1699.27)" gradientUnits="userSpaceOnUse" r="64.05"><stop offset="0" stop-color="#cfcecf"/><stop offset=".03" stop-color="#c4c3c4"/><stop offset=".23" stop-color="#898889"/><stop offset=".41" stop-color="#585758"/><stop offset=".59" stop-color="#323232"/><stop offset=".75" stop-color="#161616"/><stop offset=".89" stop-color="#060606"/><stop offset="1"/></radialGradient><radialGradient id="b" cx="159.09" cy="680.66" gradientTransform="matrix(-.26 0 0 -4.53 1083.52 3668.78)" gradientUnits="userSpaceOnUse" r="64.05"><stop offset="0" stop-color="#4d4a4d"/><stop offset="1"/></radialGradient><radialGradient id="c" cx="-19509.32" cy="819.74" gradientTransform="matrix(0 -.03 1.97 0 -378.12 -24.86)" r="101.34" xlink:href="#a"/><radialGradient id="d" cx="3969.39" cy="574.87" gradientTransform="matrix(0 .08 10.18 0 -5028.57 418.62)" r="52.19" xlink:href="#a"/><radialGradient id="e" cx="-5674.88" cy="847.56" gradientTransform="matrix(0 -.37 -12.42 0 11288.52 -1559.31)" r="36.12" xlink:href="#a"/><radialGradient id="f" cx="-5419.88" cy="803.53" gradientTransform="matrix(.37 0 0 -12.42 2768.5 10591.95)" r="36.12" xlink:href="#a"/><radialGradient id="g" cx="-5117.53" cy="794.8" gradientTransform="matrix(.37 0 0 -12.42 2618.77 10624.52)" r="36.12" xlink:href="#a"/><radialGradient id="h" cx="-3650.26" cy="805.23" gradientTransform="matrix(0 .36 13.93 0 -10152.48 1977.74)" r="36.12" xlink:href="#a"/><radialGradient id="i" cx="-3904.02" cy="768.78" gradientTransform="matrix(0 .13 -4.53 0 3988.79 1422.07)" gradientUnits="userSpaceOnUse" r="68.91"><stop offset="0" stop-color="#5b585b"/><stop offset=".02" stop-color="#575557"/><stop offset=".31" stop-color="#323032"/><stop offset=".58" stop-color="#161616"/><stop offset=".82" stop-color="#060606"/><stop offset="1"/></radialGradient><radialGradient id="j" cx="-3344.51" cy="710.5" gradientTransform="matrix(-.05 0 0 -7.05 949.88 5805.52)" r="64.02" xlink:href="#a"/><radialGradient id="k" cx="11068.24" cy="475.03" gradientTransform="matrix(-.03 0 0 -1.97 991.24 1799.84)" r="252.16" xlink:href="#a"/><radialGradient id="l" cx="638.38" cy="595.72" gradientTransform="matrix(0 -.26 4.53 0 -2231.28 823.5)" gradientUnits="userSpaceOnUse" r="52.18"><stop offset="0" stop-color="#4d4a4d"/><stop offset=".24" stop-color="#323032"/><stop offset=".54" stop-color="#161616"/><stop offset=".8" stop-color="#060606"/><stop offset="1"/></radialGradient><radialGradient id="m" cx="-1377.96" cy="701.3" gradientTransform="matrix(0 -.26 4.53 0 -2022.87 157.3)" r="64.05" xlink:href="#l"/><radialGradient id="n" cx="8495.65" cy="757.9" gradientTransform="matrix(-.05 0 0 -7.05 938.44 6197.08)" r="52.19" xlink:href="#a"/><radialGradient id="o" cx="-21793.75" cy="516.49" gradientTransform="matrix(0 -.03 1.97 0 -553.16 180.15)" r="138.61" xlink:href="#a"/><radialGradient id="p" cx="-11771.01" cy="816.28" gradientTransform="matrix(.03 0 0 1.97 1176.15 -689.01)" r="138.6" xlink:href="#a"/><radialGradient id="q" cx="2177.67" cy="778.59" gradientTransform="matrix(-.26 0 0 -4.53 933.12 4248.23)" r="99.53" xlink:href="#a"/><radialGradient id="r" cx="433.72" cy="722.95" gradientTransform="matrix(-5.26 0 0 -2.64 2644.52 2630.88)" gradientUnits="userSpaceOnUse" r="59.82"><stop offset="0" stop-color="#959595"/><stop offset=".05" stop-color="#888"/><stop offset=".28" stop-color="#585858"/><stop offset=".5" stop-color="#323232"/><stop offset=".69" stop-color="#161616"/><stop offset=".87" stop-color="#060606"/><stop offset="1"/></radialGradient><radialGradient id="s" cx="567.62" cy="717.08" gradientTransform="matrix(-3.32 0 0 -2.09 1924.69 2082.01)" gradientUnits="userSpaceOnUse" r="122.18"><stop offset="0" stop-color="#454545"/><stop offset=".19" stop-color="#323232"/><stop offset=".5" stop-color="#161616"/><stop offset=".79" stop-color="#060606"/><stop offset="1"/></radialGradient><radialGradient id="t" cx="232.33" cy="558.58" gradientTransform="matrix(-3.32 0 0 -2.09 1971.85 1802.27)" r="183.25" xlink:href="#s"/><radialGradient id="u" cx="318.08" cy="609.95" gradientTransform="matrix(-5.26 0 0 -2.64 2699.77 2195.64)" gradientUnits="userSpaceOnUse" r="94.64"><stop offset="0" stop-color="#fff"/><stop offset=".37" stop-color="#a1a1a1"/><stop offset="1"/></radialGradient><radialGradient id="v" cx="363.99" cy="732.02" gradientTransform="matrix(-5.26 0 0 -2.64 2552.92 2411.19)" r="118.81" xlink:href="#u"/><radialGradient id="w" cx="241.49" cy="583.29" gradientTransform="matrix(-3.32 0 0 -3.25 1989.29 2606)" gradientUnits="userSpaceOnUse" r="9.3"><stop offset=".19" stop-color="#ababab"/><stop offset=".3" stop-color="#888"/><stop offset=".47" stop-color="#585858"/><stop offset=".63" stop-color="#323232"/><stop offset=".77" stop-color="#161616"/><stop offset=".9" stop-color="#060606"/><stop offset="1"/></radialGradient><radialGradient id="x" cx="-3460.85" cy="749.05" gradientTransform="matrix(0 -.13 4.53 0 -2150.88 256.14)" r="64.05" xlink:href="#a"/><radialGradient id="y" cx="295.01" cy="561.39" gradientTransform="matrix(-3.32 0 0 -3.25 2011.84 2646.95)" r="3.22" xlink:href="#w"/><radialGradient id="z" cx="308.42" cy="559.06" gradientTransform="matrix(-3.32 0 0 -3.25 2015.02 2657.52)" r="2.26" xlink:href="#w"/><radialGradient id="A" cx="406.1" cy="683.92" gradientTransform="matrix(-3.32 0 0 -3.25 1926.24 2748.24)" gradientUnits="userSpaceOnUse" r="4.66"><stop offset=".19" stop-color="#545454"/><stop offset=".42" stop-color="#323232"/><stop offset=".65" stop-color="#161616"/><stop offset=".85" stop-color="#060606"/><stop offset="1"/></radialGradient><radialGradient id="B" cx="427" cy="649.91" gradientTransform="matrix(-3.32 0 0 -3.25 1955.13 2761.76)" r="4.66" xlink:href="#A"/><radialGradient id="C" cx="349.82" cy="639.73" gradientTransform="matrix(-3.32 0 0 -3.25 1955.52 2698.66)" r="4.66" xlink:href="#A"/><radialGradient id="D" cx="380.23" cy="580.34" gradientTransform="matrix(-3.32 0 0 -3.25 2005.35 2717.38)" r="4.66" xlink:href="#A"/><radialGradient id="E" cx="460.53" cy="650.81" gradientTransform="matrix(-3.32 0 0 -3.25 1957.75 2788.83)" r="4.66" xlink:href="#A"/><radialGradient id="F" cx="470.42" cy="587.65" gradientTransform="matrix(-3.32 0 0 -3.25 2008.51 2790.67)" r="10.1" xlink:href="#A"/><radialGradient id="G" cx="376.91" cy="660.89" gradientTransform="matrix(-3.32 0 0 -3.25 1941.51 2722.52)" r="6.76" xlink:href="#A"/><radialGradient id="H" cx="331.04" cy="679.18" gradientTransform="matrix(-3.32 0 0 -3.25 1922.55 2687.37)" gradientUnits="userSpaceOnUse" r="9.74"><stop offset=".19" stop-color="#2e2e2e"/><stop offset=".48" stop-color="#161616"/><stop offset=".78" stop-color="#060606"/><stop offset="1"/></radialGradient><radialGradient id="I" cx="787.92" cy="687.96" gradientTransform="matrix(0 .13 -4.53 0 4319.21 731.32)" r="84.58" xlink:href="#i"/><radialGradient id="J" cx="436.27" cy="674.09" gradientTransform="matrix(-3.32 0 0 -3.25 1936.98 2771.57)" r="2.67" xlink:href="#A"/><radialGradient id="K" cx="425.21" cy="712.44" gradientTransform="matrix(-3.32 0 0 -3.25 1905.66 2766.39)" r="2.67" xlink:href="#A"/><radialGradient id="L" cx="308" cy="689.85" gradientTransform="matrix(-3.32 0 0 -3.25 1911.86 2669.86)" r="7.14" xlink:href="#w"/><radialGradient id="M" cx="295.69" cy="589.15" gradientTransform="matrix(-3.32 0 0 -3.25 1990.03 2650.19)" r="5.14" xlink:href="#w"/><radialGradient id="N" cx="218.3" cy="581.97" gradientTransform="matrix(-3.32 0 0 -3.25 1988.03 2587.21)" r="6.78" xlink:href="#w"/><radialGradient id="O" cx="259.47" cy="526.99" gradientTransform="matrix(-3.32 0 0 -3.25 2035.45 2615.01)" r="3.31" xlink:href="#w"/><radialGradient id="P" cx="359.01" cy="288.3" gradientTransform="matrix(-1 0 0 -1 1315.06 980.22)" gradientUnits="userSpaceOnUse" r="32.71"><stop offset="0" stop-color="#fff"/><stop offset=".15" stop-color="#c4c4c4"/><stop offset=".32" stop-color="#898989"/><stop offset=".49" stop-color="#585858"/><stop offset=".64" stop-color="#323232"/><stop offset=".78" stop-color="#161616"/><stop offset=".91" stop-color="#060606"/><stop offset="1"/></radialGradient><radialGradient id="Q" cx="-5598.29" cy="748.65" gradientTransform="matrix(.12 0 0 -8.47 1807.25 6769.18)" r="44.34" xlink:href="#a"/><radialGradient id="R" cx="-23375.44" cy="944.73" gradientTransform="matrix(0 -.03 1.97 0 -566.1 -25.67)" r="101.32" xlink:href="#a"/><radialGradient id="S" cx="-18795.69" cy="827.11" gradientTransform="matrix(0 -.03 1.97 0 -594.54 34.77)" r="101.32" xlink:href="#a"/><radialGradient id="T" cx="-3292.69" cy="718.99" gradientTransform="matrix(-.05 0 0 -7.05 856.62 5871.32)" r="64.06" xlink:href="#a"/><radialGradient id="U" cx="453.66" cy="604.55" gradientTransform="matrix(-3.32 0 0 -3.25 1993.54 2778.82)" r="7.58" xlink:href="#w"/><radialGradient id="V" cx="498.62" cy="601.11" gradientTransform="matrix(0 -3.32 3.25 0 -1773.32 2291.76)" r="1.84" xlink:href="#w"/><radialGradient id="W" cx="573.93" cy="705.07" gradientTransform="matrix(0 -3.32 3.25 0 -2268.97 2151.82)" r="3.8" xlink:href="#A"/><radialGradient id="X" cx="554.42" cy="684.07" gradientTransform="matrix(0 -3.32 3.25 0 -2155.02 2169.38)" r="5.51" xlink:href="#A"/><radialGradient id="Y" cx="601.08" cy="689.27" gradientTransform="matrix(0 -3.32 3.25 0 -2317.71 2269.17)" r="105.33" xlink:href="#H"/><radialGradient id="Z" cx="471.37" cy="628.27" gradientTransform="matrix(-3.32 0 0 -3.25 1976.58 2795.37)" r="11.63" xlink:href="#w"/><radialGradient id="aa" cx="496.43" cy="605.66" gradientTransform="matrix(-3.32 0 0 -3.25 1996.88 2813.35)" r="4.19" xlink:href="#w"/><radialGradient id="ab" cx="430.73" cy="603.13" gradientTransform="matrix(-3.32 0 0 -3.25 1992.38 2760.23)" r="5.53" xlink:href="#w"/><radialGradient id="ac" cx="375.79" cy="599.21" gradientTransform="matrix(-3.32 0 0 -3.25 1990.03 2715.63)" r="5.53" xlink:href="#w"/><radialGradient id="ad" cx="458.73" cy="574.98" gradientTransform="matrix(0 -3.32 3.25 0 -1581.4 2274.74)" r="2.7" xlink:href="#w"/><radialGradient id="ae" cx="-3364.02" cy="709.36" gradientTransform="matrix(-.05 0 0 -7.05 1018.95 5748.4)" r="64.06" xlink:href="#a"/><radialGradient id="af" cx="961.47" cy="503.96" gradientTransform="matrix(0 -1 1 0 -289.96 1483.77)" r="26.65" xlink:href="#P"/><radialGradient id="ag" cx="2635.99" cy="742.11" gradientTransform="matrix(-.26 0 0 -1.97 947.53 2254.25)" r="52.18" xlink:href="#a"/><radialGradient id="ah" cx="9599.35" cy="728.41" gradientTransform="matrix(-.05 0 0 -7.05 860.28 6034.96)" r="52.19" xlink:href="#a"/><radialGradient id="ai" cx="9278.9" cy="740.96" gradientTransform="matrix(-.05 0 0 -7.05 922.54 6118)" r="52.16" xlink:href="#a"/><radialGradient id="aj" cx="4896.28" cy="449.57" gradientTransform="matrix(0 -.03 1.97 0 -820.08 694.31)" r="82.54" xlink:href="#a"/><radialGradient id="ak" cx="-17639.69" cy="483.9" gradientTransform="matrix(0 -.03 1.97 0 -583.31 199.63)" r="82.54" xlink:href="#a"/><radialGradient id="al" cx="-19601.41" cy="411.74" gradientTransform="matrix(0 -.03 1.97 0 -492.5 311.62)" r="82.53" xlink:href="#a"/><radialGradient id="am" cx="-32785.89" cy="917.41" gradientTransform="matrix(0 .03 -1.81 0 1848.38 1461.33)" r="82.54" xlink:href="#a"/><radialGradient id="an" cx="-2674.11" cy="579.31" gradientTransform="matrix(0 -.03 1.97 0 -607.07 645.96)" r="82.56" xlink:href="#a"/><radialGradient id="ao" cx="-11221.03" cy="618.91" gradientTransform="matrix(0 -.03 1.97 0 -411 445.22)" r="101.34" xlink:href="#a"/><radialGradient id="ap" cx="-25179.2" cy="735.99" gradientTransform="matrix(0 -.03 1.97 0 -474.1 45.76)" r="260.21" xlink:href="#a"/><radialGradient id="aq" cx="-8457.68" cy="908.24" gradientTransform="matrix(.03 0 0 2.83 1230.76 -1642.84)" r="101.28" xlink:href="#a"/><clipPath id="ar"><path d="m0 0h1315.55v903h-1315.55z" transform="matrix(-1 0 0 -1 1315.55 903)"/></clipPath><mask id="as" height="156.65" maskUnits="userSpaceOnUse" width="200.39" x="816.64" y="594.06"><ellipse cx="916.84" cy="672.39" fill="url(#a)" rx="16.37" ry="126.11" transform="matrix(.61249325 -.79047582 .79047582 .61249325 -176.22 985.31)"/></mask><mask id="at" height="356" maskUnits="userSpaceOnUse" width="458.68" x="813.53" y="410.63"><ellipse cx="1042.87" cy="588.64" fill="url(#b)" rx="16.37" ry="289.84" transform="matrix(.61249325 -.79047582 .79047582 .61249325 -61.17 1052.49)"/></mask><mask id="au" height="500.12" maskUnits="userSpaceOnUse" width="294.98" x="1003.13" y="259.29"><ellipse cx="1150.62" cy="509.35" fill="url(#m)" rx="289.84" ry="16.37" transform="matrix(.50648531 -.86224859 .86224859 .50648531 128.66 1243.49)"/></mask><mask id="av" height="107.55" maskUnits="userSpaceOnUse" width="569.86" x="953.64" y="644.55"><ellipse cx="1238.57" cy="698.33" fill="url(#x)" rx="289.84" ry="8.18" transform="matrix(.98303153 -.18343666 .18343666 .98303153 -107.08 239.03)"/></mask><mask id="aw" height="699.76" maskUnits="userSpaceOnUse" width="311.34" x="1050.44" y="482.12"><ellipse cx="1206.11" cy="832" fill="url(#I)" rx="382.79" ry="10.81" transform="matrix(.40577976 -.91397089 .91397089 .40577976 -43.78 1596.66)"/></mask><mask id="ax" height="876.26" maskUnits="userSpaceOnUse" width="218.99" x="917.53" y="364.15"><ellipse cx="1027.03" cy="802.28" fill="url(#T)" rx="3.31" ry="451.59" transform="matrix(.97016892 -.24242991 .24242991 .97016892 -163.83 272.84)"/></mask><mask id="ay" height="712.89" maskUnits="userSpaceOnUse" width="554.59" x="915.69" y="390.53"><ellipse cx="1192.99" cy="746.98" fill="url(#ae)" rx="3.31" ry="451.59" transform="matrix(.78929846 -.61400972 .61400972 .78929846 -207.29 889.89)"/></mask><mask id="az" height="343.68" maskUnits="userSpaceOnUse" width="202.87" x="705.78" y="630.56"><ellipse cx="807.22" cy="802.4" fill="url(#ao)" rx="199.52" ry="3.23" transform="matrix(.50813977 -.86127462 .86127462 .50813977 -294.07 1089.81)"/></mask><mask id="aA" height="404.24" maskUnits="userSpaceOnUse" width="942.03" x="502.44" y="645.76"><ellipse cx="973.45" cy="847.87" fill="url(#ap)" rx="512.48" ry="8.29" transform="matrix(.91906657 -.39410232 .39410232 .91906657 -255.37 452.27)"/></mask><mask id="aB" height="557.67" maskUnits="userSpaceOnUse" width="132.49" x="945.4" y="646.96"><ellipse cx="1011.64" cy="925.79" fill="url(#aq)" rx="2.62" ry="286.58" transform="matrix(.97293743 -.23106872 .23106872 .97293743 -186.49 258.71)"/></mask><mask id="aC" height="343.68" maskUnits="userSpaceOnUse" width="202.87" x="1133.83" y="424.31"><ellipse cx="1235.27" cy="596.15" fill="url(#c)" rx="199.52" ry="3.23" transform="matrix(.50813977 -.86127462 .86127462 .50813977 94.07 1357.03)"/></mask><mask id="aD" height="195.08" maskUnits="userSpaceOnUse" width="1044.49" x="301.96" y="651.83"><ellipse cx="824.2" cy="749.37" fill="url(#d)" rx="531.26" ry="4.35" transform="matrix(.98303153 -.18343666 .18343666 .98303153 -123.47 163.9)"/></mask><mask id="aE" height="530.73" maskUnits="userSpaceOnUse" width="723.59" x="403.27" y="254.11"><ellipse cx="765.06" cy="519.48" fill="url(#e)" rx="448.48" ry="13.23" transform="matrix(.80654779 -.59116889 .59116889 .80654779 -159.1 552.82)"/></mask><mask id="aF" height="364.84" maskUnits="userSpaceOnUse" width="819.85" x="373.12" y="432.28"><ellipse cx="783.05" cy="614.7" fill="url(#f)" rx="13.23" ry="448.48" transform="matrix(.40577976 -.91397089 .91397089 .40577976 -96.54 1080.9)"/></mask><mask id="aG" height="860.05" maskUnits="userSpaceOnUse" width="256.08" x="616.18" y="326.02"><ellipse cx="744.22" cy="756.04" fill="url(#g)" rx="13.23" ry="448.48" transform="matrix(.95881973 -.28401534 .28401534 .95881973 -184.11 242.56)"/></mask><mask id="aH" height="950.28" maskUnits="userSpaceOnUse" width="332.8" x="900.48" y="190.37"><ellipse cx="1066.88" cy="665.51" fill="url(#h)" rx="503.27" ry="12.99" transform="matrix(.32969065 -.94408902 .94408902 .32969065 86.81 1453.29)"/></mask><mask id="aI" height="570.08" maskUnits="userSpaceOnUse" width="253.64" x="382.83" y="638.19"><ellipse cx="509.65" cy="923.23" fill="url(#i)" rx="311.86" ry="8.8" transform="matrix(.40577976 -.91397089 .91397089 .40577976 -540.97 1014.35)"/></mask><mask id="aJ" height="809.34" maskUnits="userSpaceOnUse" width="400.94" x="922.57" y="391.5"><ellipse cx="1123.04" cy="796.17" fill="url(#j)" rx="3.31" ry="451.59" transform="matrix(.89609944 -.44385335 .44385335 .89609944 -236.7 581.21)"/></mask><mask id="aK" height="327.98" maskUnits="userSpaceOnUse" width="938.08" x="169.38" y="700.74"><ellipse cx="638.42" cy="864.73" fill="url(#k)" rx="8.03" ry="496.81" transform="matrix(.32969065 -.94408902 .94408902 .32969065 -388.46 1182.32)"/></mask><mask id="aL" height="407.44" maskUnits="userSpaceOnUse" width="240.31" x="344.29" y="456.66"><ellipse cx="464.44" cy="660.38" fill="url(#l)" rx="236.13" ry="13.33" transform="matrix(.51 -.86 .86 .51 -340.2 726.37)"/></mask><mask id="aM" height="580.78" maskUnits="userSpaceOnUse" width="451.82" x="273.05" y="563.58"><ellipse cx="498.96" cy="853.97" fill="url(#n)" rx="2.7" ry="367.91" transform="matrix(.78929846 -.61400972 .61400972 .78929846 -419.21 486.29)"/></mask><mask id="aN" height="132.59" maskUnits="userSpaceOnUse" width="529.63" x="198.48" y="807.86"><ellipse cx="463.3" cy="874.15" fill="url(#o)" rx="272.95" ry="4.41" transform="matrix(.97016892 -.24242991 .24242991 .97016892 -198.05 138.35)"/></mask><mask id="aO" height="508.84" maskUnits="userSpaceOnUse" width="197.91" x="702.33" y="663.21"><ellipse cx="801.29" cy="917.63" fill="url(#p)" rx="4.41" ry="272.95" transform="matrix(.93207111 -.36227537 .36227537 .93207111 -277.98 352.57)"/></mask><mask id="aP" height="553.25" maskUnits="userSpaceOnUse" width="712.82" x="20.26" y="448.35"><ellipse cx="376.67" cy="724.97" fill="url(#q)" rx="25.43" ry="450.43" transform="matrix(.61249325 -.79047582 .79047582 .61249325 -427.11 578.69)"/></mask><mask id="aQ" height="459.33" maskUnits="userSpaceOnUse" width="533.6" x="97.07" y="492.71"><ellipse cx="363.87" cy="722.37" fill="url(#r)" rx="314.55" ry="157.92" transform="matrix(.79015501 -.61290705 .61290705 .79015501 -366.37 374.57)"/></mask><mask id="aR" height="533.66" maskUnits="userSpaceOnUse" width="797.08" x="-358.8" y="315.06"><ellipse cx="39.73" cy="581.89" fill="url(#s)" rx="405.73" ry="255.59" transform="matrix(.97016892 -.24242991 .24242991 .97016892 -139.84 26.98)"/></mask><mask id="aS" height="800.42" maskUnits="userSpaceOnUse" width="1195.51" x="602.6" y="233.53"><ellipse cx="1200.35" cy="633.74" fill="url(#t)" rx="608.55" ry="383.36" transform="matrix(.97016892 -.24242991 .24242991 .97016892 -117.81 309.81)"/></mask><mask id="aT" height="726.73" maskUnits="userSpaceOnUse" width="844.24" x="605.04" y="222.08"><ellipse cx="1027.16" cy="585.44" fill="url(#u)" rx="497.66" ry="249.85" transform="matrix(.79015501 -.61290705 .61290705 .79015501 -143.29 752.35)"/></mask><mask id="aU" height="912.28" maskUnits="userSpaceOnUse" width="1059.79" x="109.02" y="22.61"><ellipse cx="638.91" cy="478.75" fill="url(#v)" rx="624.72" ry="313.64" transform="matrix(.79015501 -.61290705 .61290705 .79015501 -159.36 492.02)"/></mask><mask id="aV" height="60.59" maskUnits="userSpaceOnUse" width="61.71" x="1156.46" y="678.32"><ellipse cx="1187.32" cy="708.62" fill="url(#w)" rx="30.88" ry="30.25" transform="matrix(.97016892 -.24242991 .24242991 .97016892 -136.34 308.88)"/></mask><mask id="aW" height="20.99" maskUnits="userSpaceOnUse" width="21.37" x="1021.46" y="810.3"><ellipse cx="1032.15" cy="820.79" fill="url(#y)" rx="10.7" ry="10.48" transform="matrix(.97016892 -.24242991 .24242991 .97016892 -168.16 274.62)"/></mask><mask id="aX" height="14.72" maskUnits="userSpaceOnUse" width="14.99" x="983.3" y="831.6"><ellipse cx="990.79" cy="838.96" fill="url(#z)" rx="7.5" ry="7.35" transform="matrix(.97016892 -.24242991 .24242991 .97016892 -173.79 265.14)"/></mask><mask id="aY" height="30.39" maskUnits="userSpaceOnUse" width="30.95" x="562.18" y="508.3"><ellipse cx="577.66" cy="523.5" fill="url(#A)" rx="15.49" ry="15.17" transform="matrix(.97016892 -.24242991 .24242991 .97016892 -109.65 155.61)"/></mask><mask id="aZ" height="30.39" maskUnits="userSpaceOnUse" width="30.95" x="521.67" y="632.47"><ellipse cx="537.14" cy="647.67" fill="url(#B)" rx="15.49" ry="15.17" transform="matrix(.97016892 -.24242991 .24242991 .97016892 -140.95 149.49)"/></mask><mask id="a0" height="30.39" maskUnits="userSpaceOnUse" width="30.95" x="778.34" y="602.47"><ellipse cx="793.82" cy="617.67" fill="url(#C)" rx="15.49" ry="15.17" transform="matrix(.97016892 -.24242991 .24242991 .97016892 -126.03 210.8)"/></mask><mask id="a1" height="30.39" maskUnits="userSpaceOnUse" width="30.95" x="727.17" y="814.38"><ellipse cx="742.65" cy="829.58" fill="url(#D)" rx="15.49" ry="15.17" transform="matrix(.97016892 -.24242991 .24242991 .97016892 -178.91 204.72)"/></mask><mask id="a2" height="30.39" maskUnits="userSpaceOnUse" width="30.95" x="412.93" y="656.63"><ellipse cx="428.4" cy="671.83" fill="url(#E)" rx="15.49" ry="15.17" transform="matrix(.97016892 -.24242991 .24242991 .97016892 -150.05 123.86)"/></mask><mask id="a3" height="65.83" maskUnits="userSpaceOnUse" width="67.04" x="412.81" y="846.18"><ellipse cx="446.33" cy="879.09" fill="url(#F)" rx="33.55" ry="32.87" transform="matrix(.97016892 -.24242991 .24242991 .97016892 -199.75 134.38)"/></mask><mask id="a4" height="44.06" maskUnits="userSpaceOnUse" width="44.87" x="667.41" y="550.67"><ellipse cx="689.84" cy="572.7" fill="url(#G)" rx="22.46" ry="22" transform="matrix(.97016892 -.24242991 .24242991 .97016892 -118.23 184.26)"/></mask><mask id="a5" height="63.48" maskUnits="userSpaceOnUse" width="64.64" x="790.89" y="446.33"><ellipse cx="823.21" cy="478.07" fill="url(#H)" rx="32.35" ry="31.69" transform="matrix(.97016892 -.24242991 .24242991 .97016892 -91.32 213.77)"/></mask><mask id="a6" height="17.4" maskUnits="userSpaceOnUse" width="17.72" x="479.32" y="570.12"><ellipse cx="488.18" cy="578.82" fill="url(#J)" rx="8.87" ry="8.69" transform="matrix(.97016892 -.24242991 .24242991 .97016892 -125.73 135.57)"/></mask><mask id="a7" height="17.4" maskUnits="userSpaceOnUse" width="17.72" x="484.73" y="440.19"><ellipse cx="493.59" cy="448.9" fill="url(#K)" rx="8.87" ry="8.69" transform="matrix(.97016892 -.24242991 .24242991 .97016892 -94.08 133.01)"/></mask><mask id="a8" height="46.52" maskUnits="userSpaceOnUse" width="47.37" x="865.36" y="402.59"><ellipse cx="889.05" cy="425.85" fill="url(#L)" rx="23.71" ry="23.22" transform="matrix(.97016892 -.24242991 .24242991 .97016892 -76.7 228.16)"/></mask><mask id="a9" height="33.47" maskUnits="userSpaceOnUse" width="34.09" x="991.04" y="716.99"><ellipse cx="1008.08" cy="733.73" fill="url(#M)" rx="17.06" ry="16.71" transform="matrix(.97016892 -.24242991 .24242991 .97016892 -147.77 266.19)"/></mask><mask id="ba" height="44.2" maskUnits="userSpaceOnUse" width="45.01" x="1240.56" y="672.02"><ellipse cx="1263.07" cy="694.12" fill="url(#N)" rx="22.53" ry="22.07" transform="matrix(.97016892 -.24242991 .24242991 .97016892 -130.57 326.81)"/></mask><mask id="bb" height="21.58" maskUnits="userSpaceOnUse" width="21.97" x="1162.8" y="889.96"><ellipse cx="1173.79" cy="900.75" fill="url(#O)" rx="11" ry="10.77" transform="matrix(.97016892 -.24242991 .24242991 .97016892 -183.31 311.33)"/></mask><mask id="bc" height="65.45" maskUnits="userSpaceOnUse" width="65.45" x="923.29" y="659.19"><circle cx="956.01" cy="691.91" fill="url(#P)" r="32.72" transform="matrix(.91118768 -.41199151 .41199151 .91118768 -200.17 455.39)"/></mask><mask id="bd" height="119.75" maskUnits="userSpaceOnUse" width="741.97" x="749.01" y="364.43"><ellipse cx="1120" cy="424.3" fill="url(#Q)" rx="5.44" ry="375.75" transform="matrix(.15867505 -.98733086 .98733086 .15867505 523.34 1462.78)"/></mask><mask id="be" height="96.92" maskUnits="userSpaceOnUse" width="387.14" x="1099.89" y="670.21"><ellipse cx="1293.47" cy="718.67" fill="url(#R)" rx="199.52" ry="3.23" transform="matrix(.97016892 -.24242991 .24242991 .97016892 -135.61 334.9)"/></mask><mask id="bf" height="96.92" maskUnits="userSpaceOnUse" width="387.14" x="839.96" y="584.83"><ellipse cx="1033.54" cy="633.29" fill="url(#S)" rx="199.52" ry="3.23" transform="matrix(.97016892 -.24242991 .24242991 .97016892 -122.67 269.37)"/></mask><mask id="bg" height="49.36" maskUnits="userSpaceOnUse" width="50.27" x="461.85" y="787.61"><ellipse cx="486.98" cy="812.29" fill="url(#U)" rx="25.16" ry="24.65" transform="matrix(.97016892 -.24242991 .24242991 .97016892 -182.35 142.24)"/></mask><mask id="bh" height="11.99" maskUnits="userSpaceOnUse" width="12.21" x="175.94" y="629.98"><ellipse cx="182.05" cy="635.98" fill="url(#V)" rx="5.99" ry="6.11" transform="matrix(.25038 -.96814764 .96814764 .25038 -479.25 652.99)"/></mask><mask id="bi" height="24.76" maskUnits="userSpaceOnUse" width="25.21" x="11.98" y="233.55"><ellipse cx="24.59" cy="245.93" fill="url(#W)" rx="12.36" ry="12.62" transform="matrix(.25038 -.96814764 .96814764 .25038 -219.67 208.16)"/></mask><mask id="bj" height="35.9" maskUnits="userSpaceOnUse" width="36.55" x="51.95" y="310.36"><ellipse cx="70.23" cy="328.3" fill="url(#X)" rx="17.92" ry="18.29" transform="matrix(.25 -.97 .97 .25 -265.2 314.09)"/></mask><mask id="bk" height="686.34" maskUnits="userSpaceOnUse" width="698.84" x="-424.98" y="-70.03"><ellipse cx="-75.56" cy="273.14" fill="url(#Y)" rx="342.63" ry="349.78" transform="matrix(.25038 -.96814764 .96814764 .25038 -321.08 131.6)"/></mask><mask id="bl" height="75.79" maskUnits="userSpaceOnUse" width="77.19" x="372.66" y="713.77"><ellipse cx="411.25" cy="751.67" fill="url(#Z)" rx="38.63" ry="37.84" transform="matrix(.97016892 -.24242991 .24242991 .97016892 -169.91 122.08)"/></mask><mask id="bm" height="27.27" maskUnits="userSpaceOnUse" width="27.77" x="334.44" y="829.54"><ellipse cx="348.32" cy="843.18" fill="url(#aa)" rx="13.9" ry="13.61" transform="matrix(.97016892 -.24242991 .24242991 .97016892 -193.97 109.56)"/></mask><mask id="bn" height="36.01" maskUnits="userSpaceOnUse" width="36.67" x="543.66" y="780.29"><ellipse cx="562" cy="798.3" fill="url(#ab)" rx="18.35" ry="17.98" transform="matrix(.97016892 -.24242991 .24242991 .97016892 -176.72 160)"/></mask><mask id="bo" height="36.01" maskUnits="userSpaceOnUse" width="36.67" x="723.74" y="748.47"><ellipse cx="742.08" cy="766.47" fill="url(#ac)" rx="18.35" ry="17.98" transform="matrix(.97016892 -.24242991 .24242991 .97016892 -163.64 202.7)"/></mask><mask id="bp" height="17.58" maskUnits="userSpaceOnUse" width="17.9" x="280.04" y="742.61"><ellipse cx="288.99" cy="751.4" fill="url(#ad)" rx="8.78" ry="8.96" transform="matrix(.25 -.97 .97 .25 -510.83 843.05)"/></mask><mask id="bq" height="53.31" maskUnits="userSpaceOnUse" width="53.31" x="187.34" y="495.67"><circle cx="213.99" cy="522.32" fill="url(#af)" r="26.65" transform="matrix(.07306413 -.99732724 .99732724 .07306413 -322.58 697.55)"/></mask><mask id="br" height="127.62" maskUnits="userSpaceOnUse" width="163.26" x="192.36" y="729.39"><ellipse cx="273.99" cy="793.2" fill="url(#ag)" rx="13.33" ry="102.74" transform="matrix(.61249325 -.79047582 .79047582 .61249325 -520.84 523.96)"/></mask><mask id="bs" height="713.87" maskUnits="userSpaceOnUse" width="178.41" x="274.55" y="542.08"><ellipse cx="363.76" cy="899.02" fill="url(#ah)" rx="2.7" ry="367.91" transform="matrix(.97016892 -.24242991 .24242991 .97016892 -207.05 114.97)"/></mask><mask id="bt" height="659.36" maskUnits="userSpaceOnUse" width="326.64" x="278.66" y="564.37"><ellipse cx="441.98" cy="894.05" fill="url(#ai)" rx="2.7" ry="367.91" transform="matrix(.89609944 -.44385335 .44385335 .89609944 -350.92 289.08)"/></mask><mask id="bu" height="167.15" maskUnits="userSpaceOnUse" width="278.88" x="-74.56" y="454.81"><ellipse cx="64.88" cy="538.39" fill="url(#aj)" rx="162.54" ry="2.63" transform="matrix(.8577959 -.51399046 .51399046 .8577959 -267.49 109.9)"/></mask><mask id="bv" height="78.96" maskUnits="userSpaceOnUse" width="315.4" x="211.36" y="721.87"><ellipse cx="369.06" cy="761.35" fill="url(#ak)" rx="162.54" ry="2.63" transform="matrix(.97016892 -.24242991 .24242991 .97016892 -173.52 112.14)"/></mask><mask id="bw" height="128.21" maskUnits="userSpaceOnUse" width="298.79" x="167.61" y="871.92"><ellipse cx="317" cy="936.03" fill="url(#al)" rx="162.54" ry="2.63" transform="matrix(.91906657 -.39410232 .39410232 .91906657 -343.23 200.69)"/></mask><mask id="bx" height="289.09" maskUnits="userSpaceOnUse" width="78.5" x="145.88" y="480.91"><ellipse cx="185.13" cy="625.46" fill="url(#am)" rx="149.76" ry="2.1" transform="matrix(.26168386 -.96515364 .96515364 .26168386 -466.98 640.45)"/></mask><mask id="by" height="279.99" maskUnits="userSpaceOnUse" width="165.28" x="450.77" y="591.1"><ellipse cx="533.41" cy="731.09" fill="url(#an)" rx="162.54" ry="2.63" transform="matrix(.50813977 -.86127462 .86127462 .50813977 -367.32 818.93)"/></mask><g clip-path="url(#ar)"><g mask="url(#as)"><ellipse cx="916.84" cy="672.39" fill="#98d4e6" opacity=".35" rx="16.37" ry="126.11" transform="matrix(.61249325 -.79047582 .79047582 .61249325 -176.22 985.31)"/></g><g mask="url(#at)"><ellipse cx="1042.87" cy="588.64" fill="#98d4e6" opacity=".35" rx="16.37" ry="289.84" transform="matrix(.61249325 -.79047582 .79047582 .61249325 -61.17 1052.49)"/></g><g mask="url(#au)"><ellipse cx="1150.62" cy="509.35" fill="#98d4e6" opacity=".35" rx="289.84" ry="16.37" transform="matrix(.50648531 -.86224859 .86224859 .50648531 128.66 1243.49)"/></g><g mask="url(#av)"><ellipse cx="1238.57" cy="698.33" fill="#98d4e6" opacity=".35" rx="289.84" ry="8.18" transform="matrix(.98303153 -.18343666 .18343666 .98303153 -107.08 239.03)"/></g><g mask="url(#aw)"><ellipse cx="1206.11" cy="832" fill="#98d4e6" opacity=".35" rx="382.79" ry="10.81" transform="matrix(.40577976 -.91397089 .91397089 .40577976 -43.78 1596.66)"/></g><g mask="url(#ax)"><ellipse cx="1027.03" cy="802.28" fill="#98d4e6" opacity=".35" rx="3.31" ry="451.59" transform="matrix(.97016892 -.24242991 .24242991 .97016892 -163.83 272.84)"/></g><g mask="url(#ay)"><ellipse cx="1192.99" cy="746.98" fill="#98d4e6" opacity=".35" rx="3.31" ry="451.59" transform="matrix(.78929846 -.61400972 .61400972 .78929846 -207.29 889.89)"/></g><g mask="url(#az)"><ellipse cx="807.22" cy="802.4" fill="#87cde2" opacity=".34" rx="199.52" ry="3.23" transform="matrix(.50813977 -.86127462 .86127462 .50813977 -294.07 1089.81)"/></g><g mask="url(#aA)"><ellipse cx="973.45" cy="847.87" fill="#98d4e6" opacity=".35" rx="512.48" ry="8.29" transform="matrix(.91906657 -.39410232 .39410232 .91906657 -255.37 452.27)"/></g><g mask="url(#aB)"><ellipse cx="1011.64" cy="925.79" fill="#98d4e6" opacity=".35" rx="2.62" ry="286.58" transform="matrix(.97293743 -.23106872 .23106872 .97293743 -186.49 258.71)"/></g><g mask="url(#aC)"><ellipse cx="1235.27" cy="596.15" fill="#98d4e6" opacity=".35" rx="199.52" ry="3.23" transform="matrix(.50813977 -.86127462 .86127462 .50813977 94.07 1357.03)"/></g><g mask="url(#aD)"><ellipse cx="824.2" cy="749.37" fill="#87cde2" opacity=".34" rx="531.26" ry="4.35" transform="matrix(.98303153 -.18343666 .18343666 .98303153 -123.47 163.9)"/></g><g mask="url(#aE)"><ellipse cx="765.06" cy="519.48" fill="#53b7d6" opacity=".34" rx="448.48" ry="13.23" transform="matrix(.80654779 -.59116889 .59116889 .80654779 -159.1 552.82)"/></g><g mask="url(#aF)"><ellipse cx="783.05" cy="614.7" fill="#98d4e6" opacity=".35" rx="13.23" ry="448.48" transform="matrix(.40577976 -.91397089 .91397089 .40577976 -96.54 1080.9)"/></g><g mask="url(#aG)"><ellipse cx="744.22" cy="756.04" fill="#53b7d6" opacity=".34" rx="13.23" ry="448.48" transform="matrix(.95881973 -.28401534 .28401534 .95881973 -184.11 242.56)"/></g><g mask="url(#aH)"><ellipse cx="1066.88" cy="665.51" fill="#98d4e6" opacity=".35" rx="503.27" ry="12.99" transform="matrix(.32969065 -.94408902 .94408902 .32969065 86.81 1453.29)"/></g><g mask="url(#aI)"><ellipse cx="509.65" cy="923.23" fill="#87cde2" rx="311.86" ry="8.8" transform="matrix(.40577976 -.91397089 .91397089 .40577976 -540.97 1014.35)"/></g><g mask="url(#aJ)"><ellipse cx="1123.04" cy="796.17" fill="#98d4e6" opacity=".35" rx="3.31" ry="451.59" transform="matrix(.89609944 -.44385335 .44385335 .89609944 -236.7 581.21)"/></g><g mask="url(#aK)"><ellipse cx="638.42" cy="864.73" fill="#87cde2" rx="8.03" ry="496.81" transform="matrix(.32969065 -.94408902 .94408902 .32969065 -388.46 1182.32)"/></g><g mask="url(#aL)"><ellipse cx="464.44" cy="660.38" fill="#87cde2" rx="236.13" ry="13.33" transform="matrix(.51 -.86 .86 .51 -340.2 726.37)"/></g><g mask="url(#aM)"><ellipse cx="498.96" cy="853.97" fill="#87cde2" rx="2.7" ry="367.91" transform="matrix(.78929846 -.61400972 .61400972 .78929846 -419.21 486.29)"/></g><g mask="url(#aN)"><ellipse cx="463.3" cy="874.15" fill="#87cde2" rx="272.95" ry="4.41" transform="matrix(.97016892 -.24242991 .24242991 .97016892 -198.05 138.35)"/></g><g mask="url(#aO)"><ellipse cx="801.29" cy="917.63" fill="#87cde2" opacity=".34" rx="4.41" ry="272.95" transform="matrix(.93207111 -.36227537 .36227537 .93207111 -277.98 352.57)"/></g><g mask="url(#aP)"><ellipse cx="376.67" cy="724.97" fill="#9bd5e7" opacity=".49" rx="25.43" ry="450.43" transform="matrix(.61249325 -.79047582 .79047582 .61249325 -427.11 578.69)"/></g></g><g clip-path="url(#ar)"><g mask="url(#aQ)"><ellipse cx="363.87" cy="722.37" fill="#b5b8c0" rx="314.55" ry="157.92" transform="matrix(.79015501 -.61290705 .61290705 .79015501 -366.37 374.57)"/></g><g mask="url(#aR)"><ellipse cx="39.73" cy="581.89" fill="#b3b6be" rx="405.73" ry="255.59" transform="matrix(.97016892 -.24242991 .24242991 .97016892 -139.84 26.98)"/></g><g mask="url(#aS)"><ellipse cx="1200.35" cy="633.74" fill="#87cde2" rx="608.55" ry="383.36" transform="matrix(.97016892 -.24242991 .24242991 .97016892 -117.81 309.81)"/></g><g mask="url(#aT)"><ellipse cx="1027.16" cy="585.44" fill="#3c4358" opacity=".71" rx="497.66" ry="249.85" transform="matrix(.79015501 -.61290705 .61290705 .79015501 -143.29 752.35)"/></g><g mask="url(#aU)"><ellipse cx="638.91" cy="478.75" fill="#383861" opacity=".5" rx="624.72" ry="313.64" transform="matrix(.79015501 -.61290705 .61290705 .79015501 -159.36 492.02)"/></g><g mask="url(#aV)"><ellipse cx="1187.32" cy="708.62" fill="#87cde2" rx="30.88" ry="30.25" transform="matrix(.97016892 -.24242991 .24242991 .97016892 -136.34 308.88)"/></g><g mask="url(#aW)"><ellipse cx="1032.15" cy="820.79" fill="#87cde2" rx="10.7" ry="10.48" transform="matrix(.97016892 -.24242991 .24242991 .97016892 -168.16 274.62)"/></g><g mask="url(#aX)"><ellipse cx="990.79" cy="838.96" fill="#87cde2" rx="7.5" ry="7.35" transform="matrix(.97016892 -.24242991 .24242991 .97016892 -173.79 265.14)"/></g><g mask="url(#aY)"><ellipse cx="577.66" cy="523.5" fill="#53b7d6" rx="15.49" ry="15.17" transform="matrix(.97016892 -.24242991 .24242991 .97016892 -109.65 155.61)"/></g><g mask="url(#aZ)"><ellipse cx="537.14" cy="647.67" fill="#53b7d6" rx="15.49" ry="15.17" transform="matrix(.97016892 -.24242991 .24242991 .97016892 -140.95 149.49)"/></g><g mask="url(#a0)"><ellipse cx="793.82" cy="617.67" fill="#53b7d6" rx="15.49" ry="15.17" transform="matrix(.97016892 -.24242991 .24242991 .97016892 -126.03 210.8)"/></g><g mask="url(#a1)"><ellipse cx="742.65" cy="829.58" fill="#53b7d6" rx="15.49" ry="15.17" transform="matrix(.97016892 -.24242991 .24242991 .97016892 -178.91 204.72)"/></g><g mask="url(#a2)"><ellipse cx="428.4" cy="671.83" fill="#53b7d6" rx="15.49" ry="15.17" transform="matrix(.97016892 -.24242991 .24242991 .97016892 -150.05 123.86)"/></g><g mask="url(#a3)"><ellipse cx="446.33" cy="879.09" fill="#53b7d6" rx="33.55" ry="32.87" transform="matrix(.97016892 -.24242991 .24242991 .97016892 -199.75 134.38)"/></g><g mask="url(#a4)"><ellipse cx="689.84" cy="572.7" fill="#53b7d6" rx="22.46" ry="22" transform="matrix(.97016892 -.24242991 .24242991 .97016892 -118.23 184.26)"/></g><g mask="url(#a5)"><ellipse cx="823.21" cy="478.07" fill="#53b7d6" rx="32.35" ry="31.69" transform="matrix(.97016892 -.24242991 .24242991 .97016892 -91.32 213.77)"/></g><g mask="url(#a6)"><ellipse cx="488.18" cy="578.82" fill="#87cde2" rx="8.87" ry="8.69" transform="matrix(.97016892 -.24242991 .24242991 .97016892 -125.73 135.57)"/></g><g mask="url(#a7)"><ellipse cx="493.59" cy="448.9" fill="#87cde2" rx="8.87" ry="8.69" transform="matrix(.97016892 -.24242991 .24242991 .97016892 -94.08 133.01)"/></g><g mask="url(#a8)"><ellipse cx="889.05" cy="425.85" fill="#87cde2" rx="23.71" ry="23.22" transform="matrix(.97016892 -.24242991 .24242991 .97016892 -76.7 228.16)"/></g><g mask="url(#a9)"><ellipse cx="1008.08" cy="733.73" fill="#87cde2" rx="17.06" ry="16.71" transform="matrix(.97016892 -.24242991 .24242991 .97016892 -147.77 266.19)"/></g><g mask="url(#ba)"><ellipse cx="1263.07" cy="694.12" fill="#87cde2" rx="22.53" ry="22.07" transform="matrix(.97016892 -.24242991 .24242991 .97016892 -130.57 326.81)"/></g><g mask="url(#bb)"><ellipse cx="1173.79" cy="900.75" fill="#87cde2" rx="11" ry="10.77" transform="matrix(.97016892 -.24242991 .24242991 .97016892 -183.31 311.33)"/></g><g mask="url(#bc)"><circle cx="956.01" cy="691.91" fill="#87cde2" r="32.72" transform="matrix(.91118768 -.41199151 .41199151 .91118768 -200.17 455.39)"/></g><g mask="url(#bd)"><ellipse cx="1120" cy="424.3" fill="#87cde2" rx="5.44" ry="375.75" transform="matrix(.15867505 -.98733086 .98733086 .15867505 523.34 1462.78)"/></g><g mask="url(#be)"><ellipse cx="1293.47" cy="718.67" fill="#87cde2" rx="199.52" ry="3.23" transform="matrix(.97016892 -.24242991 .24242991 .97016892 -135.61 334.9)"/></g><g mask="url(#bf)"><ellipse cx="1033.54" cy="633.29" fill="#87cde2" rx="199.52" ry="3.23" transform="matrix(.97016892 -.24242991 .24242991 .97016892 -122.67 269.37)"/></g><g mask="url(#bg)"><ellipse cx="486.98" cy="812.29" fill="#87cde2" rx="25.16" ry="24.65" transform="matrix(.97016892 -.24242991 .24242991 .97016892 -182.35 142.24)"/></g><g mask="url(#bh)"><ellipse cx="182.05" cy="635.98" fill="#87cde2" rx="5.99" ry="6.11" transform="matrix(.25038 -.96814764 .96814764 .25038 -479.25 652.99)"/></g><g mask="url(#bi)"><ellipse cx="24.59" cy="245.93" fill="#53b7d6" rx="12.36" ry="12.62" transform="matrix(.25038 -.96814764 .96814764 .25038 -219.67 208.16)"/></g><g mask="url(#bj)"><ellipse cx="70.23" cy="328.3" fill="#53b7d6" rx="17.92" ry="18.29" transform="matrix(.25 -.97 .97 .25 -265.2 314.09)"/></g><g mask="url(#bk)"><ellipse cx="-75.56" cy="273.14" fill="#9296a1" rx="342.63" ry="349.78" transform="matrix(.25038 -.96814764 .96814764 .25038 -321.08 131.6)"/></g><g mask="url(#bl)"><ellipse cx="411.25" cy="751.67" fill="#87cde2" rx="38.63" ry="37.84" transform="matrix(.97016892 -.24242991 .24242991 .97016892 -169.91 122.08)"/></g><g mask="url(#bm)"><ellipse cx="348.32" cy="843.18" fill="#87cde2" rx="13.9" ry="13.61" transform="matrix(.97016892 -.24242991 .24242991 .97016892 -193.97 109.56)"/></g><g mask="url(#bn)"><ellipse cx="562" cy="798.3" fill="#87cde2" rx="18.35" ry="17.98" transform="matrix(.97016892 -.24242991 .24242991 .97016892 -176.72 160)"/></g><g mask="url(#bo)"><ellipse cx="742.08" cy="766.47" fill="#87cde2" rx="18.35" ry="17.98" transform="matrix(.97016892 -.24242991 .24242991 .97016892 -163.64 202.7)"/></g><g mask="url(#bp)"><ellipse cx="288.99" cy="751.4" fill="#87cde2" rx="8.78" ry="8.96" transform="matrix(.25 -.97 .97 .25 -510.83 843.05)"/></g><g mask="url(#bq)"><circle cx="213.99" cy="522.32" fill="#87cde2" r="26.65" transform="matrix(.07306413 -.99732724 .99732724 .07306413 -322.58 697.55)"/></g><g mask="url(#br)"><ellipse cx="273.99" cy="793.2" fill="#87cde2" rx="13.33" ry="102.74" transform="matrix(.61249325 -.79047582 .79047582 .61249325 -520.84 523.96)"/></g><g mask="url(#bs)"><ellipse cx="363.76" cy="899.02" fill="#87cde2" rx="2.7" ry="367.91" transform="matrix(.97016892 -.24242991 .24242991 .97016892 -207.05 114.97)"/></g><g mask="url(#bt)"><ellipse cx="441.98" cy="894.05" fill="#87cde2" rx="2.7" ry="367.91" transform="matrix(.89609944 -.44385335 .44385335 .89609944 -350.92 289.08)"/></g><g mask="url(#bu)"><ellipse cx="64.88" cy="538.39" fill="#87cde2" rx="162.54" ry="2.63" transform="matrix(.8577959 -.51399046 .51399046 .8577959 -267.49 109.9)"/></g><g mask="url(#bv)"><ellipse cx="369.06" cy="761.35" fill="#87cde2" rx="162.54" ry="2.63" transform="matrix(.97016892 -.24242991 .24242991 .97016892 -173.52 112.14)"/></g><g mask="url(#bw)"><ellipse cx="317" cy="936.03" fill="#87cde2" rx="162.54" ry="2.63" transform="matrix(.91906657 -.39410232 .39410232 .91906657 -343.23 200.69)"/></g><g mask="url(#bx)"><ellipse cx="185.13" cy="625.46" fill="#87cde2" rx="149.76" ry="2.1" transform="matrix(.26168386 -.96515364 .96515364 .26168386 -466.98 640.45)"/></g><g mask="url(#by)"><ellipse cx="533.41" cy="731.09" fill="#87cde2" rx="162.54" ry="2.63" transform="matrix(.50813977 -.86127462 .86127462 .50813977 -367.32 818.93)"/></g></g><g clip-path="url(#ar)" fill="#fff" opacity=".6"><path d="m628.4 779.08h999.1v.71h-999.1z" transform="matrix(.59 -.81 .81 .59 -165.35 1234.6)"/><path d="m293.72 801.69h1132.32v.71h-1132.32z" transform="matrix(.44400975 -.89602196 .89602196 .44400975 -240.53 1216.49)"/><path d="m1037.83 593.23h.71v605.89h-.71z" transform="matrix(.2198462 -.97553454 .97553454 .2198462 -64.29 1711.96)"/><path d="m634.58 966.93h544.72v.71h-544.72z" transform="matrix(.18738131 -.98228725 .98228725 .18738131 -213.13 1676.95)"/><path d="m875.54 566.94h.71v183.54h-.71z" transform="matrix(.44713474 -.89446661 .89446661 .44713474 -104.98 1147.56)"/><path d="m715.92 467.8h364.9v.71h-364.9z" transform="matrix(.57300442 -.81955228 .81955228 .57300442 -.06 936.18)"/><path d="m724.59 764.31h251.44v.71h-251.44z" transform="matrix(.86 -.52 .52 .86 -272.7 548.84)"/><path d="m1022.28 408.58.69.15-64.65 291.1-.69-.16z"/><path d="m906.82 589.68h471.16v.71h-471.16z" transform="matrix(.93200787 -.36243804 .36243804 .93200787 -136.19 454.27)"/><path d="m1164.45 525.59h.71v540.74h-.71z" transform="matrix(.44604161 -.89501222 .89501222 .44604161 -67.14 1483.45)"/><path d="m854.95 478.04h578.6v.71h-578.6z" transform="matrix(.64465749 -.76447153 .76447153 .64465749 40.91 1044.81)"/><path d="m1109.74 709.87h264.17v.71h-264.17z" transform="matrix(.85635722 -.51638387 .51638387 .85635722 -188.37 743.17)"/><path d="m925.87 394.22 203.14 384.03-.63.33-203.14-384.03z"/><path d="m920.74 494.76h.71v254.72h-.71z" transform="matrix(.0348995 -.99939083 .99939083 .0348995 267.16 1520.91)"/><path d="m1048.16 626.3.44.55-89.77 71.09-.44-.55z"/><path d="m1048.34 623.04h266.62v.71h-266.62z" transform="matrix(.99972653 -.02338528 .02338528 .99972653 -14.27 27.83)"/><path d="m1031.6 648.31h269.13v.71h-269.13z" transform="matrix(.28100173 -.95970726 .95970726 .28100173 215.9 1585.52)"/><path d="m995.98 520.03h371.96v.71h-371.96z" transform="matrix(.99920138 -.0399574 .0399574 .99920138 -19.81 47.55)"/><path d="m1211.75 158.48h.71v433.37h-.71z" transform="matrix(.26100999 -.9653361 .9653361 .26100999 533.64 1447.38)"/><path d="m918.55 337.31h466.01v.71h-466.01z" transform="matrix(.96982948 -.24378428 .24378428 .96982948 -47.57 290.89)"/><path d="m1132.37 333.06h.71v213.67h-.71z" transform="matrix(.74524329 -.66679265 .66679265 .74524329 -4.76 867.32)"/><path d="m995.72 410.54h225.04v.71h-225.04z" transform="matrix(.01657987 -.99986254 .99986254 .01657987 679.12 1512.2)"/><path d="m69.76 940.47h664.79v.58h-664.79z" transform="matrix(.58849103 -.80850375 .80850375 .58849103 -595.11 712.23)"/><path d="m-233.65 898.54h922.49v.58h-922.49z" transform="matrix(.44447884 -.89578935 .89578935 .44447884 -678.74 703.23)"/><path d="m241.6 426.72h.58v621.72h-.58z" transform="matrix(.65895206 -.75218494 .75218494 .65895206 -472.28 433.44)"/><path d="m-149.79 694.92h443.78v.58h-443.78z" transform="matrix(.63257016 -.77450306 .77450306 .63257016 -511.97 311.32)"/><path d="m180.48 389.1h.58v142.06h-.58z" transform="matrix(.89305749 -.44994258 .44994258 .89305749 -187.68 130.52)"/><path d="m-143.3 301.2 292.2 95.22-.18.55-292.2-95.22z"/><path d="m7.98 527.85h204.84v.58h-204.84z" transform="matrix(.99903293 -.04396812 .04396812 .99903293 -23.15 5.37)"/><path d="m181.26 644.73h356.45v.58h-356.45z" transform="matrix(.29086918 -.95676283 .95676283 .29086918 -362.2 801.38)"/><path d="m267.35 733.95h339v.58h-339z" transform="matrix(.9323869 -.36146184 .36146184 .9323869 -235.87 207.55)"/><path d="m475.71 673.61h.58v440.54h-.58z" transform="matrix(.44604161 -.89501222 .89501222 .44604161 -536.35 921.2)"/><path d="m243.99 669.41h398.19v.58h-398.19z" transform="matrix(.68123211 -.73206749 .73206749 .68123211 -349.02 537.85)"/><path d="m662.83 748.91.3.49-216.4 130.43-.29-.5z"/><path d="m363.55 546.18h.58v353.94h-.58z" transform="matrix(.88392891 -.46762129 .46762129 .88392891 -295.91 254.05)"/><path d="m158.86 714.83 222.34 40.77-.1.56-222.35-40.77z"/><path d="m125.52 652.53h.58v79.97h-.58z" transform="matrix(.564967 -.8251135 .8251135 .564967 -516.68 405.09)"/><path d="m24.04 732.75h137.15v.58h-137.15z" transform="matrix(.96538164 -.26084151 .26084151 .96538164 -187.98 49.53)"/><path d="m24.29 673.65h.58v77.35h-.58z" transform="matrix(.99885675 -.0478038 .0478038 .99885675 -34.08 1.99)"/><path d="m22.67 671.52h70.2v.58h-70.2z" transform="matrix(.99852722 -.05425309 .05425309 .99852722 -36.36 4.12)"/><path d="m297.94 784.55h93.29v.58h-93.29z" transform="matrix(.78347659 -.6214213 .6214213 .78347659 -413.07 384.01)"/><path d="m381.11 752.23h281.91v.58h-281.91z" transform="matrix(.9997183 -.02373425 .02373425 .9997183 -17.68 12.58)"/><path d="m367.48 773.58h219.26v.58h-219.26z" transform="matrix(.28066671 -.95980529 .95980529 .28066671 -399.56 1014.62)"/><path d="m338.52 671.74h169.45v.58h-169.45z" transform="matrix(.99917325 -.04065496 .04065496 .99917325 -26.94 17.74)"/><path d="m430.5 341.62h.58v281.83h-.58z" transform="matrix(.47685197 -.87898362 .87898362 .47685197 -198.78 631.05)"/><path d="m577.54 523.22.08.57-381.75 55.64-.09-.57z"/><path d="m449.58 516.75h.58v174.07h-.58z" transform="matrix(.74524329 -.66679265 .66679265 .74524329 -287.99 453.76)"/><path d="m338.25 579.88h183.34v.58h-183.34z" transform="matrix(.01675438 -.99985964 .99985964 .01675438 -157.38 1000.3)"/><path d="m1178.96 327.78 25.34 191.68-.7.09-25.34-191.68z"/><path d="m1064.4 304.34h.71v305.22h-.71z" transform="matrix(.40992303 -.91212012 .91212012 .40992303 211.48 1240.8)"/><path d="m1015.61 347.83h.71v222.13h-.71z" transform="matrix(.58084504 -.81401415 .81401415 .58084504 52.33 1019.4)"/><path d="m1018.2 574.63h118.36v.71h-118.36z" transform="matrix(.49014329 -.87164187 .87164187 .49014329 48.1 1232.21)"/><path d="m1139.08 513.53h.71v120.6h-.71z" transform="matrix(.84 -.55 .55 .84 -128.11 718.47)"/><path d="m982.8 618.96 22.64 24.46-.52.48-22.64-24.46z"/><path d="m981.72 612.03h57.14v.71h-57.14z" transform="matrix(.97113428 -.23853346 .23853346 .97113428 -116.93 258.72)"/><path d="m1104.9 547.05h.71v135.75h-.71z" transform="matrix(.13761742 -.99048546 .99048546 .13761742 344.04 1625.01)"/><path d="m1003.27 318.55 19.7 90.03-.69.15-19.7-90.03z"/><path d="m1031.85 303.52h.71v71.86h-.71z" transform="matrix(.57942343 -.81502668 .81502668 .57942343 157.42 983.98)"/><path d="m1011.03 384.11h62.06v.71h-62.06z" transform="matrix(.6256512 -.78010292 .78010292 .6256512 90.16 956.8)"/><path d="m973.54 351.83h.71v98.62h-.71z" transform="matrix(.15229589 -.98833494 .98833494 .15229589 429.05 1302.54)"/><path d="m784.28 572.38h221.38v.71h-221.38z" transform="matrix(.91382919 -.40609877 .40609877 .91382919 -155.46 412.74)"/><path d="m565.7 628.79h.58v62.94h-.58z" transform="matrix(.39986917 -.91657223 .91657223 .39986917 -265.51 915.01)"/><path d="m503.98 657.36h36.17v.58h-36.17z" transform="matrix(.83359671 -.55237353 .55237353 .83359671 -276.39 397.79)"/><path d="m537.86 647.66h.58v104.46h-.58z" transform="matrix(.99981235 -.01937194 .01937194 .99981235 -13.42 10.53)"/><path d="m430.89 534.27 106.46 113.2-.42.4-106.46-113.2z"/><path d="m702.46 732.76h.71v113.2h-.71z" transform="matrix(.71043108 -.70376678 .70376678 .71043108 -352.02 723.18)"/><path d="m635.66 683.06h185.49v.71h-185.49z" transform="matrix(.70574793 -.70846302 .70846302 .70574793 -269.84 717.12)"/><path d="m628.55 659.84h.71v102.32h-.71z" transform="matrix(.74582489 -.66614205 .66614205 .74582489 -313.76 599.59)"/><path d="m659.23 723.27h218v.71h-218z" transform="matrix(.2344635 -.97212492 .97212492 .2344635 -115.3 1300.85)"/><path d="m690.3 696.64h.71v278.26h-.71z" transform="matrix(.60834595 -.79367198 .79367198 .60834595 -392.83 875.46)"/><path d="m771.51 820.99h.71v108h-.71z" transform="matrix(.84103901 -.54097447 .54097447 .84103901 -350.66 556.66)"/><path d="m574.38 546.53h.71v129.5h-.71z" transform="matrix(.95062412 -.31034462 .31034462 .95062412 -161.33 208.54)"/><path d="m673.87 459.38h.71v248.64h-.71z" transform="matrix(.27328773 -.96193233 .96193233 .27328773 -71.49 1072.77)"/><path d="m591.08 644.9h206.49v.71h-206.49z" transform="matrix(.96367708 -.26707019 .26707019 .96367708 -147.14 208.93)"/><path d="m857.96 575.86h.71v141.32h-.71z" transform="matrix(.40833046 -.91283418 .91283418 .40833046 -82.31 1166.06)"/><path d="m714.16 752.12h237.15v.71h-237.15z" transform="matrix(.76006581 -.64984611 .64984611 .76006581 -289.19 721.78)"/><path d="m968.03 849.41h.71v108.08h-.71z" transform="matrix(.60501609 -.79621324 .79621324 .60501609 -336.85 1127.84)"/><path d="m796.3 895.23h133.83v.71h-133.83z" transform="matrix(.92880955 -.37055744 .37055744 .92880955 -270.41 383.64)"/><path d="m859.23 601.6h.71v285.22h-.71z" transform="matrix(.88733298 -.46112925 .46112925 .88733298 -246.35 480.3)"/><path d="m657.85 711.91h270.11v.71h-270.11z" transform="matrix(.96202767 -.27295194 .27295194 .96202767 -164.29 243.45)"/><path d="m479.61 875.23h271.09v.71h-271.09z" transform="matrix(.94088077 -.33873792 .33873792 .94088077 -260.28 260.22)"/><path d="m516.45 884.25h271.73v.71h-271.73z" transform="matrix(.07706706 -.99702591 .99702591 .07706706 -279.88 1466.88)"/><path d="m561.56 902.93h211.1v.71h-211.1z" transform="matrix(.71605832 -.69804045 .69804045 .71605832 -441.12 722.2)"/><path d="m667.09 724.97h.71v316.97h-.71z" transform="matrix(.83494393 -.55033502 .55033502 .83494393 -376.02 513.12)"/><path d="m266.44 520.28h159.66v.71h-159.66z" transform="matrix(.81684297 -.57686009 .57686009 .81684297 -236.89 295.07)"/><path d="m391.7 536.34h39.1v.71h-39.1z" transform="matrix(.99357186 -.11320321 .11320321 .99357186 -58.09 49.99)"/><path d="m281.3 566.43 147.31 105.11-.41.57-147.32-105.1z"/><path d="m165.74 637.83h159.63v.71h-159.63z" transform="matrix(.44619781 -.89493436 .89493436 .44619781 -435.14 573.14)"/><path d="m201.72 523.75 79.54 42.66-.34.62-79.53-42.65z"/><path d="m586.39 523.46h.71v149.82h-.71z" transform="matrix(.9941698 -.10782584 .10782584 .9941698 -61.14 66.81)"/><path d="m620.47 516.26h.71v240.52h-.71z" transform="matrix(.93654989 -.35053432 .35053432 .93654989 -183.74 258.03)"/><path d="m306.73 415.04.4.58-111.12 76.95-.4-.59z"/><path d="m229.23 324.82h.71v162.64h-.71z" transform="matrix(.1161507 -.9932316 .9932316 .1161507 -200.46 587.02)"/><path d="m189.6 468.47h141.72v.71h-141.72z" transform="matrix(.65579555 -.75493854 .75493854 .65579555 -264.29 358.02)"/><path d="m217.22 490.67h153.58v.71h-153.58z" transform="matrix(.16797324 -.98579155 .98579155 .16797324 -239.41 698.41)"/><path d="m-19.41 464.35h195.72v.71h-195.72z" transform="matrix(.7193398 -.69465837 .69465837 .7193398 -300.79 184.92)"/><path d="m195.55 492.03.51.49-213.43 223.72-.52-.49z"/><path d="m-38.47 158.95h.71v497.49h-.71z" transform="matrix(.34005131 -.94040688 .94040688 .34005131 -408.56 233.23)"/><path d="m-186.01 484.11h357.83v.71h-357.83z" transform="matrix(.87129948 -.49075169 .49075169 .87129948 -238.65 58.86)"/><path d="m-88.62 126.25h.71v429.31h-.71z" transform="matrix(.89360653 -.44885117 .44885117 .89360653 -162.42 -3.35)"/><path d="m24.79 119.58h.71v332.3h-.71z" transform="matrix(.66783256 -.74431155 .74431155 .66783256 -204.32 113.63)"/><path d="m-66.4 420.84h137.62v.71h-137.62z" transform="matrix(.24513818 -.96948815 .96948815 .24513818 -406.51 320.25)"/><path d="m-18.64 532.96h278.91v.71h-278.91z" transform="matrix(.20141985 -.979505 .979505 .20141985 -425.9 544.22)"/><path d="m13.1 328.4h113.73v.71h-113.73z" transform="matrix(.89227083 -.45150057 .45150057 .89227083 -140.91 67.02)"/><path d="m306.87 545.81h.71v405.61h-.71z" transform="matrix(.83561567 -.54931454 .54931454 .83561567 -360.7 291.79)"/><path d="m-12.97 598.2h210.6v.71h-210.6z" transform="matrix(.9828389 -.18446599 .18446599 .9828389 -108.86 27.32)"/><path d="m561.1 684.11h251.85v.58h-251.85z" transform="matrix(.84851021 -.529179 .529179 .84851021 -258.09 467.22)"/></g><g clip-path="url(#ar)" opacity=".3"><circle cx="1242.33" cy="621.95" fill="#fff" r="12.18" transform="matrix(.91118768 -.41199151 .41199151 .91118768 -145.91 567.16)"/><circle cx="594.83" cy="672.84" fill="none" r="47.92" stroke="#53b7d6" stroke-miterlimit="10" stroke-width=".23" transform="matrix(.91118768 -.41199151 .41199151 .91118768 -224.4 304.88)"/><circle cx="2.71" cy="615.88" fill="#dbf0f6" opacity=".05" r="62.51" transform="matrix(.07306413 -.99732724 .99732724 .07306413 -611.72 573.56)"/><circle cx="2.71" cy="615.88" fill="#fafdfe" r="11.52" transform="matrix(.07306413 -.99732724 .99732724 .07306413 -611.72 573.56)"/><circle cx="801.08" cy="920.41" fill="none" r="36.48" stroke="#53b7d6" stroke-miterlimit="10" transform="matrix(.91118768 -.41199151 .41199151 .91118768 -308.09 411.85)"/><circle cx="801.08" cy="920.41" fill="#53b7d6" opacity=".05" r="76.73" transform="matrix(.91118768 -.41199151 .41199151 .91118768 -308.09 411.85)"/><circle cx="958.61" cy="697.66" fill="#fff" r="14.14" transform="matrix(.91118768 -.41199151 .41199151 .91118768 -202.31 456.98)"/><circle cx="1128.38" cy="777.81" fill="#fff" r="14.14" transform="matrix(.91118768 -.41199151 .41199151 .91118768 -220.25 534.05)"/><circle cx="1128.38" cy="777.81" fill="none" r="58.82" stroke="#2e6684" stroke-miterlimit="10" stroke-width=".28" transform="matrix(.91118768 -.41199151 .41199151 .91118768 -220.25 534.05)"/><circle cx="1111.78" cy="295.01" fill="none" r="58.82" stroke="#53b7d6" stroke-miterlimit="10" stroke-width=".28" transform="matrix(.91118768 -.41199151 .41199151 .91118768 -22.79 484.32)"/><circle cx="996.13" cy="527.8" fill="#fff" r="22.36" transform="matrix(.91118768 -.41199151 .41199151 .91118768 -128.98 457.34)"/><circle cx="921.39" cy="675.92" fill="#fff" r="7.91" transform="matrix(.91118768 -.41199151 .41199151 .91118768 -196.66 439.71)"/><circle cx="793.82" cy="617.67" fill="#fff" r="6.58" transform="matrix(.91118768 -.41199151 .41199151 .91118768 -183.99 381.97)"/><circle cx="742.65" cy="829.58" fill="#fff" r="4.2" transform="matrix(.91118768 -.41199151 .41199151 .91118768 -275.85 379.71)"/><circle cx="662.98" cy="749.15" fill="#fff" r="4.2" transform="matrix(.91118768 -.41199151 .41199151 .91118768 -249.79 339.73)"/><circle cx="1002.92" cy="318.63" fill="#fff" r="4.2" transform="matrix(.91118768 -.41199151 .41199151 .91118768 -42.19 441.57)"/><circle cx="1002.92" cy="318.63" fill="none" r="45.78" stroke="#53b7d6" stroke-dasharray="5.75 5.75" stroke-miterlimit="10" stroke-width=".28" transform="matrix(.91118768 -.41199151 .41199151 .91118768 -42.19 441.56)"/><circle cx="1061.49" cy="360.27" fill="#fff" r="4.2" transform="matrix(.91118768 -.41199151 .41199151 .91118768 -54.15 469.4)"/><circle cx="1106.38" cy="523.4" fill="#fff" r="7.85" transform="matrix(.91118768 -.41199151 .41199151 .91118768 -117.38 502.38)"/><circle cx="1171.55" cy="623.63" fill="#fff" r="4.2" transform="matrix(.91118768 -.41199151 .41199151 .91118768 -152.89 538.14)"/><circle cx="1171.55" cy="623.63" fill="#fff" r="2.17" transform="matrix(.91118768 -.41199151 .41199151 .91118768 -152.89 538.15)"/><circle cx="1048.38" cy="626.57" fill="#fff" r="4.2" transform="matrix(.91118768 -.41199151 .41199151 .91118768 -165.04 487.65)"/><circle cx="1037.25" cy="605.54" fill="#fff" r="4.2" transform="matrix(.91118768 -.41199151 .41199151 .91118768 -157.37 481.2)"/><circle cx="1022.04" cy="623.62" fill="#fff" r="4.2" transform="matrix(.91118768 -.41199151 .41199151 .91118768 -166.17 476.54)"/><circle cx="925.36" cy="870.75" fill="#98d4e6" r="4.2" transform="matrix(.91118768 -.41199151 .41199151 .91118768 -276.59 458.65)"/><circle cx="1189.3" cy="742.17" fill="#fff" r="4.2" transform="matrix(.91118768 -.41199151 .41199151 .91118768 -200.15 555.98)"/><circle cx="1163.24" cy="731.02" fill="#fff" r="4.2" transform="matrix(.91118768 -.41199151 .41199151 .91118768 -197.88 544.26)"/><circle cx="1042.47" cy="897.14" fill="#98d4e6" r="4.2" transform="matrix(.91118768 -.41199151 .41199151 .91118768 -277.06 509.26)"/><circle cx="1180.65" cy="804.04" fill="#fff" r="4.2" transform="matrix(.91118768 -.41199151 .41199151 .91118768 -226.42 557.91)"/><circle cx="1005.65" cy="643.18" fill="#fff" r="2.48" transform="matrix(.91118768 -.41199151 .41199151 .91118768 -175.68 471.53)"/><circle cx="1099.97" cy="903.06" fill="#a7daea" r="1.42" transform="matrix(.07306413 -.99732724 .99732724 .07306413 118.92 1934.08)"/><circle cx="1255.89" cy="728.27" fill="#a7daea" r="1.42" transform="matrix(.91118768 -.41199151 .41199151 .91118768 -188.51 582.18)"/><circle cx="971.03" cy="656.95" fill="#fff" r="2.48" transform="matrix(.91118768 -.41199151 .41199151 .91118768 -184.43 458.47)"/><circle cx="971.03" cy="656.95" fill="#fff" r="1.75" transform="matrix(.91118768 -.41199151 .41199151 .91118768 -184.43 458.49)"/><circle cx="982.54" cy="619.2" fill="#fff" r="2.48" transform="matrix(.91118768 -.41199151 .41199151 .91118768 -167.85 459.87)"/><circle cx="1202.83" cy="518.25" fill="#fff" r="4.2" transform="matrix(.91118768 -.41199151 .41199151 .91118768 -106.69 541.66)"/><circle cx="1202.83" cy="518.25" fill="#fff" r="2.97" transform="matrix(.91118768 -.41199151 .41199151 .91118768 -106.69 541.66)"/><circle cx="1242.33" cy="621.95" fill="#fff" r="3.77" transform="matrix(.91118768 -.41199151 .41199151 .91118768 -145.91 567.15)"/><circle cx="1109.28" cy="348.28" fill="#fff" r="4.2" transform="matrix(.91118768 -.41199151 .41199151 .91118768 -44.96 488.01)"/><circle cx="1022.63" cy="408.65" fill="#fff" r="4.2" transform="matrix(.91118768 -.41199151 .41199151 .91118768 -77.54 457.68)"/><circle cx="1111.78" cy="295.01" fill="#fff" r="4.2" transform="matrix(.91118768 -.41199151 .41199151 .91118768 -22.79 484.31)"/><circle cx="1293.35" cy="301.22" fill="#fff" r="14.88" transform="matrix(.91118768 -.41199151 .41199151 .91118768 -9.22 559.69)"/><circle cx="1179.72" cy="330.26" fill="#fff" r="6.12" transform="matrix(.91118768 -.41199151 .41199151 .91118768 -31.28 515.45)"/><circle cx="925.16" cy="393.63" fill="#fff" r="5.92" transform="matrix(.91118768 -.41199151 .41199151 .91118768 -80 416.18)"/><circle cx="2.71" cy="615.88" fill="none" r="29.72" stroke="#e7f5f9" stroke-miterlimit="10" stroke-width=".81" transform="matrix(.07306413 -.99732724 .99732724 .07306413 -611.72 573.56)"/><circle cx="213.99" cy="522.32" fill="#f6fbfd" r="11.52" transform="matrix(.07306413 -.99732724 .99732724 .07306413 -322.57 697.56)"/><circle cx="446.33" cy="879.09" fill="#fff" r="11.52" transform="matrix(.91118768 -.41199151 .41199151 .91118768 -322.58 262.01)"/><circle cx="159.91" cy="715.12" fill="#fff" r="7.09" transform="matrix(.07306413 -.99732724 .99732724 .07306413 -564.98 822.32)"/><circle cx="446.33" cy="879.09" fill="none" r="47.92" stroke="#53b7d6" stroke-miterlimit="10" stroke-width=".23" transform="matrix(.91118768 -.41199151 .41199151 .91118768 -322.58 262.01)"/><circle cx="411.46" cy="474.55" fill="none" r="23.71" stroke="#53b7d6" stroke-dasharray="2.86 2.86" stroke-miterlimit="10" stroke-width=".71" transform="matrix(.91118768 -.41199151 .41199151 .91118768 -158.98 211.7)"/><circle cx="306.93" cy="415.33" fill="#f5fbfd" r="18.21" transform="matrix(.07306413 -.99732724 .99732724 .07306413 -129.72 691.08)"/><circle cx="579.1" cy="750.45" fill="#fff" r="18.21" transform="matrix(.91118768 -.41199151 .41199151 .91118768 -257.77 305.29)"/><circle cx="195.81" cy="492.28" fill="#fff" r="8.09" transform="matrix(.07306413 -.99732724 .99732724 .07306413 -309.46 651.57)"/><circle cx="148.81" cy="396.7" fill="#fff" r="3.42" transform="matrix(.07306413 -.99732724 .99732724 .07306413 -257.7 516.11)"/><circle cx="8.08" cy="532.72" fill="#fff" r="3.42" transform="matrix(.07306413 -.99732724 .99732724 .07306413 -523.8 501.84)"/><circle cx="70.23" cy="328.3" fill="#f6fbfd" r="2.88" transform="matrix(.07306413 -.99732724 .99732724 .07306413 -262.33 374.35)"/><circle cx="116.15" cy="903.76" fill="none" r="66.13" stroke="#53b7d6" stroke-dasharray="8.31 8.31" stroke-miterlimit="10" stroke-width=".41" transform="matrix(.91118768 -.41199151 .41199151 .91118768 -362.07 128.15)"/><circle cx="391.83" cy="538.92" fill="#fff" r="3.42" transform="matrix(.91118768 -.41199151 .41199151 .91118768 -187.25 209.33)"/><circle cx="162.7" cy="584.3" fill="#fff" r="3.42" transform="matrix(.91118768 -.41199151 .41199151 .91118768 -226.31 118.95)"/><circle cx="120.69" cy="303.03" fill="#fff" r="3.42" transform="matrix(.91118768 -.41199151 .41199151 .91118768 -114.14 76.65)"/><circle cx="428.4" cy="671.83" fill="#fff" r="15" transform="matrix(.91118768 -.41199151 .41199151 .91118768 -238.77 236.21)"/><circle cx="308.21" cy="814.73" fill="#fff" r="3.42" transform="matrix(.91118768 -.41199151 .41199151 .91118768 -308.33 199.38)"/><circle cx="482.74" cy="753.54" fill="#fff" r="3.42" transform="matrix(.91118768 -.41199151 .41199151 .91118768 -267.61 265.86)"/><circle cx="381.15" cy="755.88" fill="#fff" r="3.42" transform="matrix(.91118768 -.41199151 .41199151 .91118768 -277.6 224.2)"/><circle cx="278.37" cy="795.39" fill="#fff" r="8.06" transform="matrix(.352985 -.93562898 .93562898 .352985 -564.08 775.13)"/><circle cx="372.09" cy="738.75" fill="#fff" r="3.42" transform="matrix(.91118768 -.41199151 .41199151 .91118768 -271.35 218.95)"/><circle cx="359.69" cy="753.48" fill="#98d4e6" r="3.42" transform="matrix(.91118768 -.41199151 .41199151 .91118768 -278.51 215.15)"/><circle cx="92.82" cy="669.57" fill="#98d4e6" r="3.42" transform="matrix(.07306413 -.99732724 .99732724 .07306413 -581.74 713.19)"/><circle cx="495.96" cy="850.05" fill="#98d4e6" r="3.42" transform="matrix(.91118768 -.41199151 .41199151 .91118768 -306.21 279.88)"/><circle cx="474.73" cy="840.97" fill="#98d4e6" r="3.42" transform="matrix(.91118768 -.41199151 .41199151 .91118768 -304.35 270.33)"/><circle cx="488.92" cy="900.46" fill="#98d4e6" r="3.42" transform="matrix(.91118768 -.41199151 .41199151 .91118768 -327.6 281.46)"/><circle cx="197.73" cy="578.87" fill="#fff" r="2.02" transform="matrix(.07 -1 1 .07 -394.04 733.75)"/><circle cx="564.69" cy="835.21" fill="#a7daea" r="1.15" transform="matrix(.91118768 -.41199151 .41199151 .91118768 -293.99 306.89)"/><circle cx="560.3" cy="836.24" fill="#a7daea" r="1.15" transform="matrix(.91118768 -.41199151 .41199151 .91118768 -294.78 305.14)"/><circle cx="550.21" cy="838.73" fill="#a7daea" r="1.15" transform="matrix(.91118768 -.41199151 .41199151 .91118768 -296.7 301.2)"/><circle cx="238.72" cy="498" fill="#fff" r="2.02" transform="matrix(.07306413 -.99732724 .99732724 .07306413 -275.41 699.67)"/><circle cx="261.64" cy="475.46" fill="#98d4e6" r="2.02" transform="matrix(.07306413 -.99732724 .99732724 .07306413 -231.68 701.64)"/><g fill="#fff"><circle cx="506.98" cy="667.63" r="3.42" transform="matrix(.91118768 -.41199151 .41199151 .91118768 -230.06 268.21)"/><circle cx="539.16" cy="752.11" r="3.42" transform="matrix(.91118768 -.41199151 .41199151 .91118768 -262.01 288.98)"/><circle cx="537.14" cy="647.67" r="3.42" transform="matrix(.91118768 -.41199151 .41199151 .91118768 -219.15 278.87)"/><circle cx="594.83" cy="672.84" r="3.42" transform="matrix(.91118768 -.41199151 .41199151 .91118768 -224.4 304.87)"/><circle cx="430.68" cy="534.47" r="3.42" transform="matrix(.91118768 -.41199151 .41199151 .91118768 -181.97 224.94)"/><circle cx="281.16" cy="566.71" r="11.52" transform="matrix(.91118768 -.41199151 .41199151 .91118768 -208.53 166.2)"/><circle cx="431.47" cy="486.36" r="3.42" transform="matrix(.91118768 -.41199151 .41199151 .91118768 -162.07 220.99)"/><circle cx="64.41" cy="444.21" r="3.42" transform="matrix(.91118768 -.41199151 .41199151 .91118768 -177.31 66)"/><circle cx="2.42" cy="421.2" r="3.42" transform="matrix(.91118768 -.41199151 .41199151 .91118768 -173.34 38.41)"/><circle cx="553.76" cy="550.68" r="3.42" transform="matrix(.91118768 -.41199151 .41199151 .91118768 -177.71 277.1)"/><circle cx="411.46" cy="474.55" r="3.42" transform="matrix(.91118768 -.41199151 .41199151 .91118768 -158.98 211.7)"/><circle cx="578.63" cy="523.93" r="3.42" transform="matrix(.91118768 -.41199151 .41199151 .91118768 -164.48 284.97)"/><circle cx="488.15" cy="514.48" r="3.42" transform="matrix(.91118768 -.41199151 .41199151 .91118768 -168.63 246.85)"/></g><circle cx="488.15" cy="514.48" fill="#9fd7e8" r="2.18" transform="matrix(.91118768 -.41199151 .41199151 .91118768 -168.62 246.85)"/><circle cx="488.15" cy="514.48" fill="#fff" r=".97" transform="matrix(.91118768 -.41199151 .41199151 .91118768 -168.62 246.83)"/><circle cx="20.03" cy="354.73" fill="#fff" r="4.82" transform="matrix(.07306413 -.99732724 .99732724 .07306413 -335.22 348.78)"/><circle cx="20.03" cy="354.73" fill="#ddf1f7" r="2.13" transform="matrix(.07306413 -.99732724 .99732724 .07306413 -335.22 348.77)"/></g></svg>