<svg height="586" viewBox="0 0 2997 586" width="2997" xmlns="http://www.w3.org/2000/svg"><g fill="#fff"><path d="m158.245369 5.9151619v238.0852671h-45.236201v-7.142558s-23.8085265 11.224019-41.1547388 11.224019c-51.3583932 0-66.32375282-29.930719-66.32375282-89.792157 0-62.2422916 24.14864852-88.4316709 70.40521452-88.4316709 12.584507 0 36.7331551 4.7617053 36.7331551 4.7617053v-68.7046055zm-78.5681381 201.3521111c15.985725 0 32.9918151-5.101827 32.9918151-5.101827v-89.452036s-18.7066991-3.401218-33.331937-3.401218c-17.0060904 0-27.5498665 14.625238-27.5498665 48.977541 0 34.692424 6.4623144 48.97754 27.8899884 48.97754zm251.0098951-80.268747v70.745336c.680244 10.203655 2.040731 14.285116 11.22402 15.985726l-1.360487 34.352302c-22.788161 0-34.352303-2.380852-48.637419-11.904263 0 0-24.48877 11.904263-49.997906 11.904263-35.71279 0-52.71888-19.727065-52.71888-55.779976 0-38.433765 22.107917-49.317663 59.521316-52.038637l36.393034-2.720975v-10.543776c0-14.625238-6.462315-18.366578-20.067187-18.366578-22.448039 0-63.9429 2.720975-63.9429 2.720975l-1.360487-31.6313284s36.393033-9.8635325 69.044727-9.8635325c44.215835 0 61.902169 17.3462123 61.902169 57.1404639zm-45.576322 42.175104-30.951085 2.720975c-11.904263 1.020365-19.046821 6.802436-19.046821 19.046821 0 11.904264 4.421583 20.067187 16.665968 20.067187 14.625238 0 33.331938-5.441949 33.331938-5.441949zm183.325655-56.46022h-41.834982v69.724971c0 17.006091 0 24.828892 14.285116 24.828892 9.52341 0 25.849257-.680243 25.849257-.680243l2.040731 36.393033s-22.788161 5.101827-34.692425 5.101827c-41.154739 0-53.059002-15.645603-53.059002-64.623144v-70.745336h-20.067187v-38.7738862h20.067187v-47.2769315h45.576323v47.2769315h41.834982zm159.857251 14.285116v70.745336c.680243 10.203655 2.04073 14.285116 11.224019 15.985726l-1.360487 34.352302c-22.788161 0-34.352303-2.380852-48.637419-11.904263 0 0-24.48877 11.904263-49.997906 11.904263-35.71279 0-52.71888-19.727065-52.71888-55.779976 0-38.433765 22.107917-49.317663 59.521316-52.038637l36.393034-2.720975v-10.543776c0-14.625238-6.462314-18.366578-20.067187-18.366578-22.448039 0-63.9429 2.720975-63.9429 2.720975l-1.360487-31.6313284s36.393034-9.8635325 69.044727-9.8635325c44.215835 0 61.90217 17.3462123 61.90217 57.1404639zm-45.576323 42.175104-30.951085 2.720975c-11.904263 1.020365-19.046821 6.802436-19.046821 19.046821 0 11.904264 4.421584 20.067187 16.665969 20.067187 14.625238 0 33.331937-5.441949 33.331937-5.441949zm171.421392-99.3155679c46.256566 0 68.704606 21.427674 68.704606 86.7310619 0 73.126189-24.828892 91.492766-84.690331 91.492766-16.325847 0-66.323753-4.761705-66.323753-4.761705v-237.4050231h45.576323v73.126189s21.767795-9.1832888 36.733155-9.1832888zm-15.985725 137.4092109c31.291207 0 38.433765-13.944994 38.433765-50.678149 0-34.352303-10.883898-45.916445-28.570232-45.916445-13.604873 0-30.610963 4.421584-30.610963 4.421584v90.812523s15.645603 1.360487 20.74743 1.360487zm118.702512 36.733156v-170.0609052h45.2362v18.0264559s28.570232-17.0060905 54.41949-22.1079176v45.9164439c-29.930719 5.782071-54.079368 14.285116-54.079368 14.285116v113.940807zm195.910164-174.1423669c59.18119 0 78.22801 36.3930339 78.22801 88.7717919 0 52.378759-19.04682 89.452036-78.22801 89.452036-59.181197 0-78.228018-37.073277-78.228018-89.452036 0-52.378758 19.046821-88.7717919 78.228018-88.7717919zm0 139.4499419c25.16901 0 31.97145-17.686334 31.97145-50.67815 0-32.991815-6.80244-49.997906-31.97145-49.997906-25.16902 0-31.97145 17.006091-31.97145 49.997906 0 32.991816 6.80243 50.67815 31.97145 50.67815zm157.13627 34.692425h-45.57632v-238.0852671h45.57632v135.3684801l17.34622-3.061096 33.67206-64.2830222h51.01827l-44.21584 80.6088692 46.59669 89.452036h-51.35839l-34.35231-66.323753-18.7067 3.061096zm201.35212-36.052912c27.88998 0 62.92253-3.061097 62.92253-3.061097l.68024 33.67206s-39.114 9.52341-70.74533 9.52341c-51.3584 0-73.12619-25.509135-73.12619-86.731061 0-60.541682 25.50913-91.4927669 75.16692-91.4927669 49.9979 0 74.14655 25.5091357 74.14655 76.8675289l-3.40122 31.631328h-99.99581c.34012 20.407309 9.86353 29.590598 34.35231 29.590598zm-34.69243-64.283022h58.84107c0-27.549867-7.8228-36.393034-29.25047-36.393034-21.7678 0-29.25048 10.543776-29.5906 36.393034zm136.38885 100.335934v-170.0609052h45.2362v18.0264559s28.57023-17.0060905 54.41949-22.1079176v45.9164439c-29.93072 5.782071-54.07937 14.285116-54.07937 14.285116v113.940807zm345.90388-238.0852671v238.0852671h-45.2362v-7.142558s-23.80853 11.224019-41.15474 11.224019c-51.3584 0-66.32376-29.930719-66.32376-89.792157 0-62.2422916 24.14865-88.4316709 70.40522-88.4316709 12.58451 0 36.73315 4.7617053 36.73315 4.7617053v-68.7046055zm-78.56814 201.3521111c15.98572 0 32.99181-5.101827 32.99181-5.101827v-89.452036s-18.7067-3.401218-33.33193-3.401218c-17.00609 0-27.54987 14.625238-27.54987 48.977541 0 34.692424 6.46231 48.97754 27.88999 48.97754zm251.00989-80.268747v70.745336c.68025 10.203655 2.04073 14.285116 11.22402 15.985726l-1.36048 34.352302c-22.78816 0-34.35231-2.380852-48.63742-11.904263 0 0-24.48877 11.904263-49.99791 11.904263-35.71279 0-52.71888-19.727065-52.71888-55.779976 0-38.433765 22.10792-49.317663 59.52132-52.038637l36.39303-2.720975v-10.543776c0-14.625238-6.46231-18.366578-20.06719-18.366578-22.44803 0-63.9429 2.720975-63.9429 2.720975l-1.36048-31.6313284s36.39303-9.8635325 69.04472-9.8635325c44.21584 0 61.90217 17.3462123 61.90217 57.1404639zm-45.57632 42.175104-30.95108 2.720975c-11.90427 1.020365-19.04682 6.802436-19.04682 19.046821 0 11.904264 4.42158 20.067187 16.66596 20.067187 14.62524 0 33.33194-5.441949 33.33194-5.441949zm158.49676-99.3155679c59.1812 0 78.22802 36.3930339 78.22802 88.7717919 0 52.378759-19.04682 89.452036-78.22802 89.452036-59.18119 0-78.22801-37.073277-78.22801-89.452036 0-52.378758 19.04682-88.7717919 78.22801-88.7717919zm0 139.4499419c25.16902 0 31.97145-17.686334 31.97145-50.67815 0-32.991815-6.80243-49.997906-31.97145-49.997906-25.16901 0-31.97145 17.006091-31.97145 49.997906 0 32.991816 6.80244 50.67815 31.97145 50.67815z" transform="translate(770.525108 166.708653)"/><g transform="translate(.031166 .919309)"><path d="m574.120302 206.898767-70.26787-122.0227584c8.715912-8.9899035 14.092081-21.2380915 14.092081-34.7155415 0-27.532505-22.400706-49.94061694-49.940617-49.94061694-27.53991 0-49.940617 22.40070674-49.940617 49.94061694s22.400707 49.9406169 49.940617 49.9406169c3.324932 0 6.568406-.3332337 9.708207-.9552698l70.608509 122.6077688c2.754732 4.783754 7.760642 7.464434 12.90725 7.464434 2.525171 0 5.079962-.644252 7.420003-1.991997 7.1312-4.102476 9.574914-13.203458 5.472437-20.327253zm-126.288149-156.7382999c0-11.1225989 9.05655-20.1717439 20.179149-20.1717439 11.122598 0 20.179149 9.049145 20.179149 20.1717439 0 11.1225988-9.056551 20.179149-20.179149 20.179149-11.122599 0-20.179149-9.0565502-20.179149-20.179149z"/><path d="m521.802618 462.155746 73.118869-120.334375c12.070464 3.310121 25.392405 2.132696 37.211092-4.361658 24.133521-13.255294 32.982726-43.668419 19.727432-67.809346-13.2627-24.133522-43.675824-32.982727-67.809346-19.720027-24.133522 13.255294-32.982727 43.668419-19.727432 67.801941 1.599521 2.917645 3.450819 5.598325 5.509463 8.056849l-73.466913 120.919385c-2.86581 4.717108-2.799163 10.39689-.325829 14.914057 1.214452 2.199342 3.006509 4.132098 5.309523 5.539084 7.027528 4.257986 16.187751 2.021618 20.453141-5.00591zm76.569689-186.144319c9.752638-5.353954 22.037852-1.777246 27.399211 7.975392 5.353954 9.752639 1.777247 22.037853-7.967986 27.391807-9.745234 5.353954-22.037853 1.777246-27.391807-7.967987-5.353954-9.752639-1.784651-22.037853 7.960582-27.399212z"/><path d="m81.9564111 377.129328 70.2678699 122.030164c-8.708506 8.989904-14.092081 21.230686-14.092081 34.715542 0 27.53991 22.400707 49.940617 49.940617 49.940617s49.940617-22.400707 49.940617-49.940617c0-27.532505-22.400707-49.940617-49.940617-49.940617-3.324931 0-6.568406.340639-9.708207.962675l-70.615914-122.615174c-2.754732-4.783755-7.7606416-7.449624-12.9072503-7.449624-2.5177654 0-5.0799619.636847-7.4125975 1.984592-7.123795 4.095071-9.5749136 13.196052-5.4724371 20.312442zm126.2881499 156.7383c0 11.122599-9.056551 20.179149-20.179149 20.179149-11.115194 0-20.171744-9.049145-20.171744-20.179149 0-11.115193 9.05655-20.164338 20.171744-20.164338 11.130004 0 20.179149 9.049145 20.179149 20.164338z"/><path d="m136.258686 121.872349-73.1188685 120.334375c-12.0778687-3.310121-25.3998096-2.132695-37.2184966 4.361659-24.13352168 13.262699-32.98272649 43.683229-19.72002707 67.816751 13.25529427 24.133521 43.66841907 32.982726 67.80934597 19.727432 24.1409269-13.262699 32.9901312-43.675824 19.7274323-67.816751-1.5995216-2.910241-3.4508196-5.598326-5.5168683-8.049444l73.4669132-120.919385c2.865809-4.717108 2.799162-10.39689.325828-14.906652-1.214451-2.206748-3.006508-4.146908-5.316928-5.546489-7.012717-4.257986-16.165535-2.021618-20.438331 4.998504zm-76.5770933 186.151725c-9.7452331 5.353954-22.0378523 1.784651-27.3918064-7.967987-5.353954-9.745233-1.7772461-22.037853 7.9679869-27.391807 9.7526383-5.361359 22.0452575-1.777246 27.3992116 7.967987 5.353954 9.752638 1.7846513 22.037852-7.9753921 27.391807z"/><path d="m375.624122 37.8826582-140.809731-.1481038c-3.428604-12.0408427-11.344755-22.8228027-23.022743-29.5615277-23.844719-13.7588473-54.450379-5.56129942-68.216632 18.2834198-13.758847 23.8521244-5.553894 54.4577842 18.290825 68.2166315 23.844719 13.758847 54.450379 5.553894 68.209227-18.2834198 1.666168-2.8806198 2.991697-5.8649123 4.035829-8.8936359l141.483605.1481038c5.524273 0 10.337648-2.9916977 12.914655-7.4570286 1.258883-2.1771266 1.984592-4.7171075 1.984592-7.4200027.007405-8.2049531-6.649863-14.8770314-14.869627-14.8844366zm-198.888655 31.0129454c-9.62675-5.5538942-12.944276-17.9131602-7.382976-27.5473154 5.553894-9.6415604 17.91316-12.9516813 27.547315-7.3903819s12.951681 17.9205654 7.390382 27.5473154c-5.553894 9.6415604-17.920565 12.9516813-27.554721 7.3903819z"/><path d="m263.694641 535.489366c0 2.702895.725709 5.235471 1.984591 7.420002 2.577007 4.457926 7.397787 7.457029 12.922061 7.449624l141.483604-.140699c1.036727 3.036129 2.362256 6.013016 4.028425 8.893636 13.758847 23.844719 44.364507 32.049672 68.216631 18.28342 23.844719-13.758847 32.049672-44.364507 18.28342-68.209227-13.758847-23.852124-44.371912-32.057077-68.216632-18.283419-11.670583 6.738725-19.594138 17.513279-23.015337 29.554122l-140.809732.140699c-8.227169 0-14.884437 6.672078-14.877031 14.891842zm186.18875 8.730721c-5.553894-9.62675-2.243773-21.993421 7.390382-27.55472 9.62675-5.5613 21.993421-2.251179 27.562125 7.382976 5.553895 9.634156 2.243774 22.000827-7.390381 27.554721-9.634156 5.568705-22.000827 2.251178-27.562126-7.382977z"/><path d="m54.6281036 104.516884c-26.9549 0-48.88907956-21.9341794-48.88907956-48.8890794s21.93417956-48.8890796 48.88907956-48.8890796c26.9623052 0 48.8890794 21.9341796 48.8890794 48.8890796s-21.9267742 48.8890794-48.8890794 48.8890794zm0-70.0012827c-11.6409623 0-21.1122032 9.471241-21.1122032 21.1122033s9.4712409 21.1122033 21.1122032 21.1122033 21.1122033-9.471241 21.1122033-21.1122033-9.471241-21.1122033-21.1122033-21.1122033z" transform="translate(272.018077 236.423269)"/><path d="m18.9646975 121.356291c-7.6791844 0-13.89214077-6.220361-13.89214077-13.89214 0-55.9092022 45.48269117-101.39189331 101.39189327-101.39189331 7.679184 0 13.892141 6.21295631 13.892141 13.89214081 0 7.664374-6.212957 13.8847355-13.892141 13.8847355-40.5878593 0-73.6150169 33.0197525-73.6150169 73.615017 0 7.671779-6.2203616 13.89214-13.8847356 13.89214z" transform="translate(220.181731 184.586923)"/><path d="m17.6021421 119.993736c-7.67177922 0-13.88473556-6.212956-13.88473556-13.884735 0-7.6643745 6.22036153-13.884736 13.88473556-13.884736 40.587859 0 73.6076115-33.0271577 73.6076115-73.6150167 0-7.6717793 6.2203616-13.88473561 13.8921404-13.88473561 7.67178 0 13.884736 6.22036151 13.884736 13.88473561.007405 55.9017967-45.475286 101.3844877-101.3844879 101.3844877z" transform="translate(309.044038 273.449231)"/><path d="m20.7493488 165.787445c-7.664374 0-13.88473553-6.220361-13.88473553-13.89214 0-83.5009489 67.94263943-151.44358827 151.45099273-151.44358827 7.67178 0 13.892141 6.22036154 13.892141 13.88473557 0 7.6791844-6.220361 13.8921408-13.892141 13.8921408-68.1870105 0-123.6667112 55.4722955-123.6667112 123.6593059-.0074052 7.679185-6.2203615 13.899546-13.899546 13.899546z" transform="translate(168.345385 140.155769)"/><path d="m17.6095473 170.045431c-7.67918442 0-13.88473557-6.220362-13.88473557-13.892141s6.21295634-13.892141 13.88473557-13.892141c68.1870107 0 123.6593067-55.4797004 123.6593067-123.6667111 0-7.6717792 6.220361-13.88473559 13.89214-13.88473559 7.664374 0 13.884736 6.22036149 13.884736 13.88473559 0 83.5157591-67.935234 151.4509931-151.4361827 151.4509931z" transform="translate(309.044038 273.449231)"/></g></g></svg>