<svg xmlns="http://www.w3.org/2000/svg" xmlns:xlink="http://www.w3.org/1999/xlink" viewBox="0 0 2992.78 583.73"><defs><style>.cls-1{fill:url(#Naamloos_verloop);}</style><linearGradient id="Naamloos_verloop" y1="291.81" x2="2992.78" y2="291.81" gradientTransform="matrix(1, 0, 0, -1, 0, 583.68)" gradientUnits="userSpaceOnUse"><stop offset="0" stop-color="#ee274c"/><stop offset="0.67" stop-color="#7e347e"/><stop offset="1" stop-color="#2e3192"/></linearGradient></defs><title>Asset 1</title><g id="Layer_2" data-name="Layer 2"><g id="Laag_1" data-name="Laag 1"><g id="Layer_1-2" data-name="Layer 1"><path class="cls-1" d="M928.58,171.4V409.5h-45.2v-7.1s-23.8,11.2-41.2,11.2c-51.4,0-66.3-29.9-66.3-89.8,0-62.2,24.1-88.4,70.4-88.4,12.6,0,36.7,4.8,36.7,4.8V171.5C883.08,171.4,928.58,171.4,928.58,171.4Zm-78.5,201.4c16,0,33-5.1,33-5.1V278.2s-18.7-3.4-33.3-3.4c-17,0-27.5,14.6-27.5,49-.1,34.7,6.3,49,27.8,49Zm251-80.3v70.7c.7,10.2,2,14.3,11.2,16l-1.4,34.4c-22.8,0-34.4-2.4-48.6-11.9,0,0-24.5,11.9-50,11.9-35.7,0-52.7-19.7-52.7-55.8,0-38.4,22.1-49.3,59.5-52l36.4-2.7V292.6c0-14.6-6.5-18.4-20.1-18.4-22.4,0-63.9,2.7-63.9,2.7l-1.4-31.6s36.4-9.9,69-9.9C1083.38,235.4,1101.08,252.7,1101.08,292.5Zm-45.6,42.2-31,2.7c-11.9,1-19,6.8-19,19,0,11.9,4.4,20.1,16.7,20.1,14.6,0,33.3-5.4,33.3-5.4Zm183.3-56.5H1197v69.7c0,17,0,24.8,14.3,24.8,9.5,0,25.8-.7,25.8-.7l2,36.4s-22.8,5.1-34.7,5.1c-41.2,0-53.1-15.6-53.1-64.6V278.2h-20.1V239.4h20.1V192.2h45.6v47.3h41.8v38.7Zm159.9,14.3v70.7c.7,10.2,2,14.3,11.2,16l-1.4,34.4c-22.8,0-34.4-2.4-48.6-11.9,0,0-24.5,11.9-50,11.9-35.7,0-52.7-19.7-52.7-55.8,0-38.4,22.1-49.3,59.5-52l36.4-2.7V292.6c0-14.6-6.5-18.4-20.1-18.4-22.4,0-63.9,2.7-63.9,2.7l-1.4-31.6s36.4-9.9,69-9.9C1381,235.4,1398.68,252.7,1398.68,292.5Zm-45.6,42.2-31,2.7c-11.9,1-19,6.8-19,19,0,11.9,4.4,20.1,16.7,20.1,14.6,0,33.3-5.4,33.3-5.4V334.7Zm171.4-99.3c46.3,0,68.7,21.4,68.7,86.7,0,73.1-24.8,91.5-84.7,91.5-16.3,0-66.3-4.8-66.3-4.8V171.4h45.6v73.1c0,.1,21.8-9.1,36.7-9.1Zm-16,137.4c31.3,0,38.4-13.9,38.4-50.7,0-34.4-10.9-45.9-28.6-45.9-13.6,0-30.6,4.4-30.6,4.4v90.8c.1,0,15.7,1.4,20.8,1.4Zm118.8,36.7v-170h45.2v18s28.6-17,54.4-22.1v45.9a428.67,428.67,0,0,0-54.1,14.3V409.5Zm195.9-174.1c59.2,0,78.2,36.4,78.2,88.8s-19,89.5-78.2,89.5-78.2-37.1-78.2-89.5,19-88.8,78.2-88.8Zm0,139.4c25.2,0,32-17.7,32-50.7s-6.8-50-32-50-32,17-32,50S1798,374.8,1823.18,374.8Zm157.1,34.7h-45.6V171.4h45.6V306.8l17.3-3.1,33.7-64.3h51l-44.2,80.6,46.6,89.5h-51.4l-34.4-66.3-18.7,3.1v63.2Zm201.3-36c27.9,0,62.9-3.1,62.9-3.1l.7,33.7s-39.1,9.5-70.7,9.5c-51.4,0-73.1-25.5-73.1-86.7,0-60.5,25.5-91.5,75.2-91.5,50,0,74.1,25.5,74.1,76.9l-3.4,31.6h-100c.3,20.4,9.9,29.6,34.3,29.6ZM2147,309.2h58.8c0-27.5-7.8-36.4-29.3-36.4C2154.78,272.8,2147.28,283.3,2147,309.2Zm136.3,100.3v-170h45.2v18s28.6-17,54.4-22.1v45.9a428.67,428.67,0,0,0-54.1,14.3V409.5Zm345.9-238.1V409.5H2584v-7.1s-23.8,11.2-41.2,11.2c-51.4,0-66.3-29.9-66.3-89.8,0-62.2,24.1-88.4,70.4-88.4,12.6,0,36.7,4.8,36.7,4.8V171.5l45.6-.1Zm-78.5,201.4c16,0,33-5.1,33-5.1V278.2s-18.7-3.4-33.3-3.4c-17,0-27.5,14.6-27.5,49-.1,34.7,6.4,49,27.8,49Zm251-80.3v70.7c.7,10.2,2,14.3,11.2,16l-1.4,34.4c-22.8,0-34.4-2.4-48.6-11.9,0,0-24.5,11.9-50,11.9-35.7,0-52.7-19.7-52.7-55.8,0-38.4,22.1-49.3,59.5-52l36.4-2.7V292.6c0-14.6-6.5-18.4-20.1-18.4-22.4,0-63.9,2.7-63.9,2.7l-1.4-31.6s36.4-9.9,69-9.9c44.3,0,62,17.3,62,57.1Zm-45.6,42.2-31,2.7c-11.9,1-19,6.8-19,19,0,11.9,4.4,20.1,16.7,20.1,14.6,0,33.3-5.4,33.3-5.4Zm158.5-99.3c59.2,0,78.2,36.4,78.2,88.8s-19,89.5-78.2,89.5-78.2-37.1-78.2-89.5,19-88.8,78.2-88.8Zm0,139.4c25.2,0,32-17.7,32-50.7s-6.8-50-32-50-32,17-32,50S2889.38,374.8,2914.58,374.8ZM574,206.6l-70.3-122a49.86,49.86,0,1,0-35.8,15.2,44.35,44.35,0,0,0,9.7-1l70.6,122.6a15,15,0,0,0,12.9,7.5,14.21,14.21,0,0,0,7.4-2A14.8,14.8,0,0,0,574,206.6ZM447.68,49.9a20.2,20.2,0,1,1,20.2,20.2A20.27,20.27,0,0,1,447.68,49.9Zm74,412,73.1-120.3a49.91,49.91,0,1,0-30.6-24.1,57.61,57.61,0,0,0,5.5,8.1l-73.5,120.9a14.83,14.83,0,0,0,5,20.4A15,15,0,0,0,521.68,461.9Zm76.6-186.2a20.18,20.18,0,1,1-8,27.4A20.13,20.13,0,0,1,598.28,275.7ZM81.88,376.9l70.3,122A49.86,49.86,0,1,0,188,483.7a44.35,44.35,0,0,0-9.7,1l-70.6-122.6a14.88,14.88,0,0,0-12.9-7.4,14.21,14.21,0,0,0-7.4,2A14.62,14.62,0,0,0,81.88,376.9Zm126.2,156.7a20.2,20.2,0,1,1-20.2-20.2A20.27,20.27,0,0,1,208.08,533.6Zm-71.9-412L63.08,241.9A49.91,49.91,0,1,0,93.68,266a51.37,51.37,0,0,0-5.5-8l73.5-120.9a14.92,14.92,0,0,0-25.5-15.5ZM59.58,307.7a20.18,20.18,0,1,1,8-27.4A20.16,20.16,0,0,1,59.58,307.7ZM375.48,37.6l-140.8-.1A49.86,49.86,0,1,0,230,76.1a46.82,46.82,0,0,0,4-8.9l141.5.1a14.88,14.88,0,0,0,12.9-7.5,14.39,14.39,0,0,0,2-7.4A14.92,14.92,0,0,0,375.48,37.6Zm-198.9,31a20.14,20.14,0,1,1,27.5-7.4A20,20,0,0,1,176.58,68.6Zm87,466.6a14.39,14.39,0,0,0,2,7.4,14.59,14.59,0,0,0,12.9,7.4l141.5-.1a54.05,54.05,0,0,0,4,8.9,49.93,49.93,0,1,0,18.3-68.2,49.31,49.31,0,0,0-23,29.6l-140.8.1A14.87,14.87,0,0,0,263.58,535.2Zm186.2,8.7a20.21,20.21,0,1,1,27.6,7.4A20.26,20.26,0,0,1,449.78,543.9ZM326.48,340.7a48.9,48.9,0,1,1,48.9-48.9A48.91,48.91,0,0,1,326.48,340.7Zm0-70a21.1,21.1,0,1,0,21.1,21.1A21.17,21.17,0,0,0,326.48,270.7Zm-87.5,35a13.87,13.87,0,0,1-13.9-13.9,101.53,101.53,0,0,1,101.4-101.4,13.9,13.9,0,0,1,0,27.8,73.66,73.66,0,0,0-73.6,73.6A13.93,13.93,0,0,1,239,305.7Zm87.5,87.5a13.9,13.9,0,0,1,0-27.8,73.66,73.66,0,0,0,73.6-73.6,13.9,13.9,0,1,1,27.8,0A101.47,101.47,0,0,1,326.48,393.2ZM189,305.7a13.87,13.87,0,0,1-13.9-13.9c0-83.5,67.9-151.4,151.5-151.4a13.9,13.9,0,1,1,0,27.8,123.85,123.85,0,0,0-123.7,123.7A13.91,13.91,0,0,1,189,305.7Zm137.6,137.5a13.9,13.9,0,1,1,0-27.8,123.85,123.85,0,0,0,123.7-123.7,13.9,13.9,0,1,1,27.8,0C478,375.3,410.08,443.2,326.58,443.2Z"/></g></g></g></svg>