<svg viewBox="0 0 125 125" xmlns="http://www.w3.org/2000/svg"><path d="m4 4h117v117h-117z" fill="#3b4c85" stroke="#5467a6" stroke-miterlimit="10" stroke-width="8"/><path d="m21.6 107.9h-3.1v-13.8h3.1zm7.8 0c-.9 0-1.8-.2-2.6-.5s-1.6-.8-2.2-1.5a7.8 7.8 0 0 1 -1.5-2.2c-.3-.8-.5-1.7-.5-2.6s.2-1.8.5-2.7c.3-.8.8-1.6 1.5-2.2.7-.7 1.4-1.2 2.3-1.5s1.7-.5 2.6-.5 1.8.2 2.6.5 1.6.8 2.2 1.5l-2.3 2.2c-.4-.4-.8-.6-1.3-.8-.4-.2-.9-.2-1.4-.2l-1.4.2c-.4.2-.9.4-1.2.8l-.8 1.2c-.2.4-.3.9-.3 1.4s.1 1 .3 1.4.4.9.8 1.2c.4.4.8.6 1.2.8s.9.2 1.4.2l1.4-.2c.4-.2.9-.4 1.3-.8l2.2 2.2c-.7.7-1.4 1.2-2.2 1.5-.8.4-1.7.6-2.6.6z" fill="#fff"/><path d="m64.6 95.1c1.3 0 2.4.4 3.3 1.2a5 5 0 0 1 1.3 3.6v6.3h-1.1v-6.3c0-1.2-.4-2.1-.9-2.8-.6-.6-1.5-.9-2.7-.9-.7 0-1.3.2-2 .4-.6.3-1.2.8-1.7 1.6.2.5.2 1.1.2 1.8v6.2h-1.1v-6.2c0-2.5-1.2-3.8-3.7-3.8a4 4 0 0 0 -3.4 1.8v8.3h-1.1v-10.8h.9l.2 1.1a5 5 0 0 1 3.6-1.5c1.8 0 3.1.7 4 2.2.6-.7 1.3-1.3 1.9-1.6a4 4 0 0 1 2.3-.6zm6.3 8.1c0-.7.1-1.3.3-1.8s.6-.9 1.1-1.2c.4-.3 1-.5 1.5-.7.6-.2 1.2-.2 1.8-.2.9 0 1.7.2 2.4.6s1.3.7 1.7 1.3v-.4c0-1.5-.3-2.6-.9-3.4-.6-.7-1.5-1.1-2.8-1.1-.7 0-1.5.2-2.2.4-.7.3-1.3.7-1.7 1.2l-.6-.9c.5-.6 1.2-1 2-1.3s1.6-.4 2.5-.4c1.6 0 2.8.4 3.6 1.3s1.2 2.2 1.2 4v5.7h-.9l-.2-1.1c-.4.4-1 .7-1.8 1s-1.5.4-2.2.4a6 6 0 0 1 -3.4-.8 3.6 3.6 0 0 1 -1.4-2.6zm8.8 1v-1.7c-.2-.5-.8-1-1.5-1.5a5.7 5.7 0 0 0 -5-.2 2 2 0 0 0 -.9.9c-.2.4-.3.9-.2 1.4 0 .8.4 1.4 1.1 1.8s1.5.6 2.5.7c.7 0 1.5-.1 2.2-.4a4 4 0 0 0 1.8-1zm8.5-9-.2 1.1h-.4c-1.7 0-2.9.6-3.7 1.7v8.2h-1.1v-10.7h.9l.2 1.1c1-1 2.3-1.5 3.8-1.5zm2.8-5v16.1h-1.1v-16.1zm7.3 5.3-5.2 5.3 5.4 5.3h-1.6l-5.3-5.3 5.2-5.3zm9.6.7-.5.9c-.3-.3-.8-.5-1.5-.8-.7-.2-1.3-.4-2-.4s-1.3.2-1.8.4c-.4.3-.7.7-.7 1.3 0 .7.2 1.1.8 1.5.5.3 1.2.5 2 .7 1.1.2 2 .4 2.6.7.7.3 1.1.7 1.4 1.3.2.6.3 1.2.2 2-.2.9-.7 1.6-1.7 2-.7.3-1.5.4-2.5.4-.8 0-1.7-.2-2.5-.4-.8-.3-1.5-.7-2-1.1l.5-.9.1.1c.3.3.9.7 1.6.9.7.3 1.5.4 2.2.4.9 0 1.6-.1 2.1-.4s.9-.7 1-1.3c.2-.9-.1-1.6-1-2l-2.2-.7c-1.1-.2-2-.5-2.5-.8-1-.6-1.4-1.4-1.3-2.4s.5-1.7 1.3-2.2c.6-.4 1.4-.6 2.4-.6 1.5.2 2.8.6 4 1.4z" fill="#fff"/><path d="m41.3 94a7 7 0 0 0 0 13.8 7 7 0 0 0 0-13.8zm3.3 7.8.6 3.5v.1l-.1.2-.2.1-.3-.1-3.1-1.6-3.1 1.7-.3.1-.2-.1-.1-.2v-.1l.6-3.6-2.6-2.5-.2-.3c0-.2.1-.3.4-.3l3.6-.5 1.6-3.2.3-.3.3.3 1.6 3.2 3.6.5c.2 0 .4.2.4.3s0 .2-.2.3z" fill="#fff"/><path d="m63 17.6a33.5 33.5 0 0 1 0 66.8 33.5 33.5 0 0 1 0-66.8m0-1.5a34.9 34.9 0 1 0 0 69.7 34.9 34.9 0 0 0 0-69.7z" fill="#5467a6"/><g fill="#fff"><path d="m47.3 37c2.7 0 4.8.5 6.3 1.6a5.3 5.3 0 0 1 2.2 4.6 6 6 0 0 1 -1.1 3.5c-.7 1-1.8 1.9-3.3 2.7 1.9 1.1 3.2 2.1 4 3.2a5.6 5.6 0 0 1 1.2 3.4c0 2.3-.8 4-2.5 5.3a11.3 11.3 0 0 1 -6.9 1.9c-3 0-5.3-.6-6.9-1.8a6.2 6.2 0 0 1 -2.4-5.2c0-1.5.4-2.7 1.1-3.8a9 9 0 0 1 3.6-2.8 12 12 0 0 1 -3-2.9c-.6-1-.9-2.2-.9-3.4 0-2 .8-3.5 2.3-4.6 1.5-1.2 3.6-1.7 6.3-1.7zm-3 18.8c0 .7.3 1.3.8 1.7s1.2.7 2.1.7c2 0 3.1-.8 3.1-2.2 0-.6-.2-1.1-.7-1.7s-1.2-1.2-2.4-1.9a7 7 0 0 0 -2.2 1.6c-.5.6-.7 1.2-.7 1.8zm3-13.8c-.6 0-1.1.2-1.5.5s-.6.8-.6 1.3c0 1 .7 1.9 2 2.6.8-.5 1.4-.9 1.7-1.3s.5-.8.5-1.3c0-.6-.2-1-.6-1.3s-1-.5-1.5-.5z"/><path d="m59.2 59.9c0-1.1.3-1.9.9-2.5s1.6-.9 2.8-.9c1.1 0 2 .3 2.6.9s.9 1.4.9 2.5c0 1-.3 1.9-.9 2.4-.6.6-1.5.9-2.6.9s-2.1-.3-2.7-.9-1-1.3-1-2.4z"/><path d="m78.5 37c2.7 0 4.8.5 6.3 1.6a5.3 5.3 0 0 1 2.2 4.6 6 6 0 0 1 -1.1 3.5c-.7 1-1.8 1.9-3.3 2.7 1.9 1.1 3.2 2.1 4 3.2a5.6 5.6 0 0 1 1.2 3.4c0 2.3-.8 4-2.5 5.3a11.3 11.3 0 0 1 -6.9 1.9c-3 0-5.3-.6-6.9-1.8a6.2 6.2 0 0 1 -2.4-5.2c0-1.5.4-2.7 1.1-3.8a9 9 0 0 1 3.6-2.8 12 12 0 0 1 -3-2.9c-.6-1-.9-2.2-.9-3.4 0-2 .8-3.5 2.3-4.6 1.5-1.2 3.6-1.7 6.3-1.7zm-3 18.8c0 .7.3 1.3.8 1.7s1.2.7 2.1.7c2 0 3.1-.8 3.1-2.2 0-.6-.2-1.1-.7-1.7s-1.2-1.2-2.4-1.9c-1 .5-1.8 1.1-2.2 1.6s-.7 1.2-.7 1.8zm3-13.8c-.6 0-1.1.2-1.5.5s-.6.8-.6 1.3c0 1 .7 1.9 2 2.6.8-.5 1.4-.9 1.7-1.3s.5-.8.5-1.3c0-.6-.2-1-.6-1.3-.5-.4-1-.5-1.5-.5z"/><path d="m83.5 22.7-.9 1.3c-5.5-4-12.3-6.4-19.6-6.4v-1.6h1.4c5.7.2 11.1 1.7 16 4.6l1.3.8h.1l.8.6z"/><path d="m96.2 40.2-1.5.5a33.7 33.7 0 0 0 -12.1-16.6l.9-1.3 1 .8.7.5c4.6 3.7 8.1 8.5 10.3 14.1l.3.8.1.3z"/><path d="m96.6 60.6-.4 1.2-1.5-.5a35.2 35.2 0 0 0 0-20.6l1.5-.5a12.6 12.6 0 0 1 .4 1.2 33 33 0 0 1 0 19.2z"/><path d="m96.2 61.8-.3.8-.4 1a33.1 33.1 0 0 1 -10.2 14.1l-.7.5-.1.1-.9.7-1-1c5.6-4.1 9.9-9.9 12.1-16.6z"/><path d="m83.5 79.3-1 .7-.8.6-1.2.7a33.4 33.4 0 0 1 -15.9 4.6h-1.5v-1.6c7.3 0 14.1-2.4 19.5-6.4z"/><path d="m63 84.4v1.6h-1.4c-5.6-.2-11-1.6-15.8-4.5l-1.2-.7-.1-.1-.8-.5-1.1-.8.9-1.3a33.4 33.4 0 0 0 19.5 6.3z"/><path d="m43.4 78-.9 1.3a7 7 0 0 1 -1-.8l-.7-.5a33.3 33.3 0 0 1 -10.6-14.9l-.1-.3-.3-.9 1.5-.5a33.7 33.7 0 0 0 12.1 16.6z"/><path d="m29.6 51c0 3.6.6 7 1.6 10.3l-1.5.5-.3-1-.1-.2c-1.8-6-1.9-12.2-.2-18.3l.2-.8.4-1.2 1.5.5a34 34 0 0 0 -1.6 10.2z"/><path d="m43.4 24.1a33.7 33.7 0 0 0 -12.1 16.6l-1.5-.5.3-.8.4-1.1a33.1 33.1 0 0 1 10.1-14.1l.8-.6 1-.8z"/></g></svg>